<svg width="138" height="138" viewBox="0 0 138 138" fill="none" xmlns="http://www.w3.org/2000/svg">
<g clip-path="url(#clip0)">
<path d="M111.796 138L64.0122 138C58.9554 137.748 55.3039 133.654 55.2432 129.157L55.2432 107.755C50.545 101.637 44.0246 97.3014 39.3031 91.4056C37.6434 89.3247 35.798 87.7146 33.7666 86.5752C26.4893 82.8706 18.0169 85.1153 12.2158 79.8499C7.67541 69.269 14.0272 56.5933 23.9945 53.0228C32.1342 50.2163 40.2516 52.0969 47.4405 55.5866C47.4195 42.9532 47.5219 30.32 47.5891 17.6869C48.357 7.40196 55.2816 0.0686277 65.127 0.00020819C75.0487 0.02827 82.264 8.58186 82.442 17.6869L82.442 32.5495C85.365 33.0449 88.0155 34.011 90.3936 35.4477C96.5052 34.6152 102.497 36.5203 106.817 40.2036C142.093 42.2249 121.164 88.4396 120.639 105.748L120.639 129.157C120.398 134.249 116.316 137.939 111.796 138ZM111.796 106.12C112.094 92.2707 133.031 44.95 103.027 49.4928C100.328 44.485 93.1039 42.5581 88.5357 45.6284C83.9352 40.9633 78.1553 39.6349 73.5986 44.142C73.5986 39.6834 73.5739 35.2741 73.5243 30.9143C73.4748 26.5546 73.45 22.1453 73.45 17.6866C73.3427 12.584 69.599 9.04762 65.1269 8.99195C59.8397 9.10856 56.4863 13.1221 56.4323 17.6866C56.4314 34.9809 56.2856 52.0293 56.2838 68.0711C44.696 66.6273 28.9615 52.8027 19.833 66.9192C18.723 69.1792 18.2518 70.9864 18.681 73.3472C18.8793 73.7435 19.0773 73.9665 19.2756 74.0161C19.4737 74.0656 19.7957 74.1398 20.2416 74.2389C29.4266 75.739 38.6105 77.1393 44.6907 84.2712C50.7101 92.1214 60.1868 96.7503 64.0122 105.748L64.0122 106.119L111.796 106.12Z" fill="#404D9E"/>
</g>
<defs>
<clipPath id="clip0">
<rect width="138" height="138" fill="white" transform="translate(138 138) rotate(-180)"/>
</clipPath>
</defs>
</svg>
