<svg width="406" height="306" viewBox="0 0 406 306" fill="none" xmlns="http://www.w3.org/2000/svg">
<g clip-path="url(#clip0)">
<path opacity="0.18" d="M120.287 29.3196C113.382 36.4421 107.67 44.6118 101.625 52.4497C78.8168 81.8419 50.7102 107.087 30.7629 138.501C10.8156 169.915 -0.0392797 210.701 15.9061 244.261C26.6573 266.924 48.0975 282.984 71.1033 292.989C90.7863 301.668 112.077 306.101 133.589 306C178.543 305.471 220.221 283.523 264.221 274.078C283.722 269.931 303.721 268.158 323.005 263.078C336.67 259.491 350.044 254.152 361.365 245.764C392.769 222.603 403.872 178.375 394.604 140.46C385.335 102.546 358.68 70.7382 327.463 47.3074C274.588 7.49573 174.302 -26.4686 120.287 29.3196Z" fill="#404D9E"/>
<path d="M41.7526 260.776C41.1832 260.81 40.6327 260.992 40.156 261.305C39.8405 261.602 39.6035 261.972 39.466 262.383C39.3285 262.793 39.2949 263.232 39.368 263.659C39.7723 267.94 44.6348 270.097 48.7818 271.268C71.9539 277.828 95.9711 280.913 120.049 280.423C121.5 276.877 119.364 272.699 116.254 270.47C113.144 268.241 109.266 267.422 105.565 266.416C100.381 264.986 95.6641 262.539 90.6047 260.776C86.0741 259.2 80.7451 259.366 75.9035 259.138C64.4936 258.589 53.0575 259.138 41.7526 260.776Z" fill="url(#paint0_linear)"/>
<path d="M156.169 191.79L115.477 190.474L120.526 219.503L149.358 220.426L156.169 191.79Z" fill="#404D9E"/>
<path d="M156.169 191.79L115.477 190.474L120.526 219.503L149.358 220.426L156.169 191.79Z" fill="url(#paint1_linear)"/>
<path d="M112.076 120.43C111.074 122.473 110.58 124.728 110.635 127.003C110.127 137.278 110.21 147.738 113.289 157.588C117.809 172.019 128.332 183.662 138.555 194.807C137.788 193.574 140.058 187.042 140.369 185.477C140.96 182.366 141.634 179.391 142.277 176.343C143.314 171.542 142.277 166.483 141.074 161.745C138.454 151.028 133.339 141.081 126.145 132.716C122.059 127.977 117.322 123.841 112.076 120.43V120.43Z" fill="#404D9E"/>
<path d="M112.076 120.43C111.074 122.473 110.58 124.728 110.635 127.003C110.127 137.278 110.21 147.738 113.289 157.588C117.809 172.019 128.332 183.662 138.555 194.807C137.788 193.574 140.058 187.042 140.369 185.477C140.96 182.366 141.634 179.391 142.277 176.343C143.314 171.542 142.277 166.483 141.074 161.745C138.454 151.028 133.339 141.081 126.145 132.716C122.059 127.977 117.322 123.841 112.076 120.43V120.43Z" fill="url(#paint2_linear)"/>
<path d="M157.652 155.234C161.104 147.562 164.598 139.776 165.894 131.461C167.19 123.146 166.039 114.095 160.949 107.398C154.376 117.351 147.81 127.304 141.25 137.257C137.456 143.011 133.599 148.879 131.733 155.524C128.478 167.157 131.37 185.062 139.125 194.496C143.552 190.722 145.626 182.055 148.01 176.747L157.652 155.234Z" fill="#404D9E"/>
<path d="M157.652 155.234C161.104 147.562 164.598 139.776 165.894 131.461C167.19 123.146 166.039 114.095 160.949 107.398C154.376 117.351 147.81 127.304 141.25 137.257C137.456 143.011 133.599 148.879 131.733 155.524C128.478 167.157 131.37 185.062 139.125 194.496C143.552 190.722 145.626 182.055 148.01 176.747L157.652 155.234Z" fill="url(#paint3_linear)"/>
<path d="M114.329 180.478C110.683 180.36 107.633 183.22 107.515 186.865C107.397 190.511 110.257 193.561 113.903 193.679L157.538 195.088C161.183 195.206 164.234 192.346 164.352 188.701C164.469 185.055 161.61 182.005 157.964 181.887L114.329 180.478Z" fill="#404D9E"/>
<path d="M225.892 178.893L239.961 211.976L283.681 219.202L269.612 180.417L225.892 178.893Z" fill="#404D9E"/>
<path d="M225.892 178.893L239.961 211.976L283.681 219.202L269.612 180.417L225.892 178.893Z" fill="url(#paint4_linear)"/>
<path d="M239.961 211.976L211.823 219.202L269.425 235.739L283.681 219.202L239.961 211.976Z" fill="url(#paint5_linear)"/>
<path d="M239.961 211.976L211.823 219.202L262.583 243.67L283.681 219.202L239.961 211.976Z" fill="#404D9E"/>
<path d="M239.961 211.976L211.823 219.202L262.583 243.67L283.681 219.202L239.961 211.976Z" fill="url(#paint6_linear)"/>
<path d="M217.629 178.893L231.687 211.976L275.418 219.202L261.349 180.417L217.629 178.893Z" fill="#404D9E"/>
<path d="M228.183 203.713L266.73 195.264L261.349 180.417L217.629 178.893L228.183 203.713Z" fill="url(#paint7_linear)"/>
<path d="M231.687 211.976L203.56 219.202L261.152 235.739L275.418 219.202L231.687 211.976Z" fill="#404D9E"/>
<path d="M231.687 211.976L203.56 219.202L261.152 235.739L275.418 219.202L231.687 211.976Z" fill="url(#paint8_linear)"/>
<path d="M261.152 235.738L262.583 243.67L202.129 225.475L203.56 219.202L261.152 235.738Z" fill="#404D9E"/>
<path d="M261.152 235.738L262.583 243.67L202.129 225.475L203.56 219.202L261.152 235.738Z" fill="url(#paint9_linear)"/>
<path d="M331.113 40.672V189.147C331.088 190.814 330.405 192.404 329.212 193.569C328.02 194.735 326.414 195.381 324.747 195.367H324.104L157.642 176.861C156.108 176.689 154.691 175.961 153.657 174.815C152.624 173.668 152.046 172.183 152.033 170.64V57.6334C152.043 56.0809 152.626 54.5869 153.671 53.4386C154.716 52.2903 156.149 51.5688 157.694 51.4128L324.166 34.3685C324.99 34.2838 325.822 34.3623 326.616 34.5995C327.409 34.8366 328.148 35.2277 328.79 35.7505C329.432 36.2733 329.965 36.9175 330.358 37.6463C330.752 38.3752 330.997 39.1743 331.081 39.9981C331.102 40.2158 331.113 40.4439 331.113 40.672Z" fill="#404D9E"/>
<path d="M331.113 40.672V189.147C331.088 190.814 330.405 192.404 329.212 193.569C328.02 194.735 326.414 195.381 324.747 195.367H324.104L157.642 176.861C156.108 176.689 154.691 175.961 153.657 174.815C152.624 173.668 152.046 172.183 152.033 170.64V57.6334C152.043 56.0809 152.626 54.5869 153.671 53.4386C154.716 52.2903 156.149 51.5688 157.694 51.4128L324.166 34.3685C324.99 34.2838 325.822 34.3623 326.616 34.5995C327.409 34.8366 328.148 35.2277 328.79 35.7505C329.432 36.2733 329.965 36.9175 330.358 37.6463C330.752 38.3752 330.997 39.1743 331.081 39.9981C331.102 40.2158 331.113 40.4439 331.113 40.672Z" fill="url(#paint10_linear)"/>
<path d="M326.934 40.672V189.147C326.91 190.814 326.227 192.404 325.034 193.569C323.841 194.735 322.236 195.381 320.569 195.367H319.926L153.464 176.809C151.93 176.637 150.513 175.909 149.479 174.763C148.446 173.617 147.868 172.132 147.855 170.588V57.5815C147.865 56.029 148.448 54.535 149.493 53.3867C150.538 52.2385 151.971 51.517 153.515 51.361L319.988 34.3685C320.812 34.2838 321.644 34.3623 322.438 34.5995C323.231 34.8366 323.97 35.2277 324.612 35.7505C325.254 36.2733 325.787 36.9175 326.18 37.6463C326.573 38.3752 326.819 39.1743 326.903 39.9981C326.924 40.2158 326.934 40.4439 326.934 40.672Z" fill="#404D9E"/>
<path d="M156.169 128.268V57.5715L313.819 44.7778V130L156.169 128.268Z" fill="white"/>
<path d="M326.934 170.537V189.199C326.91 190.866 326.227 192.456 325.034 193.621C323.841 194.787 322.236 195.433 320.569 195.419H319.926L153.464 176.861C151.93 176.689 150.513 175.961 149.479 174.815C148.446 173.669 147.868 172.184 147.855 170.641V161.071L326.934 170.537Z" fill="url(#paint11_linear)"/>
<path d="M184.318 159.35L151.94 157.671V132.757L184.369 133.234L184.318 159.35Z" fill="white"/>
<path d="M158.596 156.333C159.121 155.175 159.984 154.202 161.072 153.544C162.16 152.885 163.422 152.571 164.692 152.642C165.542 152.642 166.402 152.787 167.242 152.829C169.71 152.912 173.463 152.051 175.609 153.679C176.511 154.353 177.257 157.256 177.682 158.417C177.733 158.528 177.76 158.648 177.76 158.77C177.76 158.891 177.733 159.012 177.682 159.122C177.548 159.309 177.351 159.288 177.174 159.278C172.727 158.987 168.341 158.832 164.007 158.552L158.015 158.21C158.072 157.55 158.27 156.91 158.596 156.333Z" fill="#404D9E"/>
<path d="M167.045 154.083C167.24 154.268 167.464 154.419 167.709 154.529C168.175 154.781 168.705 154.889 169.233 154.84C169.51 154.791 169.767 154.662 169.971 154.468C170.176 154.275 170.319 154.026 170.383 153.752C170.435 153.432 170.435 153.107 170.383 152.787L170.28 151.637C170.26 151.072 170.145 150.514 169.938 149.988C169.858 149.795 169.741 149.62 169.594 149.473C169.447 149.325 169.272 149.208 169.079 149.128C168.887 149.048 168.68 149.007 168.472 149.007C168.263 149.007 168.057 149.048 167.864 149.128C167.375 149.422 167.007 149.881 166.827 150.424C166.382 151.668 166.008 153.005 167.045 154.083Z" fill="url(#paint12_linear)"/>
<path d="M169.938 149.988C169.938 149.988 168.901 153.42 167.501 153.358C166.102 153.296 166.465 151.637 166.465 151.637L169.938 149.988Z" fill="url(#paint13_linear)"/>
<path d="M164.474 148.391C164.598 148.993 164.837 149.553 164.992 150.143C165.056 150.415 165.146 150.679 165.262 150.931C165.446 151.272 165.738 151.541 166.091 151.699C166.439 151.867 166.82 151.955 167.206 151.955C167.592 151.955 167.973 151.867 168.32 151.699C168.82 151.4 169.257 151.005 169.604 150.537C169.951 150.069 170.202 149.537 170.342 148.972C170.852 147.812 171.201 146.587 171.379 145.333C171.379 144.783 170.84 144.099 170.674 143.581C170.491 143.04 170.194 142.545 169.803 142.129C169.517 141.729 169.166 141.379 168.766 141.093C168.287 140.844 167.745 140.744 167.209 140.807C166.673 140.87 166.168 141.092 165.76 141.445C165.45 141.661 165.186 141.936 164.982 142.254C164.581 143.143 164.43 144.126 164.547 145.094C164.403 146.188 164.379 147.293 164.474 148.391Z" fill="url(#paint14_linear)"/>
<path d="M163.292 142.575C163.042 141.942 162.888 141.274 162.836 140.595C162.784 140.437 162.784 140.266 162.836 140.108C162.929 139.88 163.157 139.817 163.302 139.631C163.613 139.258 163.375 138.594 163.385 138.086C163.4 137.797 163.492 137.517 163.65 137.275C163.809 137.033 164.029 136.837 164.287 136.707C164.764 136.499 165.282 136.407 165.801 136.438C166.145 136.372 166.499 136.392 166.833 136.495C167.168 136.598 167.472 136.781 167.719 137.029C167.989 137.35 168.123 137.806 168.414 138.065C169.005 138.677 169.917 138.314 170.674 138.532C171.016 138.671 171.314 138.9 171.538 139.193C171.763 139.486 171.904 139.834 171.949 140.201C172.053 140.999 171.793 141.901 172.177 142.565C172.321 142.76 172.446 142.968 172.55 143.187C172.602 143.457 172.581 143.736 172.488 143.996C172.204 145.006 171.804 145.98 171.296 146.899C171.222 147.077 171.1 147.231 170.943 147.344C170.777 147.438 170.508 148.547 170.415 148.381C170.326 147.735 170.379 147.077 170.57 146.453C170.739 146.256 170.879 146.036 170.985 145.8C171.058 145.611 171.061 145.402 170.992 145.211C170.923 145.021 170.788 144.862 170.612 144.763C170.478 144.702 170.326 144.697 170.188 144.747C170.051 144.798 169.938 144.9 169.875 145.032C170.052 143.767 169.481 142.254 168.445 141.922C167.814 141.819 167.167 141.964 166.641 142.326C165.48 143.094 164.204 144.597 163.292 142.575Z" fill="#DD8049"/>
<path d="M170.311 145.385C170.319 145.36 170.333 145.337 170.35 145.317C170.368 145.297 170.39 145.282 170.415 145.271C170.444 145.264 170.474 145.266 170.502 145.277C170.53 145.289 170.554 145.308 170.57 145.333C170.66 145.391 170.726 145.479 170.757 145.582C170.777 145.664 170.777 145.749 170.757 145.831C170.727 145.993 170.675 146.15 170.601 146.297C170.57 146.369 170.522 146.431 170.46 146.478C170.398 146.525 170.326 146.556 170.249 146.567C170.187 146.567 170.093 146.38 170.093 146.308C170.093 146.235 170.155 146.194 170.187 146.132C170.212 145.88 170.254 145.631 170.311 145.385V145.385Z" fill="url(#paint15_linear)"/>
<path d="M316.297 166.359L271.022 164.005L271.229 134.675L316.598 135.349L316.297 166.359Z" fill="white"/>
<path d="M267.58 163.922L227.302 161.828L227.426 134.115L267.777 134.717L267.58 163.922Z" fill="white"/>
<path d="M223.808 161.641L187.791 159.775L187.843 133.535L223.922 134.063L223.808 161.641Z" fill="white"/>
<path d="M242.895 137.184C244.386 136.717 245.975 136.656 247.498 137.008C248.388 137.103 249.248 137.39 250.017 137.848C251.404 138.981 252.288 140.617 252.474 142.399C252.68 144.196 253.026 145.975 253.511 147.718C254.195 149.677 255.585 151.367 256.041 153.399C256.44 154.903 256.228 156.504 255.451 157.852C254.674 159.2 253.395 160.186 251.894 160.594C251.434 160.694 250.964 160.732 250.494 160.708C249.302 160.646 248.141 160.169 246.959 160.117C244.512 159.993 242.179 161.683 239.826 161.04C237.897 160.511 236.539 158.531 235.772 156.54C235.212 155.325 235.066 153.959 235.357 152.652C235.876 150.942 237.555 149.988 238.312 148.371C239.276 146.349 238.571 143.892 239.349 141.829C240.054 139.931 240.945 137.92 242.895 137.184Z" fill="#606161"/>
<path d="M251.251 154.457C252.588 154.788 254.092 154.726 255.18 155.607C255.842 156.205 256.28 157.009 256.424 157.888C256.567 158.755 256.602 159.636 256.528 160.511L256.424 163.093C256.431 163.188 256.406 163.283 256.352 163.362C256.268 163.413 256.169 163.435 256.072 163.425L235.782 162.388C235.437 161.011 235.63 159.553 236.321 158.313C236.809 157.277 237.492 156.344 238.333 155.566C239.546 154.622 242.387 154.654 243.734 153.876C244.087 153.669 243.734 153.347 244.17 153.254C244.605 153.161 244.388 152.642 244.781 152.653C245.979 152.601 247.178 152.705 248.348 152.964C249.283 153.523 250.252 154.021 251.251 154.457V154.457Z" fill="#404D9E"/>
<path d="M243.299 154.872C243.193 155.209 243.124 155.556 243.092 155.908C243.088 156.311 243.181 156.709 243.361 157.07C243.541 157.43 243.804 157.743 244.128 157.982C244.446 158.206 244.816 158.344 245.203 158.384C245.589 158.424 245.98 158.364 246.337 158.21C247.126 157.806 247.722 157.105 247.995 156.261C248.285 155.385 248.432 154.467 248.431 153.545C248.462 152.308 248.4 151.071 248.244 149.843C248.273 149.649 248.229 149.451 248.119 149.288C248.01 149.125 247.844 149.009 247.653 148.962H247.498C246.821 148.84 246.123 148.962 245.527 149.305C244.931 149.649 244.476 150.192 244.242 150.839C244.099 151.284 244.002 151.742 243.952 152.207C243.807 153.151 243.486 154.011 243.299 154.872Z" fill="url(#paint16_linear)"/>
<path d="M243.797 153.026C243.797 153.026 243.672 154.156 244.139 154.591C244.605 155.027 246.461 156.084 247.373 154.747C247.931 153.846 248.285 152.834 248.41 151.782L243.797 153.026Z" fill="url(#paint17_linear)"/>
<path d="M241.267 149.232C241.505 150.061 242.905 153.016 244.875 153.627C249.125 154.944 250.484 146.816 250.276 145.095C250.003 143.673 249.326 142.359 248.327 141.311C247.806 140.849 247.162 140.549 246.474 140.447C245.785 140.346 245.081 140.448 244.45 140.74C241.122 142.202 240.23 145.686 241.267 149.232Z" fill="url(#paint18_linear)"/>
<path d="M239.929 144.69C239.965 144.857 240.044 145.011 240.158 145.137C240.273 145.263 240.42 145.355 240.583 145.406C240.925 145.478 241.256 145.24 241.619 145.136C241.982 145.032 242.47 145.074 242.863 144.929C243.257 144.783 243.6 144.244 243.351 143.892C243.237 144.462 243.911 144.846 244.388 144.804C244.9 144.643 245.45 144.643 245.963 144.804L246.171 143.685C246.134 143.914 246.175 144.149 246.288 144.352C246.401 144.555 246.579 144.714 246.793 144.804C247.196 144.98 247.65 145.002 248.068 144.866C248.255 144.866 248.493 144.669 248.421 144.472C248.846 145.053 249.685 144.835 250.318 144.566C250.419 144.532 250.506 144.466 250.567 144.379C250.608 144.262 250.608 144.134 250.567 144.016C250.361 142.905 250.013 141.824 249.53 140.802C249.297 140.307 248.963 139.866 248.549 139.509C248.134 139.151 247.649 138.886 247.125 138.729C246.532 138.635 245.926 138.656 245.341 138.791C243.772 139.034 242.355 139.869 241.381 141.124C240.614 141.922 239.629 143.456 239.929 144.69Z" fill="#606161"/>
<path d="M288.574 138.273C290.261 137.786 292.041 137.722 293.758 138.086C294.753 138.192 295.716 138.498 296.588 138.988C299.408 140.751 298.662 143.135 298.952 145.841C298.967 146.284 299.095 146.715 299.326 147.093C299.557 147.471 299.882 147.783 300.269 147.997C300.808 148.246 301.461 148.246 301.917 148.63C302.145 148.879 302.304 149.183 302.377 149.512C302.45 149.842 302.434 150.185 302.332 150.506C302.177 151.16 301.845 151.751 301.71 152.404C301.635 152.659 301.661 152.934 301.783 153.171C301.98 153.472 302.374 153.544 302.705 153.689C303.084 153.908 303.403 154.218 303.633 154.591C303.863 154.964 303.997 155.388 304.022 155.825C304.136 156.696 304.022 157.567 304.074 158.427C304.156 158.973 304.198 159.524 304.198 160.076C304.056 160.893 303.634 161.635 303.004 162.174C302.373 162.713 301.575 163.016 300.746 163.031C299.08 163.032 297.435 162.656 295.935 161.932C294.45 161.202 292.81 160.846 291.156 160.895C289.435 161.092 287.61 162.16 286.096 161.216C285.672 160.909 285.33 160.503 285.099 160.033C284.867 159.563 284.754 159.044 284.769 158.521C284.81 157.489 285.027 156.472 285.412 155.514C285.558 155.214 285.588 154.87 285.495 154.55C285.349 154.308 285.151 154.103 284.914 153.948C282.737 152.093 283.587 145.416 284.531 143.156C285.371 141.176 286.387 139.05 288.574 138.273Z" fill="#FBB03B"/>
<path d="M297.926 156.593C299.419 156.955 301.119 156.893 302.342 157.837C303.076 158.459 303.571 159.316 303.742 160.263C303.89 161.181 303.925 162.114 303.846 163.041L303.721 165.778C303.731 165.879 303.701 165.979 303.638 166.058C303.546 166.118 303.436 166.144 303.327 166.131L280.519 165.011C280.329 164.288 280.284 163.535 280.387 162.794C280.49 162.054 280.739 161.342 281.12 160.698C281.681 159.592 282.452 158.606 283.39 157.795C284.759 156.758 287.942 156.831 289.466 156.012C289.86 155.805 289.466 155.463 289.953 155.369C290.44 155.276 290.202 154.716 290.637 154.726C291.983 154.671 293.331 154.782 294.65 155.058C295.811 155.442 296.692 156.292 297.926 156.593Z" fill="#404D9E"/>
<path d="M288.979 157.017C288.856 157.383 288.779 157.763 288.751 158.148C288.741 158.592 288.844 159.032 289.051 159.425C289.258 159.819 289.561 160.153 289.932 160.397C290.296 160.633 290.711 160.778 291.142 160.82C291.574 160.861 292.009 160.798 292.41 160.636C292.846 160.433 293.237 160.146 293.559 159.789C293.881 159.433 294.129 159.016 294.287 158.562C294.609 157.639 294.773 156.668 294.774 155.69C294.817 154.381 294.752 153.07 294.577 151.771C294.611 151.559 294.56 151.342 294.436 151.166C294.312 150.989 294.125 150.868 293.914 150.828H293.748C293.001 150.693 292.23 150.817 291.563 151.179C290.896 151.541 290.372 152.119 290.078 152.819C289.916 153.286 289.805 153.769 289.746 154.26C289.559 155.193 289.238 156.105 288.979 157.017Z" fill="url(#paint19_linear)"/>
<path d="M289.549 155.068C289.549 155.068 289.404 156.25 289.932 156.717C290.461 157.183 292.535 158.313 293.561 156.903C294.193 155.969 294.611 154.907 294.784 153.793L289.549 155.068Z" fill="url(#paint20_linear)"/>
<path d="M286.718 151.035C286.978 151.917 288.543 155.048 290.751 155.701C295.531 157.111 297.076 148.506 296.858 146.681C296.544 145.153 295.783 143.752 294.67 142.658C294.075 142.158 293.351 141.836 292.581 141.728C291.811 141.62 291.026 141.73 290.316 142.047C286.573 143.591 285.568 147.272 286.718 151.035Z" fill="url(#paint21_linear)"/>
<path d="M197.92 150.475C199.43 149.873 201.056 149.615 202.679 149.719C204.465 149.553 206.262 149.894 207.862 150.703C208.575 151.202 209.208 151.807 209.739 152.497C209.937 152.719 210.105 152.966 210.237 153.233C210.362 153.563 210.412 153.918 210.382 154.27V159.184C210.404 159.506 210.351 159.83 210.226 160.128C209.822 160.936 211.263 160.988 210.226 160.936L193.959 160.117C194.208 160.117 194.488 157.401 194.478 157.131C194.323 156.244 194.373 155.332 194.623 154.467C195.232 152.798 196.396 151.389 197.92 150.475Z" fill="#404D9E"/>
<path d="M202.015 152.362C202.245 152.6 202.523 152.787 202.83 152.908C203.138 153.03 203.468 153.084 203.798 153.067C204.212 152.942 204.576 152.691 204.84 152.349C205.104 152.007 205.254 151.591 205.27 151.16C205.385 150.289 205.208 149.376 205.27 148.495C205.343 147.941 205.343 147.38 205.27 146.826C205.117 146.248 204.741 145.754 204.224 145.452C203.707 145.151 203.091 145.067 202.513 145.219C202.03 145.341 201.602 145.622 201.3 146.017C200.543 146.961 200.771 148.091 200.729 149.283C200.714 149.858 200.821 150.43 201.043 150.96C201.264 151.491 201.596 151.969 202.015 152.362V152.362Z" fill="#A67C52"/>
<path d="M200.885 148.226C200.885 148.226 201.725 151.087 203.363 151.16C205.001 151.232 205.25 150.268 205.25 150.268L205.177 148.734L200.885 148.226Z" fill="url(#paint22_linear)"/>
<path d="M206.805 145.012C206.783 145.849 206.661 146.681 206.442 147.489C206.235 148.264 205.789 148.953 205.167 149.459C204.742 149.756 204.242 149.926 203.725 149.95C203.207 149.974 202.693 149.851 202.243 149.594C201.279 149.032 200.531 148.163 200.118 147.127C199.641 146.064 199.35 144.928 199.257 143.767C199.192 142.886 199.334 142.002 199.672 141.186C199.856 140.8 200.118 140.457 200.441 140.177C200.764 139.897 201.141 139.686 201.549 139.558C202.329 139.332 203.145 139.255 203.954 139.33C204.629 139.332 205.294 139.495 205.893 139.807C206.238 140.006 206.515 140.304 206.689 140.663C206.863 141.022 206.925 141.424 206.867 141.818C206.732 142.855 206.857 143.964 206.805 145.012Z" fill="#A67C52"/>
<path d="M200.315 144.411C200.107 144.276 199.993 143.944 199.765 143.913C199.689 143.913 199.616 143.938 199.554 143.982C199.493 144.027 199.447 144.09 199.423 144.162C199.382 144.322 199.382 144.489 199.423 144.649C199.475 145.034 199.641 145.396 199.9 145.686C200.019 145.789 200.114 145.916 200.18 146.059C200.2 146.176 200.2 146.295 200.18 146.412L200.087 147.241C199.898 147.144 199.731 147.008 199.599 146.842C199.467 146.675 199.371 146.483 199.319 146.277C199.257 146.1 199.205 145.758 198.998 145.707C198.791 145.655 198.666 145.945 198.428 145.707C198.344 145.621 198.288 145.511 198.267 145.393C198.247 145.274 198.263 145.152 198.314 145.043C198.086 145.323 197.619 145.043 197.567 144.67C197.558 144.485 197.598 144.301 197.684 144.137C197.769 143.973 197.898 143.835 198.055 143.737C197.866 143.658 197.7 143.532 197.575 143.37C197.45 143.208 197.368 143.017 197.339 142.814C197.339 142.379 197.671 141.933 198.034 142.057C197.907 141.867 197.84 141.643 197.84 141.414C197.84 141.186 197.907 140.962 198.034 140.772C198.153 140.607 198.309 140.473 198.489 140.38C198.669 140.286 198.868 140.236 199.071 140.232V138.978C199.059 138.7 199.112 138.423 199.226 138.169C199.371 137.952 199.703 137.858 199.859 138.086C199.91 137.495 200.035 136.801 200.512 136.604C200.693 136.568 200.88 136.573 201.059 136.617C201.238 136.662 201.405 136.746 201.549 136.863C201.56 136.619 201.645 136.384 201.793 136.189C201.941 135.995 202.145 135.85 202.378 135.774C202.602 135.722 202.836 135.726 203.058 135.786C203.281 135.845 203.485 135.959 203.653 136.116C203.702 136.161 203.758 136.196 203.819 136.22C203.894 136.241 203.973 136.241 204.047 136.22C204.296 136.06 204.583 135.97 204.878 135.959C205.174 135.948 205.467 136.017 205.727 136.158C205.943 136.409 206.106 136.7 206.208 137.016C206.309 137.331 206.347 137.663 206.318 137.993C206.318 137.723 206.681 137.703 206.919 137.775C207.195 137.836 207.445 137.981 207.634 138.19C207.761 138.436 207.821 138.711 207.808 138.988C207.795 139.264 207.71 139.532 207.562 139.766C207.818 139.792 208.056 139.912 208.229 140.104C208.401 140.296 208.496 140.545 208.495 140.803C208.567 141.746 207.759 141.746 207.323 142.244C207.023 142.576 206.888 143.084 206.556 143.374C206.354 143.505 206.118 143.575 205.877 143.575C205.636 143.575 205.4 143.505 205.198 143.374C204.778 143.104 204.376 142.806 203.995 142.482C203.811 142.325 203.573 142.247 203.332 142.264C203.01 142.337 202.824 142.731 202.533 142.918C202.401 142.988 202.255 143.031 202.105 143.043C201.956 143.056 201.805 143.038 201.663 142.99C201.31 142.897 200.906 142.804 200.626 143.177C200.461 143.57 200.356 143.986 200.315 144.411V144.411Z" fill="#606161"/>
<path opacity="0.5" d="M199.942 144.804C199.929 144.73 199.901 144.659 199.859 144.597C199.845 144.566 199.823 144.54 199.796 144.52C199.769 144.5 199.737 144.487 199.703 144.483C199.67 144.495 199.642 144.516 199.62 144.544C199.598 144.571 199.584 144.604 199.579 144.638C199.568 144.711 199.568 144.784 199.579 144.856C199.611 144.999 199.66 145.138 199.724 145.271C199.753 145.36 199.803 145.442 199.869 145.509C199.94 145.571 200.026 145.613 200.118 145.634H200.221C200.226 145.622 200.229 145.61 200.229 145.597C200.229 145.585 200.226 145.573 200.221 145.561C200.221 145.437 200.294 145.178 200.221 145.063C200.149 144.949 200.118 145.063 200.066 144.991C200.006 144.943 199.963 144.878 199.942 144.804V144.804Z" fill="url(#paint23_linear)"/>
<path d="M293.136 145.727C293.246 145.706 293.358 145.706 293.468 145.727C293.592 145.781 293.697 145.871 293.768 145.986C294.03 146.358 294.389 146.652 294.805 146.836C295.005 146.933 295.231 146.963 295.449 146.922C295.668 146.881 295.867 146.771 296.018 146.608C296.303 146.922 296.611 147.213 296.941 147.479C297.012 147.554 297.108 147.602 297.21 147.614C297.501 147.614 297.521 147.178 297.439 146.898L296.277 143.104C296.162 142.597 295.935 142.123 295.614 141.715C294.921 141.155 294.045 140.874 293.157 140.927C291.85 140.844 287.413 140.792 287.185 142.772C286.864 145.24 291.529 145.965 293.136 145.727Z" fill="#FBB03B"/>
<path d="M213.845 72.9052C216.955 71.7337 220.397 71.9722 223.725 72.5216C225.632 72.7369 227.473 73.3516 229.126 74.3256C232.185 76.3991 233.688 80.3077 234.393 84.1023C235.098 87.8968 235.223 91.8572 236.467 95.5066C237.949 99.7366 240.925 103.345 241.899 107.709C243.485 114.811 239.432 121.747 232.9 123.167C231.916 123.378 230.908 123.455 229.904 123.395C227.343 123.271 224.855 122.245 222.315 122.131C217.069 121.871 212.072 125.5 207.012 124.111C202.865 122.97 199.962 118.74 198.303 114.459C197.267 111.794 196.593 108.819 197.412 106.165C198.542 102.484 202.139 100.431 203.757 96.9788C205.83 92.6348 204.317 87.3577 206.09 82.9307C207.728 78.794 209.656 74.4811 213.845 72.9052Z" fill="#DD8049"/>
<path d="M231.78 109.969C234.642 110.695 237.866 110.539 240.209 112.457C241.639 113.731 242.584 115.46 242.884 117.351C243.174 119.209 243.247 121.095 243.102 122.97L242.884 128.517C242.904 128.718 242.844 128.919 242.718 129.077C242.635 129.139 242.539 129.183 242.437 129.207C242.335 129.23 242.23 129.231 242.127 129.211L197.09 128.714C196.354 125.707 198.252 120.938 199.724 118.346C200.958 116.169 202.108 113.981 204.047 112.447C206.66 110.373 212.746 110.467 215.638 108.797C216.395 108.372 215.721 107.678 216.571 107.481C217.421 107.284 217.048 106.164 217.878 106.185C220.252 106.278 223.227 106.06 225.55 106.838C227.872 107.616 229.427 109.368 231.78 109.969Z" fill="#404D9E"/>
<path d="M214.705 110.861C214.469 111.609 214.32 112.381 214.259 113.163C214.244 114.046 214.442 114.921 214.837 115.712C215.233 116.502 215.813 117.186 216.53 117.704C217.216 118.174 218.01 118.465 218.838 118.548C219.666 118.632 220.501 118.505 221.268 118.18C222.106 117.758 222.853 117.175 223.465 116.463C224.077 115.751 224.542 114.926 224.834 114.033C225.456 112.158 225.768 110.193 225.757 108.217C225.837 105.561 225.708 102.902 225.373 100.265C225.439 99.8477 225.344 99.4207 225.107 99.0705C224.871 98.7203 224.51 98.4729 224.098 98.3783H223.787C222.331 98.1192 220.83 98.3828 219.55 99.1226C218.269 99.8624 217.292 101.031 216.789 102.422C216.497 103.379 216.292 104.361 216.177 105.356C215.794 107.17 215.192 109.005 214.705 110.861Z" fill="url(#paint24_linear)"/>
<path d="M215.783 106.911C215.783 106.911 215.514 109.316 216.509 110.259C217.504 111.203 221.485 113.473 223.445 110.602C224.671 108.672 225.467 106.501 225.778 104.236L215.783 106.911Z" fill="url(#paint25_linear)"/>
<path d="M210.309 98.7308C210.817 100.514 213.813 106.849 218.033 108.155C227.177 110.985 230.08 93.5573 229.645 89.8561C229.076 86.8031 227.636 83.98 225.498 81.7279C224.387 80.7334 223.008 80.0881 221.533 79.8724C220.058 79.6566 218.552 79.8801 217.204 80.5149C210.04 83.6874 208.132 91.152 210.309 98.7308Z" fill="url(#paint26_linear)"/>
<path d="M248.389 107.108C248.446 105.595 248.633 104.089 248.949 102.608C249.126 101.93 249.23 101.235 249.26 100.535C249.26 99.8299 249.074 99.1353 249.011 98.4614C248.966 97.6429 249.015 96.822 249.157 96.0146C249.289 95.3774 249.324 94.7236 249.26 94.0759C249.198 93.713 248.856 92.9354 248.348 93.1532C248.058 93.2776 248.068 93.6819 248.099 94.0033C248.265 94.9153 248.1 95.8566 247.633 96.6574C247.648 95.8752 247.617 95.0928 247.539 94.3143C247.522 93.9172 247.473 93.522 247.394 93.1324C247.374 92.9613 247.343 92.7916 247.301 92.6244C247.228 92.4486 247.165 92.2686 247.114 92.0853C247.021 91.7224 247.021 91.3492 246.959 90.9863C246.933 90.8256 246.898 90.6664 246.855 90.5094C246.852 90.2025 246.768 89.9018 246.611 89.6378C246.455 89.3738 246.231 89.1559 245.963 89.0061C245.786 88.9201 245.583 88.901 245.393 88.9525C245.202 89.0039 245.037 89.1223 244.927 89.286C244.916 89.3268 244.916 89.3696 244.927 89.4104C244.98 90.3172 245.123 91.2166 245.352 92.0957C245.427 92.5478 245.462 93.0058 245.455 93.4642C245.476 93.6987 245.476 93.9347 245.455 94.1692C245.407 94.3733 245.38 94.5817 245.372 94.7912L244.699 90.7997C244.574 90.0636 244.574 87.8761 243.33 88.0938C243.142 88.146 242.975 88.2545 242.851 88.4047C242.727 88.5548 242.652 88.7394 242.635 88.9335C242.596 89.3278 242.634 89.7259 242.749 90.1051C243.05 91.4218 243.6 93.1221 242.749 94.3765C242.572 92.7746 242.295 91.1852 241.92 89.6178C241.881 89.3592 241.762 89.1196 241.578 88.9335C241.383 88.8208 241.151 88.7903 240.933 88.8486C240.715 88.907 240.529 89.0494 240.417 89.2446C240.413 89.279 240.413 89.3138 240.417 89.3482C240.255 89.8114 240.226 90.3107 240.334 90.7893C240.693 93.3867 240.876 96.0052 240.883 98.6273C240.199 98.7828 239.567 98.254 238.903 98.0259C238.593 97.9234 238.266 97.8833 237.94 97.9083C237.614 97.9332 237.297 98.0225 237.006 98.1711C236.909 98.2116 236.823 98.2758 236.757 98.3577C236.716 98.4472 236.695 98.5444 236.695 98.6428C236.695 98.7412 236.716 98.8385 236.757 98.9279C237.265 100.058 238.675 100.462 239.504 101.385C239.753 101.665 239.95 101.986 240.168 102.287C240.937 103.057 241.606 103.921 242.158 104.858C242.453 105.719 242.507 106.644 242.314 107.533C242.244 107.747 242.223 107.973 242.254 108.196C242.285 108.419 242.365 108.632 242.49 108.819C242.631 108.951 242.802 109.047 242.988 109.099C243.879 109.387 244.832 109.428 245.744 109.218C246.657 109.008 247.496 108.555 248.172 107.906" fill="url(#paint27_linear)"/>
<path d="M239.764 129.709V107.761L251.966 106.683L253.853 129.688L239.764 129.709Z" fill="#404D9E"/>
<path d="M216.654 86.5798C215.804 87.7382 214.646 88.6349 213.312 89.1682C211.978 89.7015 210.521 89.85 209.107 89.5968C209.028 89.5859 208.953 89.558 208.887 89.515C208.821 89.472 208.765 89.415 208.723 89.3479C208.702 89.2593 208.702 89.167 208.723 89.0784L209.76 82.5261C209.853 81.5249 210.153 80.554 210.641 79.675C211.262 78.8583 212.06 78.1921 212.974 77.7258C213.94 77.0723 215.036 76.6371 216.188 76.4506C218.095 76.2744 218.883 78.8041 218.811 80.297C218.759 82.3083 218.137 85.0972 216.654 86.5798Z" fill="#DD8049"/>
<path d="M221.714 82.0183C222.837 84.3134 224.699 86.1645 227.001 87.2747L232.724 90.6338C231.964 89.1903 231.409 87.648 231.075 86.0513C230.899 84.9269 230.65 83.8152 230.329 82.7233C229.621 80.8496 228.258 79.2955 226.493 78.3482C225.218 77.6432 221.62 76.2021 220.272 77.1974C218.665 78.3171 221.04 80.909 221.714 82.0183Z" fill="#DD8049"/>
<path d="M75.7065 258.101C75.1957 258.734 74.8886 259.507 74.8257 260.317C74.7627 261.128 74.947 261.939 75.354 262.642C75.7754 263.327 76.4068 263.858 77.154 264.155C77.9013 264.452 78.7245 264.5 79.5011 264.291C79.7699 264.222 80.0187 264.091 80.2268 263.907C80.6726 263.482 80.7348 262.757 81.1495 262.3C81.5882 261.95 82.1093 261.718 82.6632 261.626C83.6443 261.276 84.567 260.78 85.4002 260.154C85.5503 260.078 85.6752 259.961 85.7599 259.815C85.8445 259.67 85.8852 259.503 85.8771 259.335C86.0764 258.422 85.9364 257.467 85.4832 256.65C85.2315 256.35 84.9255 256.1 84.5812 255.914C83.9257 255.508 83.1746 255.283 82.404 255.261C81.8101 255.303 81.2263 255.436 80.6726 255.655C79.0951 256.108 77.6152 256.85 76.3078 257.842" fill="#404D9E"/>
<path d="M78.7753 250.834L76.1316 259.937C76.1316 259.937 76.6292 262.228 79.4285 261.264C82.2277 260.3 84.6123 253.125 84.6123 253.125L78.7753 250.834Z" fill="#A67C52"/>
<path d="M106.695 269.869C107.416 269.758 108.144 269.71 108.872 269.724C109.24 269.738 109.6 269.827 109.932 269.986C110.264 270.144 110.559 270.369 110.801 270.646C111.144 271.205 111.278 271.867 111.182 272.516C111.085 273.164 110.763 273.758 110.272 274.192C109.278 275.013 108.061 275.518 106.778 275.644C105.984 275.83 105.157 275.83 104.363 275.644C103.388 275.364 102.445 274.545 101.47 274.845C101.049 275.029 100.658 275.273 100.309 275.571C99.6368 276.06 98.8037 276.274 97.9793 276.17C97.1548 276.066 96.4011 275.652 95.8715 275.011C95.5791 274.592 95.3616 274.126 95.2287 273.632C94.8244 272.056 95.0006 270.107 96.2655 269.174C97.8102 268.065 99.0129 268.822 100.495 269.34C102.499 269.965 104.615 270.146 106.695 269.869V269.869Z" fill="#404D9E"/>
<path d="M105.41 261.046L101.543 270.522C101.543 270.522 99.3239 271.849 97.7481 271.258L96.1722 270.667L97.5303 257.417L105.41 261.046Z" fill="#A67C52"/>
<path d="M135.849 134.779C135.797 134.354 135.776 133.846 136.108 133.597C136.44 133.348 136.616 133.41 136.751 133.193C136.824 133.045 136.846 132.877 136.813 132.716C136.799 131.853 136.879 130.99 137.052 130.145C137.092 129.57 137.282 129.016 137.601 128.538C137.872 128.239 138.225 128.026 138.615 127.925C139.006 127.824 139.417 127.838 139.799 127.967C140.584 128.246 141.243 128.798 141.655 129.522C142.062 130.236 142.366 131.004 142.557 131.803C142.729 132.362 142.83 132.94 142.858 133.524C142.858 135.318 141.645 136.801 141.064 138.48C141.012 138.67 140.92 138.847 140.794 138.998C140.656 139.103 140.493 139.172 140.32 139.197C140.148 139.222 139.973 139.204 139.809 139.144C138.76 138.95 137.782 138.478 136.979 137.775C136.296 136.921 135.9 135.872 135.849 134.779V134.779Z" fill="#A67C52"/>
<path d="M83.4822 197.907C83.4822 197.907 84.0731 207.901 85.1514 212.785C86.2296 217.668 86.8724 223.225 86.8724 223.225L76.9921 251.642C76.9921 251.642 83.0053 255.644 86.8724 254.089C90.7395 252.534 100.516 230.71 100.516 230.71L104.238 205.901L94.3889 194.579L83.4822 197.907Z" fill="#473F47"/>
<path d="M110.78 195.906C110.78 195.906 117.83 219.005 117.83 224.998C117.83 230.99 109.38 260.528 109.38 260.528C109.38 260.528 100.216 263.638 98.0694 260.528L95.9233 257.417L101.107 227.662C101.107 227.662 93.8498 212.111 92.5124 208.119C91.7238 205.66 91.1651 203.134 90.8432 200.572L110.78 195.906Z" fill="#473F47"/>
<path d="M107.784 132.685C108.609 134.327 109.136 136.103 109.339 137.931C109.441 138.84 109.304 139.761 108.94 140.602C108.576 141.442 107.999 142.172 107.266 142.72C106.822 142.938 106.405 143.206 106.021 143.519C104.705 144.866 106.218 147.324 105.451 149.076C105.151 149.644 104.652 150.082 104.05 150.306C103.447 150.53 102.784 150.524 102.185 150.289C101.593 150.027 101.066 149.637 100.641 149.148C100.216 148.659 99.9046 148.082 99.7283 147.458C99.3893 146.184 99.2391 144.867 99.2825 143.55L99.1477 135.712C98.9726 133.966 99.2437 132.203 99.9356 130.59C100.408 129.772 101.098 129.1 101.928 128.65C102.759 128.199 103.699 127.988 104.643 128.04C106.561 128.278 107.12 131.15 107.784 132.685Z" fill="#A67C52"/>
<path d="M133.413 166.618C132.261 166.932 131.085 167.154 129.898 167.281C124.272 168.088 118.753 169.521 113.445 171.553C113.078 171.668 112.742 171.863 112.46 172.123C112.2 172.485 112.033 172.905 111.972 173.346C110.479 180.655 110.936 188.462 110.749 195.917C108.89 197.004 106.957 197.96 104.964 198.778C101.708 200.115 97.5925 201.349 94.0053 201.017C86.748 200.354 83.4822 197.907 83.4822 197.907L87.9714 152.912C87.9714 152.912 96.4832 146.784 99.3757 147.728C101.458 148.091 103.587 148.091 105.669 147.728C109.878 147.168 114.17 152.912 114.17 152.912C114.481 156.82 126.611 156.24 129.483 156.022C129.912 156.03 130.336 155.93 130.717 155.732C131.079 155.431 131.358 155.042 131.526 154.602C133.807 149.76 136.139 144.69 136.046 139.33C136.046 138.501 136.046 137.464 136.844 137.143C137.133 137.053 137.439 137.035 137.736 137.091C139.288 137.205 140.824 137.483 142.318 137.92C141.157 141.953 142.588 146.214 142.235 150.444C141.867 153.261 141.092 156.009 139.934 158.604C138.814 161.465 137.508 164.555 134.75 166.027C134.322 166.261 133.874 166.459 133.413 166.618V166.618Z" fill="white"/>
<path d="M107.286 124.246C107.38 123.375 107.711 122.545 106.892 121.861C106.53 121.587 106.077 121.462 105.625 121.512C105.174 121.562 104.759 121.783 104.466 122.131C104.303 121.758 104.057 121.427 103.746 121.165C103.435 120.902 103.068 120.715 102.673 120.617C102.061 120.472 101.242 120.689 101.159 121.322C100.705 120.552 99.9643 119.994 99.0991 119.77C98.2339 119.547 97.3153 119.676 96.5454 120.13C96.2073 120.334 95.9059 120.593 95.6538 120.897L93.7772 120.275C93.1767 119.987 92.4935 119.921 91.8489 120.088C91.2268 120.327 90.8743 121.249 91.3823 121.664C91.0123 121.651 90.6481 121.759 90.3458 121.973C90.0435 122.187 89.8198 122.494 89.7091 122.848C89.5984 123.201 89.6068 123.581 89.733 123.929C89.8592 124.277 90.0963 124.574 90.4078 124.774C90.2493 124.888 90.115 125.033 90.0129 125.199C89.9108 125.366 89.8428 125.551 89.8129 125.744C89.7829 125.937 89.7917 126.134 89.8387 126.323C89.8856 126.513 89.9698 126.691 90.0864 126.848C90.199 127.007 90.3438 127.142 90.5114 127.242C90.0141 127.349 89.5784 127.647 89.2975 128.071C89.0166 128.495 88.9128 129.013 89.0081 129.512C89.1073 129.997 89.3848 130.426 89.7857 130.715C89.2075 131.096 88.8034 131.69 88.6616 132.368C88.5198 133.046 88.6518 133.752 89.0289 134.333C89.2515 134.667 89.5454 134.946 89.8894 135.152C89.4844 136.041 89.3614 137.032 89.5369 137.993C89.631 138.47 89.8712 138.906 90.2242 139.24C90.5771 139.575 91.0254 139.791 91.5067 139.859C91.0012 140.06 90.5633 140.401 90.2439 140.842C89.9245 141.282 89.7369 141.804 89.7028 142.347C89.697 142.89 89.8635 143.42 90.1784 143.862C90.4933 144.303 90.9403 144.633 91.4549 144.805C91.683 144.867 91.9525 144.919 92.077 145.116C92.1578 145.272 92.1936 145.448 92.1806 145.624C92.2075 146.003 92.3411 146.366 92.5661 146.672C92.7911 146.979 93.0982 147.215 93.4518 147.354C93.8055 147.492 94.1912 147.528 94.5644 147.457C94.9376 147.386 95.2829 147.21 95.5605 146.951C95.5733 147.225 95.6864 147.484 95.8781 147.681C96.0699 147.877 96.327 147.996 96.6006 148.015C96.8743 148.034 97.1455 147.952 97.3627 147.785C97.58 147.617 97.7282 147.376 97.7791 147.106C97.4474 148.661 100.029 147.345 100.392 147.106C101.429 146.318 101.864 145.033 102.776 144.131C104.134 142.835 106.063 142.368 105.887 139.984C105.637 138.738 105.077 137.576 104.259 136.604C103.852 136.112 103.571 135.528 103.441 134.903C103.311 134.278 103.335 133.63 103.512 133.017C103.948 132.063 104.964 131.586 105.721 130.943C106.287 130.356 106.728 129.66 107.017 128.897C107.305 128.134 107.436 127.321 107.4 126.506C107.305 125.756 107.267 125.001 107.286 124.246V124.246Z" fill="#774828"/>
<path d="M91.0817 128.797C91.4859 128.83 91.8789 128.947 92.2358 129.139C92.5927 129.332 92.9057 129.597 93.1552 129.917C93.6331 130.544 94.0076 131.244 94.2645 131.99C94.543 132.604 94.6709 133.276 94.6377 133.95C94.4823 134.698 94.213 135.418 93.8394 136.085C93.6613 136.564 93.4464 137.029 93.1967 137.475C93.0703 137.7 92.8929 137.892 92.6786 138.036C92.4643 138.18 92.2191 138.272 91.9629 138.304C91.5947 138.299 91.2371 138.18 90.9398 137.962C90.6425 137.745 90.4203 137.44 90.3041 137.091C90.1002 136.41 89.9375 135.718 89.8168 135.017C89.5978 134.444 89.4346 133.85 89.3295 133.245C89.3498 132.616 89.4331 131.991 89.5784 131.378C89.6613 130.86 89.3814 129.844 89.5784 129.419C89.7753 128.994 90.5736 128.797 91.0817 128.797Z" fill="#404D9E"/>
<path d="M78.6405 118.118C78.1643 117.956 77.6539 117.923 77.1606 118.021C76.6673 118.119 76.2087 118.346 75.8309 118.678C75.2904 118.058 74.5877 117.602 73.8019 117.36C73.0161 117.119 72.1785 117.101 71.3832 117.309C71.1002 117.361 70.8357 117.486 70.616 117.672C70.3751 117.954 70.2427 118.312 70.2427 118.683C70.2427 119.054 70.3751 119.412 70.616 119.694C71.1067 120.252 71.7258 120.683 72.4199 120.948C71.9544 121.002 71.5056 121.154 71.1033 121.394C70.9007 121.515 70.7452 121.7 70.6623 121.921C70.5794 122.141 70.574 122.383 70.6471 122.607C70.7596 122.858 70.9582 123.06 71.2069 123.177C72.4096 123.789 73.8196 123.177 74.9808 123.945C74.2239 124.245 72.0675 129.398 72.6791 129.813C71.4981 130.53 70.4465 131.441 69.5689 132.508C69.1263 133.045 68.8229 133.682 68.6855 134.364C68.548 135.046 68.5808 135.751 68.7809 136.417C68.8959 136.74 69.0734 137.038 69.3034 137.293C69.5334 137.547 69.8114 137.754 70.1214 137.902C70.4314 138.049 70.7675 138.134 71.1103 138.151C71.4531 138.169 71.7959 138.118 72.1193 138.003V138.003C71.8505 138.323 71.6729 138.71 71.6054 139.122C71.5379 139.534 71.5829 139.957 71.7357 140.346C73.1049 140.616 74.5135 140.616 75.8827 140.346C75.6847 140.678 75.6238 141.073 75.7129 141.449C75.8019 141.824 76.034 142.15 76.3596 142.358C76.7021 142.537 77.1017 142.573 77.4708 142.458C77.84 142.344 78.1487 142.088 78.3295 141.746C77.9666 142.679 79.2211 143.581 80.1853 143.311C81.1116 142.904 81.8514 142.164 82.2588 141.238C82.2588 142.005 83.3578 142.337 84.0109 141.953C84.6195 141.489 85.0511 140.83 85.2343 140.087C85.6569 140.207 86.1089 140.168 86.5045 139.977C86.9001 139.786 87.2117 139.456 87.3804 139.05C87.6812 138.225 87.7738 137.338 87.65 136.469C88.0854 137.08 88.9978 136.396 89.3606 135.743C90.0209 134.539 90.5759 133.279 91.0194 131.98C91.289 131.349 91.3925 130.66 91.3201 129.979C91.0298 128.289 89.1325 128.403 88.5934 127.2C87.8988 125.645 89.4021 124.743 87.5567 123.115C86.177 121.883 84.5953 120.897 82.8809 120.202C82.5158 120.007 82.0957 119.941 81.6886 120.015C81.3672 120.109 81.0354 120.368 80.7348 120.233C80.4341 120.098 80.4341 119.87 80.3512 119.652C80.1931 119.289 79.9585 118.963 79.6633 118.699C79.3681 118.434 79.0192 118.236 78.6405 118.118Z" fill="#774828"/>
</g>
<defs>
<linearGradient id="paint0_linear" x1="97.6132" y1="192.495" x2="76.5462" y2="285.783" gradientUnits="userSpaceOnUse">
<stop offset="0.01"/>
<stop offset="0.08" stop-opacity="0.69"/>
<stop offset="0.21" stop-opacity="0.32"/>
<stop offset="1" stop-opacity="0"/>
</linearGradient>
<linearGradient id="paint1_linear" x1="1730.98" y1="3273.21" x2="2862.65" y2="7193.49" gradientUnits="userSpaceOnUse">
<stop offset="0.01"/>
<stop offset="0.08" stop-opacity="0.69"/>
<stop offset="0.21" stop-opacity="0.32"/>
<stop offset="1" stop-opacity="0"/>
</linearGradient>
<linearGradient id="paint2_linear" x1="171.217" y1="151.416" x2="53.4217" y2="167.322" gradientUnits="userSpaceOnUse">
<stop offset="0.01"/>
<stop offset="0.13" stop-opacity="0.69"/>
<stop offset="0.25" stop-opacity="0.32"/>
<stop offset="1" stop-opacity="0"/>
</linearGradient>
<linearGradient id="paint3_linear" x1="10806" y1="-3664.91" x2="18819.6" y2="-1983.87" gradientUnits="userSpaceOnUse">
<stop offset="0.01"/>
<stop offset="0.13" stop-opacity="0.69"/>
<stop offset="0.25" stop-opacity="0.32"/>
<stop offset="1" stop-opacity="0"/>
</linearGradient>
<linearGradient id="paint4_linear" x1="17866.6" y1="-5676.82" x2="8462.06" y2="1480.83" gradientUnits="userSpaceOnUse">
<stop offset="0.01"/>
<stop offset="0.08" stop-opacity="0.69"/>
<stop offset="0.21" stop-opacity="0.32"/>
<stop offset="1" stop-opacity="0"/>
</linearGradient>
<linearGradient id="paint5_linear" x1="22750.1" y1="-2948.93" x2="17587.3" y2="5339.07" gradientUnits="userSpaceOnUse">
<stop offset="0.01"/>
<stop offset="0.08" stop-opacity="0.69"/>
<stop offset="0.21" stop-opacity="0.32"/>
<stop offset="1" stop-opacity="0"/>
</linearGradient>
<linearGradient id="paint6_linear" x1="22811.8" y1="-3917.06" x2="15270" y2="5160.54" gradientUnits="userSpaceOnUse">
<stop offset="0.01"/>
<stop offset="0.08" stop-opacity="0.69"/>
<stop offset="0.21" stop-opacity="0.32"/>
<stop offset="1" stop-opacity="0"/>
</linearGradient>
<linearGradient id="paint7_linear" x1="11332.9" y1="-3666.57" x2="11730.9" y2="-1537.23" gradientUnits="userSpaceOnUse">
<stop offset="0.01"/>
<stop offset="0.08" stop-opacity="0.69"/>
<stop offset="0.21" stop-opacity="0.32"/>
<stop offset="1" stop-opacity="0"/>
</linearGradient>
<linearGradient id="paint8_linear" x1="14818" y1="-3219.58" x2="15653.1" y2="504.772" gradientUnits="userSpaceOnUse">
<stop offset="0.01"/>
<stop offset="0.08" stop-opacity="0.69"/>
<stop offset="0.21" stop-opacity="0.32"/>
<stop offset="1" stop-opacity="0"/>
</linearGradient>
<linearGradient id="paint9_linear" x1="13014" y1="-2974.11" x2="13305.1" y2="-895.993" gradientUnits="userSpaceOnUse">
<stop offset="0.01"/>
<stop offset="0.08" stop-opacity="0.69"/>
<stop offset="0.21" stop-opacity="0.32"/>
<stop offset="1" stop-opacity="0"/>
</linearGradient>
<linearGradient id="paint10_linear" x1="70589.5" y1="39248.8" x2="-4518.1" y2="9327.46" gradientUnits="userSpaceOnUse">
<stop offset="0.01"/>
<stop offset="0.08" stop-opacity="0.69"/>
<stop offset="0.21" stop-opacity="0.32"/>
<stop offset="1" stop-opacity="0"/>
</linearGradient>
<linearGradient id="paint11_linear" x1="26309.6" y1="9354.68" x2="28298.1" y2="-5935.52" gradientUnits="userSpaceOnUse">
<stop offset="0.01"/>
<stop offset="0.08" stop-opacity="0.69"/>
<stop offset="0.21" stop-opacity="0.32"/>
<stop offset="1" stop-opacity="0"/>
</linearGradient>
<linearGradient id="paint12_linear" x1="164.914" y1="150.849" x2="169.086" y2="152.022" gradientUnits="userSpaceOnUse">
<stop stop-color="#E3C5D5"/>
<stop offset="0.42" stop-color="#E8D3CF"/>
<stop offset="1" stop-color="#EFE8CB"/>
</linearGradient>
<linearGradient id="paint13_linear" x1="167.701" y1="153.516" x2="169.892" y2="142.104" gradientUnits="userSpaceOnUse">
<stop stop-color="#010101" stop-opacity="0"/>
<stop offset="0.95" stop-color="#010101"/>
</linearGradient>
<linearGradient id="paint14_linear" x1="-187.971" y1="6297.18" x2="-140.932" y2="6297.18" gradientUnits="userSpaceOnUse">
<stop stop-color="#E3C5D5"/>
<stop offset="0.42" stop-color="#E8D3CF"/>
<stop offset="1" stop-color="#EFE8CB"/>
</linearGradient>
<linearGradient id="paint15_linear" x1="115.006" y1="910.286" x2="113.848" y2="910.218" gradientUnits="userSpaceOnUse">
<stop stop-color="#010101" stop-opacity="0"/>
<stop offset="0.95" stop-color="#010101"/>
</linearGradient>
<linearGradient id="paint16_linear" x1="440.738" y1="5377.83" x2="468.498" y2="5377.83" gradientUnits="userSpaceOnUse">
<stop stop-color="#E3C5D5"/>
<stop offset="0.42" stop-color="#E8D3CF"/>
<stop offset="1" stop-color="#EFE8CB"/>
</linearGradient>
<linearGradient id="paint17_linear" x1="197.264" y1="2310.37" x2="222.985" y2="2265.06" gradientUnits="userSpaceOnUse">
<stop stop-color="#010101" stop-opacity="0"/>
<stop offset="0.95" stop-color="#010101"/>
</linearGradient>
<linearGradient id="paint18_linear" x1="-699.528" y1="4697.31" x2="-614.849" y2="4711" gradientUnits="userSpaceOnUse">
<stop stop-color="#E3C5D5"/>
<stop offset="0.42" stop-color="#E8D3CF"/>
<stop offset="1" stop-color="#EFE8CB"/>
</linearGradient>
<linearGradient id="paint19_linear" x1="745.369" y1="5742.63" x2="780.612" y2="5742.63" gradientUnits="userSpaceOnUse">
<stop stop-color="#E3C5D5"/>
<stop offset="0.42" stop-color="#E8D3CF"/>
<stop offset="1" stop-color="#EFE8CB"/>
</linearGradient>
<linearGradient id="paint20_linear" x1="467.848" y1="2422.81" x2="496.092" y2="2369.02" gradientUnits="userSpaceOnUse">
<stop stop-color="#010101" stop-opacity="0"/>
<stop offset="0.95" stop-color="#010101"/>
</linearGradient>
<linearGradient id="paint21_linear" x1="-293.189" y1="4979.53" x2="-186.423" y2="4996.78" gradientUnits="userSpaceOnUse">
<stop stop-color="#E3C5D5"/>
<stop offset="0.42" stop-color="#E8D3CF"/>
<stop offset="1" stop-color="#EFE8CB"/>
</linearGradient>
<linearGradient id="paint22_linear" x1="-17.0035" y1="1891.36" x2="-17.3596" y2="1863.68" gradientUnits="userSpaceOnUse">
<stop stop-color="#010101" stop-opacity="0"/>
<stop offset="0.95" stop-color="#010101"/>
</linearGradient>
<linearGradient id="paint23_linear" x1="163.224" y1="820.662" x2="163.924" y2="820.432" gradientUnits="userSpaceOnUse">
<stop stop-color="#010101" stop-opacity="0"/>
<stop offset="0.95" stop-color="#010101"/>
</linearGradient>
<linearGradient id="paint24_linear" x1="17.0555" y1="10878.4" x2="145.408" y2="10878.4" gradientUnits="userSpaceOnUse">
<stop stop-color="#E3C5D5"/>
<stop offset="0.42" stop-color="#E8D3CF"/>
<stop offset="1" stop-color="#EFE8CB"/>
</linearGradient>
<linearGradient id="paint25_linear" x1="-142.337" y1="4411.27" x2="-24.2953" y2="4201.59" gradientUnits="userSpaceOnUse">
<stop stop-color="#010101" stop-opacity="0"/>
<stop offset="0.95" stop-color="#010101"/>
</linearGradient>
<linearGradient id="paint26_linear" x1="-2722.31" y1="8562.05" x2="-2333.04" y2="8624.96" gradientUnits="userSpaceOnUse">
<stop stop-color="#E3C5D5"/>
<stop offset="0.42" stop-color="#E8D3CF"/>
<stop offset="1" stop-color="#EFE8CB"/>
</linearGradient>
<linearGradient id="paint27_linear" x1="2722.49" y1="-3301.11" x2="2686.6" y2="-3864.81" gradientUnits="userSpaceOnUse">
<stop stop-color="#E3C5D5"/>
<stop offset="0.42" stop-color="#E8D3CF"/>
<stop offset="1" stop-color="#EFE8CB"/>
</linearGradient>
<clipPath id="clip0">
<rect width="406" height="306" fill="white"/>
</clipPath>
</defs>
</svg>
