<svg width="406" height="306" viewBox="0 0 406 306" fill="none" xmlns="http://www.w3.org/2000/svg">
<g clip-path="url(#clip0)">
<path opacity="0.18" d="M2.35583 156.077C1.18258 192.988 29.8899 228.577 66.2141 235.225C89.7815 239.546 115.649 233.158 136.981 244.006C150.12 250.682 159.534 263.011 172.114 270.693C187.99 280.377 207.497 281.866 226.12 281.028C245.852 280.153 266.774 276.373 281.179 262.88C298.303 246.827 302.223 220.932 316.982 202.681C329.32 187.42 349.107 177.54 355.792 159.132C361.938 142.175 354.461 122.621 341.751 109.827C329.04 97.0331 311.954 89.6864 295.1 83.2149C278.246 76.7434 261.067 70.7095 246.559 59.7499C236.112 51.863 227.545 40.6892 215.608 34.9068C188.148 21.61 143.853 20.7254 117.511 36.3873C83.31 56.733 71.7451 104.194 36.3242 122.351C24.9176 128.199 10.5127 131.588 4.96305 143.153C3.04488 147.138 2.4955 151.654 2.35583 156.077" fill="#404D9E"/>
<path d="M403.924 182.522C403.925 186.285 403.185 190.011 401.745 193.488C400.306 196.965 398.195 200.124 395.534 202.785C392.874 205.445 389.715 207.556 386.238 208.995C382.761 210.435 379.035 211.175 375.272 211.174H30.7466C23.1477 211.174 15.8601 208.155 10.4869 202.782C5.11372 197.409 2.09509 190.121 2.09509 182.522" fill="white"/>
<path d="M2.06714 182.522C2.06714 174.923 5.08577 167.636 10.459 162.262C15.8322 156.889 23.1198 153.871 30.7186 153.871H375.244C382.843 153.871 390.131 156.889 395.504 162.262C400.877 167.636 403.896 174.923 403.896 182.522" fill="white"/>
<path d="M406 182.522C406 190.672 402.763 198.488 397 204.25C391.237 210.013 383.422 213.25 375.272 213.25H30.7466C22.597 213.25 14.7812 210.013 9.01862 204.25C3.25601 198.488 0.0186157 190.672 0.0186157 182.522" fill="#404D9E"/>
<path d="M0 182.522C0 174.373 3.2374 166.557 9.00001 160.794C14.7626 155.032 22.5784 151.794 30.7279 151.794H375.253C383.403 151.794 391.219 155.032 396.981 160.794C402.744 166.557 405.981 174.373 405.981 182.522" fill="#404D9E"/>
<path d="M401.856 182.522C401.849 175.475 399.045 168.718 394.061 163.736C389.077 158.753 382.32 155.952 375.272 155.947H30.7466C27.2142 155.881 23.7041 156.52 20.4214 157.826C17.1387 159.132 14.1493 161.079 11.6278 163.554C9.10638 166.028 7.10348 168.981 5.73621 172.239C4.36895 175.496 3.66473 178.994 3.66473 182.527C3.66473 186.06 4.36895 189.557 5.73621 192.815C7.10348 196.073 9.10638 199.025 11.6278 201.5C14.1493 203.974 17.1387 205.922 20.4214 207.228C23.7041 208.534 27.2142 209.173 30.7466 209.106H375.272C382.32 209.099 389.078 206.296 394.062 201.312C399.046 196.328 401.849 189.57 401.856 182.522" fill="white"/>
<path d="M329.86 156.422C329.515 156.848 329.079 157.192 328.584 157.428C324.86 159.588 321.005 161.767 316.824 162.903C313.674 163.68 310.448 164.111 307.205 164.188C300.119 164.511 293.019 164.396 285.947 163.843C272.548 162.791 259.307 160.174 245.907 159.187C232.648 158.256 219.314 158.899 206.036 158.07C204.332 157.958 202.311 157.67 201.51 156.208C201.266 155.685 201.146 155.113 201.16 154.536C201.175 153.959 201.323 153.393 201.594 152.884C203.382 149.159 208.317 148.572 212.433 148.461C241.242 147.678 270.08 146.906 298.88 147.874C303.937 148.051 309.039 148.284 313.937 149.522C317.575 150.423 321.262 151.11 324.981 151.58C326.917 151.776 331.797 153.61 329.86 156.422Z" fill="url(#paint0_linear)"/>
<path d="M294.215 160.389H30.1041C17.9727 160.389 8.13824 170.221 8.13824 182.35C8.13824 194.479 17.9727 204.311 30.1041 204.311H294.215C306.347 204.311 316.181 194.479 316.181 182.35C316.181 170.221 306.347 160.389 294.215 160.389Z" fill="#404D9E"/>
<path d="M171.024 164.877C169.288 164.877 167.576 165.282 166.024 166.059C165.088 166.723 164.31 167.586 163.746 168.585C163.183 169.585 162.848 170.697 162.765 171.842C162.616 174.129 162.654 176.424 162.877 178.705C163.128 185.381 161.378 191.945 159.655 198.398C158.24 203.669 156.545 209.349 152.122 212.542C151.753 212.885 151.302 213.126 150.813 213.242C150.323 213.358 149.812 213.345 149.329 213.204C148.397 212.785 148.118 211.667 147.941 210.69C145.073 194.469 150.93 177.997 150.93 161.525C150.93 158.284 150.93 154.504 153.5 152.521C155.092 151.301 157.225 151.152 159.227 151.049L189.796 149.55C194.582 149.317 200.784 148.619 205.309 150.602C210.98 153.107 202.87 156.739 199.89 158.229C191.007 162.707 180.857 164.104 171.024 164.877Z" fill="url(#paint1_linear)"/>
<path d="M205.71 142.892C205.142 146.775 204.034 150.835 201.11 153.452C198.903 155.435 195.933 156.32 193.037 156.999C182.785 159.397 172.19 159.964 161.741 158.675C160.26 158.498 158.435 158.415 157.588 159.606C157.244 160.246 157.076 160.966 157.104 161.692C156.306 177.494 154.703 193.245 152.299 208.883C151.889 211.472 151.433 214.153 149.934 216.332C146.489 221.258 139.365 221.342 133.369 220.932C132.639 220.972 131.921 220.736 131.357 220.271C130.277 219.098 131.627 217.347 132.754 216.23C137.503 211.574 139.579 204.73 140.017 198.082C140.455 191.433 139.44 184.785 138.881 178.136C137.767 164.855 138.506 151.482 141.079 138.404C141.628 135.611 142.317 132.724 144.226 130.629C145.045 129.698 164.348 128.525 165.428 127.994C164.432 127.063 151.237 119.437 150.269 118.44C145.734 126.411 133.387 144.904 130.147 153.489C120.216 154.235 110.236 154.007 100.35 152.809C99.242 150.016 112.455 144.857 115.388 145.09C120.91 129.447 128.424 111.261 138.285 97.8899C141.693 93.2341 145.734 88.5039 151.386 87.2375C158.789 85.5708 165.922 90.45 171.937 95.0685C188.912 108.03 209.341 118.347 205.71 142.892Z" fill="#3E3E54"/>
<path d="M250.079 99.9384C254.399 98.0109 259.037 95.8693 263.683 96.7911C267.203 97.4988 270.136 99.8732 272.855 102.22C276.108 105.007 279.305 107.856 282.446 110.768C285.239 113.366 288.21 116.42 288.331 120.247C288.433 123.478 292.446 152.427 289.262 152.642C282.269 153.107 236.819 152.967 201.147 153.433C197.497 153.48 198.409 154.364 195.607 152.046C187.757 145.528 187.906 120.88 197.599 115.656C204.639 111.866 214.881 111.876 222.591 109.771C232.043 107.201 240.805 103.048 250.079 99.9384Z" fill="white"/>
<path d="M236.652 104.864C230.515 111.168 223.811 119.381 221.846 127.947C221.157 130.955 225.571 139.075 268.125 130.983C269.363 130.741 276.021 122.37 275.462 120.135C274.903 117.9 259.977 119.074 257.705 118.72C256.653 118.552 255.582 118.766 254.539 118.608C253.496 118.45 246.643 121.159 246.634 120.098C246.634 118.776 253.934 114.669 255.191 114.25C261.402 112.202 279.662 110.693 264.502 100.283C256.01 94.5006 242.723 98.6721 236.652 104.864Z" fill="url(#paint2_linear)"/>
<path d="M268.348 140.769C268.058 142.304 268.196 143.889 268.749 145.351C269.565 146.816 270.809 147.999 272.315 148.74C282.111 154.504 294.206 154.131 305.557 153.582C307.969 153.461 321.992 153.666 324.18 152.651C328.24 150.788 332.113 144.838 327.793 135.518C325.595 130.666 313.686 113.785 312.298 108.598C308.741 107.406 304.514 108.086 303.676 111.745C302.838 115.405 314.598 134.698 312.298 137.51C307.428 143.46 297.028 128.199 287.008 116.755C281.291 110.246 269.214 133.665 268.348 140.769Z" fill="white"/>
<path d="M277.622 113.533C276.508 114.473 275.563 115.598 274.829 116.857C274.468 117.488 274.27 118.198 274.25 118.925C274.231 119.651 274.391 120.371 274.717 121.02C275.751 122.761 275.397 126.784 287.52 123.05C288.591 122.724 292.288 114.464 292.288 113.338C292.378 111.322 291.744 109.34 290.5 107.751C285.947 102.508 280.695 110.582 277.622 113.533Z" fill="url(#paint3_linear)"/>
<path d="M274.456 121.858L278.181 119.576C278.26 119.522 278.348 119.484 278.442 119.465C278.623 119.451 278.804 119.5 278.954 119.604C280.477 120.358 282.184 120.66 283.874 120.475C285.563 120.291 287.164 119.627 288.489 118.562C286.999 118.394 285.779 117.37 284.578 116.476C283.18 115.43 281.701 114.496 280.155 113.682C279.803 113.464 279.404 113.334 278.991 113.301C278.664 113.337 278.347 113.437 278.059 113.597C277.772 113.757 277.519 113.973 277.315 114.232C275.882 115.652 274.776 117.368 274.075 119.26" fill="url(#paint4_linear)"/>
<path d="M236.419 99.5101C230.283 105.805 223.578 114.017 221.614 122.584C220.925 125.592 218.113 136.551 260.675 128.478C261.914 128.245 261.662 126.169 261.849 124.921C262.34 122.667 262.381 120.338 261.97 118.068C261.411 115.833 259.744 113.71 257.472 113.356C256.42 113.189 255.349 113.403 254.306 113.245C253.263 113.086 246.447 115.768 246.447 114.734C246.447 113.412 253.748 109.306 255.005 108.896C261.216 106.838 279.475 105.33 264.316 94.9289C255.759 89.1371 242.453 93.3087 236.419 99.5101Z" fill="white"/>
<path d="M236.419 99.5101C230.283 105.805 223.578 114.017 221.614 122.584C220.925 125.592 218.113 136.551 260.675 128.478C261.914 128.245 261.662 126.169 261.849 124.921C262.34 122.667 262.381 120.338 261.97 118.068C261.411 115.833 259.744 113.71 257.472 113.356C256.42 113.189 255.349 113.403 254.306 113.245C253.263 113.086 246.447 115.768 246.447 114.734C246.447 113.412 253.748 109.306 255.005 108.896C261.216 106.838 279.475 105.33 264.316 94.9289C255.759 89.1371 242.453 93.3087 236.419 99.5101Z" fill="white"/>
<path d="M307.773 93.29C309.254 93.3738 310.175 95.0313 310.241 96.5118C310.306 97.9923 309.812 99.4636 309.831 100.953C309.913 102.198 310.163 103.426 310.576 104.604C311.228 106.848 311.786 109.827 309.598 111.447C308.946 111.868 308.196 112.113 307.421 112.159C306.646 112.205 305.872 112.049 305.175 111.708C300.612 109.846 301.106 105.693 303.313 102.173C303.834 101.41 307.773 93.29 307.773 93.29Z" fill="url(#paint5_linear)"/>
<path d="M276.244 105.311C276.03 108.896 276.44 112.649 278.479 115.684C280.518 118.72 284.541 120.787 288.237 119.874C290.649 119.269 292.549 117.574 294.253 115.87C299.989 110.135 304.998 103.235 305.818 95.3852C306.186 93.0209 305.791 90.6008 304.691 88.4761C303.406 86.2785 301.106 84.7514 298.741 83.5968C296.236 82.2588 293.474 81.4715 290.64 81.2876C288.12 81.205 285.639 81.9328 283.563 83.364C281.701 84.6676 281.245 86.6137 280.453 88.6623C278.349 94.0536 276.561 99.594 276.244 105.311Z" fill="url(#paint6_linear)"/>
<path d="M267.687 107.676L274.484 97.6944C274.665 97.428 274.899 97.2019 275.172 97.0307C275.445 96.8594 275.75 96.7465 276.069 96.6993C276.387 96.652 276.712 96.6714 277.023 96.7561C277.334 96.8408 277.623 96.9891 277.874 97.1916L284.392 102.481C284.844 102.847 285.143 103.368 285.233 103.942C285.322 104.517 285.195 105.104 284.876 105.591L271.84 125.266C271.654 125.544 271.411 125.779 271.127 125.955C270.843 126.131 270.524 126.245 270.193 126.288C269.861 126.331 269.524 126.303 269.205 126.205C268.885 126.108 268.59 125.943 268.339 125.722L264.614 122.407C264.284 122.115 264.043 121.735 263.921 121.311C263.799 120.887 263.8 120.437 263.925 120.014L267.37 108.319C267.443 108.09 267.55 107.873 267.687 107.676Z" fill="#3E3E54"/>
<path d="M266.346 107.676L273.144 97.6944C273.324 97.428 273.559 97.2019 273.831 97.0307C274.104 96.8594 274.409 96.7465 274.728 96.6993C275.046 96.652 275.371 96.6714 275.682 96.7561C275.993 96.8408 276.282 96.9891 276.533 97.1916L283.051 102.481C283.503 102.847 283.802 103.368 283.892 103.942C283.981 104.517 283.854 105.104 283.535 105.591L270.499 125.266C270.313 125.544 270.07 125.779 269.786 125.955C269.502 126.131 269.183 126.245 268.852 126.288C268.52 126.331 268.184 126.303 267.864 126.205C267.544 126.108 267.249 125.943 266.998 125.722L263.273 122.407C262.943 122.115 262.702 121.735 262.58 121.311C262.458 120.887 262.46 120.437 262.584 120.014L266.002 108.319C266.083 108.088 266.199 107.872 266.346 107.676Z" fill="#3E3E54"/>
<path d="M259.055 113.561C260.427 111.299 261.935 109.122 263.571 107.043C264.073 106.397 264.709 105.867 265.434 105.488C265.795 105.301 266.199 105.208 266.606 105.22C267.013 105.231 267.411 105.346 267.761 105.553C267.848 105.606 267.916 105.684 267.957 105.777C267.975 105.889 267.955 106.003 267.901 106.103C267.629 106.78 267.249 107.409 266.774 107.965C266.447 108.291 266.154 108.65 265.899 109.036C265.775 109.231 265.702 109.454 265.686 109.685C265.67 109.916 265.711 110.147 265.806 110.358C265.949 110.574 266.133 110.761 266.346 110.907L268.786 112.835C269.456 113.402 270.183 113.898 270.955 114.315C271.886 114.8 273.004 115.088 273.628 115.945C274.633 117.323 273.749 118.738 273.469 120.163C273.406 120.819 273.176 121.449 272.801 121.991C272.426 122.534 271.919 122.972 271.328 123.264C269.026 124.633 266.506 125.596 263.879 126.113C261.951 126.495 259.819 126.597 258.171 125.536C257.545 125.149 257.006 124.637 256.587 124.034C256.167 123.43 255.876 122.746 255.731 122.025C255.736 121.414 255.808 120.805 255.945 120.21C255.852 119.434 255.919 118.649 256.141 117.9C256.561 117.06 257.084 116.276 257.696 115.563C258.161 114.883 258.608 114.232 259.055 113.561Z" fill="url(#paint7_linear)"/>
<path d="M278.563 82.4421C277.038 84.3392 276.328 86.7637 276.589 89.1836C276.6 89.4049 276.667 89.6197 276.784 89.8075C277.021 90.0344 277.332 90.1669 277.66 90.1799C280.939 90.6638 284.253 90.8694 287.567 90.7945C287.157 91.8094 287.93 92.9361 288.88 93.4762C289.83 94.0163 290.938 94.1746 291.906 94.6681C292.552 94.9983 293.12 95.4622 293.573 96.0289C294.026 96.5956 294.353 97.2522 294.532 97.955C294.728 98.7465 294.737 99.5659 294.932 100.348C295.001 100.746 295.163 101.121 295.404 101.445C295.645 101.768 295.959 102.031 296.32 102.21C296.758 102.369 297.298 102.397 297.53 102.797C297.636 103.037 297.669 103.302 297.623 103.561C297.427 105.442 296.992 107.291 296.329 109.064C298.294 107.956 297.81 104.408 299.914 103.542C300.437 103.973 300.812 104.556 300.989 105.21C301.166 105.864 301.135 106.556 300.901 107.192C300.4 108.455 299.551 109.549 298.452 110.349C301.441 107.788 303.248 104.147 304.97 100.609C305.836 98.8396 306.693 96.7166 305.743 95.0219C305.443 94.6109 305.195 94.1635 305.008 93.6904C304.93 93.2575 304.946 92.813 305.054 92.3868C305.385 90.6631 305.302 88.8856 304.812 87.2003C304.371 85.9774 303.698 84.8516 302.829 83.8854C301.347 82.2195 299.538 80.8768 297.515 79.9412C295.492 79.0055 293.297 78.4971 291.068 78.4474C288.861 78.3823 286.831 79.0713 284.69 79.2762C283.507 79.3609 282.354 79.6853 281.301 80.2295C280.248 80.7738 279.316 81.5265 278.563 82.4421Z" fill="#3E3E54"/>
<path d="M193.093 149.401C193.093 149.401 274.848 143.181 280.444 143.814C286.04 144.447 299.942 153.601 299.942 153.601L197.097 154.374C195.661 152.8 194.324 151.139 193.093 149.401V149.401Z" fill="url(#paint8_linear)"/>
<path d="M169.6 189.385C169.684 188.668 169.722 187.946 169.711 187.224V179.3C169.719 178.585 169.681 177.87 169.6 177.159C170.289 177.159 170.81 177.159 171.751 177.159H174.954C177.859 177.159 179.451 178.546 179.451 181.097C179.451 183.649 177.784 185.26 174.944 185.26H172.626V187.122C172.622 187.859 172.663 188.596 172.747 189.329L169.6 189.385ZM174.814 182.811C175.03 182.837 175.249 182.814 175.455 182.744C175.661 182.675 175.848 182.56 176.004 182.408C176.159 182.256 176.279 182.071 176.353 181.867C176.428 181.663 176.455 181.444 176.434 181.228C176.455 181.014 176.427 180.797 176.351 180.596C176.276 180.394 176.156 180.212 175.999 180.064C175.843 179.916 175.655 179.805 175.45 179.741C175.244 179.676 175.027 179.659 174.814 179.691H172.626V182.811H174.814Z" fill="white"/>
<path d="M188.167 189.385C187.986 188.607 187.747 187.844 187.45 187.103C186.975 185.828 186.798 185.492 186.435 185.167C186.119 184.891 185.708 184.75 185.29 184.776H183.8V187.178C183.784 187.915 183.824 188.653 183.921 189.385H180.773C180.864 188.656 180.901 187.921 180.885 187.187V179.31C180.895 178.591 180.858 177.872 180.773 177.159C181.416 177.159 181.956 177.159 182.952 177.159H186.761C189.135 177.159 190.485 178.388 190.485 180.492C190.573 181.203 190.389 181.92 189.972 182.501C189.554 183.083 188.933 183.486 188.232 183.63C188.977 183.863 189.321 184.198 189.787 185.241C190.001 185.707 190.206 186.172 190.867 187.792C191.035 188.202 191.202 188.565 191.575 189.338L188.167 189.385ZM186.081 182.271C186.265 182.287 186.451 182.264 186.625 182.202C186.8 182.14 186.959 182.041 187.091 181.912C187.224 181.783 187.327 181.626 187.394 181.454C187.461 181.281 187.489 181.096 187.478 180.911C187.478 180.092 187.012 179.663 186.1 179.663H183.8V182.271H186.081Z" fill="white"/>
<path d="M204.257 183.239C204.257 187.103 201.901 189.664 198.335 189.664C194.769 189.664 192.441 187.159 192.441 183.286C192.441 179.412 194.75 176.945 198.354 176.945C201.957 176.945 204.257 179.403 204.257 183.239ZM201.212 183.239C201.212 180.865 200.123 179.431 198.354 179.431C196.584 179.431 195.467 180.883 195.467 183.239C195.467 185.595 196.566 187.103 198.354 187.103C200.141 187.103 201.212 185.669 201.212 183.267V183.239Z" fill="white"/>
<path d="M213.541 181.451C213.488 180.883 213.217 180.358 212.785 179.986C212.352 179.614 211.792 179.425 211.222 179.459C209.434 179.459 208.429 180.865 208.429 183.286C208.429 185.707 209.509 187.113 211.324 187.113C211.695 187.122 212.063 187.043 212.397 186.881C212.731 186.719 213.021 186.479 213.243 186.182C213.504 185.812 213.655 185.376 213.68 184.925L216.725 185.381C216.569 186.367 216.151 187.293 215.515 188.062C214.985 188.608 214.344 189.032 213.635 189.307C212.927 189.582 212.167 189.701 211.408 189.655C210.616 189.689 209.824 189.564 209.08 189.287C208.337 189.011 207.656 188.588 207.078 188.044C205.914 186.735 205.303 185.026 205.374 183.276C205.335 182.395 205.473 181.514 205.778 180.686C206.083 179.857 206.551 179.098 207.153 178.453C208.302 177.419 209.808 176.875 211.352 176.935C212.174 176.882 212.996 177.029 213.749 177.363C214.501 177.697 215.161 178.208 215.673 178.853C216.142 179.435 216.462 180.122 216.604 180.855L213.541 181.451Z" fill="white"/>
<path d="M227.266 189.487C226.465 189.4 225.659 189.366 224.854 189.385H220.245C219.128 189.385 218.718 189.385 218.085 189.431C218.185 188.722 218.225 188.005 218.206 187.289V179.3C218.218 178.584 218.177 177.869 218.085 177.159C218.69 177.159 219.1 177.159 220.245 177.159H224.901C225.631 177.169 226.362 177.135 227.089 177.056V179.794C226.362 179.715 225.631 179.681 224.901 179.691H221.092V181.88H224.258C224.992 181.889 225.726 181.855 226.456 181.777V184.487C225.726 184.407 224.992 184.373 224.258 184.384H221.092V186.843H224.873C225.669 186.857 226.465 186.823 227.256 186.74L227.266 189.487Z" fill="white"/>
<path d="M231.437 185.418C231.456 185.808 231.589 186.183 231.819 186.498C232.034 186.735 232.3 186.92 232.597 187.039C232.894 187.158 233.213 187.209 233.532 187.187C234.659 187.187 235.339 186.694 235.339 185.874C235.346 185.663 235.292 185.453 235.183 185.271C235.074 185.09 234.915 184.943 234.724 184.85C234.013 184.578 233.277 184.375 232.527 184.245C231.687 184.144 230.882 183.855 230.171 183.398C229.72 183.087 229.354 182.669 229.105 182.181C228.856 181.693 228.733 181.151 228.746 180.604C228.746 178.351 230.562 176.879 233.449 176.879C234.212 176.811 234.98 176.928 235.688 177.22C236.396 177.512 237.024 177.97 237.518 178.556C237.894 179.075 238.145 179.674 238.253 180.306L235.143 180.651C234.966 179.719 234.445 179.3 233.328 179.3C232.396 179.3 231.782 179.785 231.782 180.455C231.787 180.662 231.855 180.863 231.979 181.03C232.102 181.197 232.274 181.321 232.471 181.386C233.123 181.627 233.801 181.789 234.491 181.87C235.323 182.005 236.123 182.285 236.857 182.699C237.369 183.005 237.787 183.445 238.066 183.972C238.345 184.499 238.474 185.093 238.44 185.688C238.46 186.183 238.379 186.676 238.203 187.139C238.027 187.601 237.759 188.023 237.415 188.379C236.344 189.286 234.959 189.734 233.56 189.627C232.432 189.657 231.313 189.411 230.301 188.91C229.565 188.502 229.002 187.84 228.718 187.048C228.551 186.611 228.441 186.154 228.392 185.688L231.437 185.418Z" fill="white"/>
<path d="M242.63 185.418C242.64 185.809 242.774 186.187 243.012 186.498C243.225 186.736 243.491 186.922 243.788 187.042C244.085 187.161 244.406 187.211 244.725 187.187C245.852 187.187 246.522 186.694 246.522 185.874C246.529 185.663 246.475 185.453 246.366 185.271C246.257 185.09 246.098 184.943 245.907 184.85C245.197 184.576 244.461 184.373 243.71 184.245C242.871 184.144 242.065 183.855 241.354 183.398C240.903 183.087 240.537 182.669 240.288 182.181C240.04 181.693 239.916 181.151 239.929 180.604C239.929 178.351 241.745 176.879 244.632 176.879C245.395 176.811 246.163 176.928 246.871 177.22C247.58 177.512 248.207 177.97 248.701 178.556C249.081 179.073 249.333 179.673 249.436 180.306L246.336 180.651C246.159 179.719 245.628 179.3 244.52 179.3C243.589 179.3 242.965 179.785 242.965 180.455C242.97 180.662 243.039 180.863 243.162 181.03C243.285 181.197 243.457 181.321 243.654 181.386C244.306 181.627 244.984 181.789 245.675 181.87C246.508 182.007 247.312 182.287 248.049 182.699C248.559 183.007 248.975 183.448 249.252 183.975C249.529 184.501 249.657 185.094 249.623 185.688C249.645 186.183 249.566 186.677 249.389 187.14C249.213 187.603 248.944 188.024 248.598 188.379C247.531 189.286 246.149 189.735 244.753 189.627C243.621 189.659 242.499 189.412 241.484 188.91C240.748 188.502 240.185 187.84 239.901 187.048C239.738 186.61 239.631 186.153 239.585 185.688L242.63 185.418Z" fill="white"/>
<path d="M265.555 179.58C264.735 180.448 264.059 181.441 263.553 182.522C262.411 184.648 261.708 186.982 261.486 189.385H258.105C258.415 187.429 259.005 185.529 259.856 183.742C260.524 182.355 261.329 181.039 262.258 179.812H258.087C257.35 179.799 256.613 179.833 255.88 179.915V177.121C256.666 177.202 257.455 177.236 258.245 177.224H263.208C264.558 177.224 264.968 177.224 265.564 177.168L265.555 179.58Z" fill="white"/>
<path d="M270.434 181.321C270.434 181.395 270.434 181.535 270.387 181.787C271.079 181.297 271.915 181.051 272.762 181.088C273.341 181.064 273.918 181.158 274.459 181.364C275.001 181.571 275.494 181.886 275.909 182.289C276.28 182.677 276.569 183.136 276.758 183.639C276.946 184.141 277.032 184.677 277.008 185.213C277.008 188.007 275.146 189.692 272.054 189.692C271.27 189.749 270.483 189.616 269.761 189.303C269.04 188.99 268.405 188.507 267.91 187.895C267.563 187.401 267.313 186.844 267.175 186.256L270.117 185.8C270.197 186.236 270.439 186.626 270.796 186.89C271.152 187.155 271.595 187.274 272.035 187.224C272.304 187.253 272.576 187.223 272.831 187.137C273.087 187.05 273.321 186.909 273.517 186.723C273.712 186.537 273.865 186.31 273.965 186.059C274.065 185.808 274.108 185.539 274.093 185.269C274.061 184.824 273.886 184.401 273.594 184.064C273.302 183.727 272.909 183.493 272.473 183.398C272.037 183.302 271.582 183.351 271.176 183.535C270.77 183.72 270.435 184.031 270.22 184.422L267.501 184.161C267.557 183.723 267.603 183.37 267.65 182.96L268.041 178.388C268.041 178.081 268.087 177.727 268.097 177.177C268.711 177.177 268.86 177.177 269.568 177.177H273.944C274.75 177.198 275.555 177.164 276.356 177.075V179.636C275.564 179.561 274.768 179.526 273.972 179.533H270.574L270.434 181.321Z" fill="white"/>
<path d="M283.973 182.969C283.664 182.62 283.428 182.213 283.278 181.772C283.128 181.331 283.067 180.864 283.098 180.399C283.039 179.45 283.357 178.517 283.982 177.801C284.602 177.238 285.417 176.94 286.254 176.972C286.669 176.953 287.083 177.017 287.473 177.159C287.863 177.301 288.221 177.52 288.526 177.801C289.099 178.544 289.41 179.456 289.41 180.394C289.41 181.333 289.099 182.245 288.526 182.988C287.897 183.535 287.092 183.836 286.259 183.836C285.425 183.836 284.62 183.535 283.991 182.988L283.973 182.969ZM294.215 176.823L294.988 177.41L285.444 189.794L284.68 189.208L294.215 176.823ZM285.09 180.38C285.09 181.61 285.472 182.243 286.217 182.243C286.962 182.243 287.334 181.619 287.334 180.38C287.334 179.142 286.952 178.518 286.217 178.518C285.481 178.518 285.127 179.179 285.127 180.38H285.09ZM291.18 188.761C290.87 188.407 290.633 187.995 290.483 187.549C290.332 187.103 290.272 186.632 290.305 186.163C290.281 185.694 290.351 185.225 290.511 184.784C290.671 184.343 290.917 183.938 291.236 183.593C291.542 183.31 291.902 183.091 292.293 182.947C292.685 182.803 293.1 182.738 293.517 182.755C295.51 182.755 296.664 184.012 296.664 186.163C296.692 186.638 296.624 187.113 296.464 187.561C296.304 188.009 296.056 188.42 295.733 188.77C295.431 189.054 295.075 189.274 294.686 189.418C294.298 189.561 293.884 189.626 293.471 189.608C292.642 189.637 291.834 189.343 291.217 188.789L291.18 188.761ZM292.344 186.135C292.344 187.401 292.716 188.044 293.471 188.044C294.225 188.044 294.597 187.411 294.597 186.135C294.597 184.859 294.215 184.338 293.48 184.338C292.744 184.338 292.381 184.98 292.381 186.163L292.344 186.135Z" fill="white"/>
</g>
<defs>
<linearGradient id="paint0_linear" x1="242.63" y1="192.085" x2="331.843" y2="47.2353" gradientUnits="userSpaceOnUse">
<stop stop-opacity="0"/>
<stop offset="0.99"/>
</linearGradient>
<linearGradient id="paint1_linear" x1="14899" y1="16116.2" x2="8555.63" y2="11544.1" gradientUnits="userSpaceOnUse">
<stop stop-opacity="0"/>
<stop offset="0.99"/>
</linearGradient>
<linearGradient id="paint2_linear" x1="16626.1" y1="4253.93" x2="13179.6" y2="11251.4" gradientUnits="userSpaceOnUse">
<stop stop-opacity="0"/>
<stop offset="0.99"/>
</linearGradient>
<linearGradient id="paint3_linear" x1="287.26" y1="112.22" x2="277.008" y2="125.275" gradientUnits="userSpaceOnUse">
<stop stop-color="#E5C5D5"/>
<stop offset="0.42" stop-color="#EAD4D1"/>
<stop offset="1" stop-color="#F0E9CB"/>
</linearGradient>
<linearGradient id="paint4_linear" x1="4712.35" y1="1481.35" x2="4773.77" y2="1194.28" gradientUnits="userSpaceOnUse">
<stop stop-opacity="0"/>
<stop offset="0.99"/>
</linearGradient>
<linearGradient id="paint5_linear" x1="3470.65" y1="2547.07" x2="3567.05" y2="2547.07" gradientUnits="userSpaceOnUse">
<stop stop-color="#E5C5D5"/>
<stop offset="0.42" stop-color="#EAD4D1"/>
<stop offset="1" stop-color="#F0E9CB"/>
</linearGradient>
<linearGradient id="paint6_linear" x1="9530.44" y1="4986.17" x2="10034.5" y2="5046.78" gradientUnits="userSpaceOnUse">
<stop stop-color="#E5C5D5"/>
<stop offset="0.42" stop-color="#EAD4D1"/>
<stop offset="1" stop-color="#F0E9CB"/>
</linearGradient>
<linearGradient id="paint7_linear" x1="5488.3" y1="3152.12" x2="5851.2" y2="3152.12" gradientUnits="userSpaceOnUse">
<stop stop-color="#E5C5D5"/>
<stop offset="0.42" stop-color="#EAD4D1"/>
<stop offset="1" stop-color="#F0E9CB"/>
</linearGradient>
<linearGradient id="paint8_linear" x1="29537.2" y1="1829.67" x2="29539" y2="2796.2" gradientUnits="userSpaceOnUse">
<stop stop-opacity="0"/>
<stop offset="0.99"/>
</linearGradient>
<clipPath id="clip0">
<rect width="406" height="306" fill="white"/>
</clipPath>
</defs>
</svg>
