<svg width="406" height="306" viewBox="0 0 406 306" fill="none" xmlns="http://www.w3.org/2000/svg">
<g clip-path="url(#clip0)">
<path opacity="0.18" d="M101.454 33.2534C88.9572 48.645 81.175 67.7817 70.4049 84.5943C62.4368 97.1572 52.7158 108.405 44.6149 120.915C28.4663 145.829 18.7187 176.2 20.4983 206.545C22.2778 236.89 36.4344 266.85 60.0331 283.464C74.5217 293.676 91.6663 298.523 108.718 301.671C166.128 312.295 227.92 304.114 276.977 270.237C285.396 264.42 293.457 257.86 302.594 253.451C326.06 242.11 356.498 244.739 373.51 223.916C383.749 211.379 386.006 193.451 385.661 176.732C385.249 156.652 381.318 135.563 369.088 120.504C353.151 100.756 327.122 95.4707 305.582 83.3194C284.586 71.5399 267.654 53.0142 249.62 36.4672C206.234 -3.35982 143.817 -18.9241 101.454 33.2534Z" fill="#404D9E"/>
<path d="M309.606 198.073C309.609 199.302 309.359 200.518 308.872 201.646C308.386 202.775 307.673 203.791 306.777 204.633C305.244 206.09 303.265 206.988 301.16 207.183C300.767 207.216 300.371 207.216 299.978 207.183L234.016 205.855C231.487 205.828 229.068 204.814 227.275 203.031C225.482 201.248 224.455 198.835 224.414 196.307C224.409 195.078 224.655 193.861 225.137 192.731C225.619 191.6 226.327 190.58 227.216 189.733C229.048 187.992 231.489 187.038 234.016 187.077H236.26C235.796 185.448 235.559 183.764 235.556 182.07C235.552 179.65 236.043 177.254 236.997 175.03C237.952 172.806 239.35 170.8 241.107 169.135C242.658 167.653 244.455 166.453 246.419 165.59C248.964 164.481 251.719 163.937 254.494 163.996L260.098 164.116C263.584 164.187 266.987 165.193 269.952 167.029C272.916 168.865 275.333 171.464 276.95 174.554C278.566 173.785 280.34 173.408 282.129 173.451H283.577C286.579 173.482 289.451 174.683 291.581 176.799C293.712 178.914 294.933 181.777 294.985 184.779V185.324C294.984 186.359 294.831 187.388 294.533 188.378L299.991 188.485C302.526 188.519 304.948 189.539 306.743 191.329C308.538 193.119 309.565 195.538 309.606 198.073V198.073Z" fill="white"/>
<path d="M301.16 207.183C300.767 207.216 300.371 207.216 299.978 207.183L234.016 205.855C231.487 205.828 229.068 204.815 227.275 203.031C225.482 201.248 224.455 198.835 224.414 196.307C224.409 195.078 224.655 193.861 225.137 192.731C225.619 191.6 226.327 190.58 227.216 189.733C224.56 206.028 241.625 203.69 241.625 203.69H284.48L301.16 207.183Z" fill="url(#paint0_linear)"/>
<path d="M241.094 189.042L236.3 187.223C235.836 185.595 235.599 183.91 235.596 182.216C235.592 179.796 236.083 177.401 237.037 175.176C237.992 172.952 239.39 170.946 241.147 169.282C242.697 167.799 244.495 166.599 246.459 165.736C233.192 177.104 241.094 189.042 241.094 189.042Z" fill="url(#paint1_linear)"/>
<path opacity="0.23" d="M161.068 290.794C207.671 290.794 245.45 256.672 245.45 214.58C245.45 172.488 207.671 138.365 161.068 138.365C114.465 138.365 76.6864 172.488 76.6864 214.58C76.6864 256.672 114.465 290.794 161.068 290.794Z" fill="#404D9E"/>
<path d="M265.835 201.951C265.857 219.645 260.098 236.861 249.434 250.981V250.981L249.261 251.22C237.576 266.621 220.796 277.366 201.919 281.538C183.042 285.709 163.297 283.034 146.21 273.99C129.123 264.947 115.808 250.124 108.641 232.169C101.475 214.214 100.924 194.296 107.088 175.972C113.252 157.649 125.729 142.113 142.29 132.14C158.851 122.166 178.418 118.405 197.497 121.527C216.576 124.649 233.923 134.452 246.441 149.184C258.96 163.916 265.833 182.618 265.835 201.951V201.951Z" fill="#404D9E"/>
<path d="M158.107 161.858C153.631 163.704 148.691 164.142 144.096 165.656C139.501 167.17 134.893 170.224 133.711 174.952C133.1 177.329 133.419 179.972 132.25 182.123C130.696 185.018 127.058 186.107 124.853 188.498C120.657 193.119 123.419 201.047 128.545 204.62C133.671 208.192 140.218 208.737 146.354 209.786C148.033 209.92 149.633 210.553 150.949 211.605C154.521 215.018 150.564 221.193 152.077 225.895C152.927 228.551 155.437 230.37 156.579 232.92C158.771 237.78 155.451 243.145 153.259 248.006C149.307 256.873 148.95 266.928 152.263 276.053C152.111 276.274 151.942 276.482 151.759 276.678C143.019 272.843 135.015 267.513 128.107 260.927C121.374 251.485 116.049 241.193 116.606 229.879C116.912 223.743 118.957 217.82 119.342 211.711C119.979 201.791 116.394 191.021 121.254 182.362C123.91 177.568 129.09 172.309 126.195 167.661C121.082 168.405 115.57 168.525 110.883 166.745C116.635 154.761 125.23 144.366 135.919 136.464C146.608 128.562 159.067 123.393 172.21 121.407C177.257 135.829 173.246 155.483 158.107 161.858Z" fill="url(#paint2_linear)"/>
<path d="M265.835 201.95C265.84 207.106 265.356 212.251 264.387 217.315C262.222 219.076 260.193 220.998 258.318 223.066C251.877 230.609 250.483 241.073 249.434 250.954C249.434 251.166 249.434 251.379 249.367 251.578C249.367 251.445 249.367 251.326 249.261 251.193C248.749 248.655 247.643 246.275 246.034 244.247C244.201 242.269 240.948 241.286 238.717 242.84C237.654 240.184 236.588 237.55 235.516 234.938C228.876 234.938 222.024 234.938 215.782 232.587C209.54 230.237 204.374 225.735 199.381 221.339C200.037 213.722 199.894 206.058 198.956 198.471C218.353 196.366 236.294 187.189 249.354 172.694C237.674 172.112 226.094 175.1 216.154 181.26C214.029 182.588 211.878 184.075 209.394 184.288C207.821 184.327 206.251 184.112 204.746 183.65L188.691 179.573C186.685 169.241 193.843 158.87 203.046 153.757C209.952 149.932 218.332 150.676 224.959 147.329C229.5 145.045 230.828 141.048 234.799 138.113H234.879C244.525 145.725 252.321 155.423 257.682 166.479C263.044 177.536 265.831 189.663 265.835 201.95Z" fill="url(#paint3_linear)"/>
<path d="M209.554 185.443C209.076 187.01 208.624 188.843 209.554 190.158C210.011 190.72 210.612 191.147 211.293 191.393C212.087 191.771 212.969 191.923 213.843 191.832C214.717 191.741 215.549 191.409 216.247 190.875C216.976 190.077 217.492 189.109 217.748 188.059C218.989 184.249 219.878 180.333 220.404 176.36C220.504 175.995 220.504 175.609 220.404 175.244C220.196 174.861 219.863 174.561 219.461 174.394C217.349 173.265 214.042 172.362 212.821 174.859C211.32 178.073 210.616 182.044 209.554 185.443Z" fill="#FBC4D6"/>
<path d="M215.941 187.263C216.387 187.202 216.842 187.242 217.269 187.382C217.561 187.544 217.814 187.766 218.013 188.033L222.595 193.172C223.485 194.168 224.414 195.536 223.79 196.718C223.57 197.047 223.279 197.323 222.939 197.525C222.599 197.727 222.218 197.851 221.825 197.887C219.605 198.09 217.375 197.652 215.397 196.625C213.989 196.014 212.595 195.297 211.227 194.633C210.211 194.172 209.322 193.47 208.637 192.588C207.588 190.994 207.309 187.17 209.142 185.948C210.085 185.35 210.908 185.775 211.798 186.187C213.07 186.88 214.493 187.249 215.941 187.263V187.263Z" fill="#404D9E"/>
<path d="M234.945 202.947C234.981 203.242 234.949 203.542 234.852 203.823C234.694 204.096 234.465 204.321 234.188 204.474C233.317 205.074 232.296 205.418 231.24 205.47C230.713 205.49 230.188 205.387 229.706 205.171C229.225 204.954 228.8 204.629 228.465 204.221C227.976 203.448 227.68 202.57 227.601 201.658C227.212 199.699 227.021 197.706 227.03 195.709C227.007 195.592 227.01 195.471 227.038 195.354C227.066 195.238 227.12 195.129 227.194 195.036C227.269 194.942 227.363 194.866 227.47 194.813C227.577 194.759 227.694 194.73 227.814 194.726C229.461 194.381 232.741 193.518 233.577 195.536C234.43 197.916 234.892 200.419 234.945 202.947V202.947Z" fill="#FBC4D6"/>
<path d="M241.917 202.747C243.332 202.824 244.731 203.092 246.074 203.544C246.742 203.775 247.355 204.141 247.876 204.618C248.396 205.095 248.814 205.675 249.102 206.32C249.37 206.951 249.403 207.658 249.195 208.312C248.736 209.282 247.931 210.044 246.937 210.45C242.217 212.958 236.892 214.103 231.559 213.756C230.19 213.811 228.853 213.336 227.827 212.428C227.086 211.332 226.74 210.016 226.844 208.697L226.658 202.455C227.86 202.509 229.033 202.84 230.085 203.425C232.05 204.089 232.82 202.495 234.441 202.097C236.552 201.605 239.766 202.535 241.917 202.747Z" fill="#404D9E"/>
<path d="M215.941 187.263C216.387 187.202 216.842 187.242 217.269 187.382C217.561 187.544 217.814 187.766 218.013 188.033L222.595 193.172C223.485 194.168 224.414 195.536 223.79 196.718C223.57 197.047 223.279 197.323 222.939 197.525C222.599 197.727 222.218 197.851 221.825 197.887C219.605 198.09 217.375 197.652 215.397 196.625C213.989 196.014 212.595 195.297 211.227 194.633C210.211 194.172 209.322 193.47 208.637 192.588C207.588 190.994 207.309 187.17 209.142 185.948C210.085 185.35 210.908 185.775 211.798 186.187C213.07 186.88 214.493 187.249 215.941 187.263V187.263Z" fill="url(#paint4_linear)"/>
<path d="M241.917 202.747C243.332 202.824 244.731 203.092 246.074 203.544C246.742 203.775 247.355 204.141 247.876 204.618C248.396 205.095 248.814 205.675 249.102 206.32C249.37 206.951 249.403 207.658 249.195 208.312C248.736 209.282 247.931 210.044 246.937 210.45C242.217 212.958 236.892 214.103 231.559 213.756C230.19 213.811 228.853 213.336 227.827 212.428C227.086 211.332 226.74 210.016 226.844 208.697L226.658 202.455C227.86 202.509 229.033 202.84 230.085 203.425C232.05 204.089 232.82 202.495 234.441 202.097C236.552 201.605 239.766 202.535 241.917 202.747Z" fill="url(#paint5_linear)"/>
<path d="M166.261 135.125C163.404 134.877 160.529 134.922 157.682 135.258C157.309 135.277 156.948 135.391 156.633 135.59C156.451 135.761 156.306 135.966 156.205 136.195C156.105 136.423 156.052 136.669 156.048 136.918C155.65 140.769 158.704 144.116 161.998 146.148C170.909 151.672 182.144 151.46 191.984 155.072C192.923 155.321 193.757 155.865 194.361 156.626C194.772 157.449 194.972 158.362 194.946 159.282C195.384 164.474 198.266 169.149 199.222 174.262C200.178 179.374 199.155 184.726 199.939 189.879C203.166 186.439 208.664 185.895 211.891 182.495C214.919 179.361 215.516 174.686 215.968 170.357L217.19 158.485C217.416 157.629 217.323 156.719 216.927 155.927C216.53 155.135 215.859 154.515 215.038 154.182C200.51 144.793 183.485 136.612 166.261 135.125Z" fill="url(#paint6_linear)"/>
<path d="M225.012 133.93C226.354 134.199 227.598 134.828 228.611 135.749C229.649 137.195 230.122 138.972 229.939 140.743C229.907 153.344 227.525 165.828 222.913 177.555C222.87 177.967 222.726 178.362 222.495 178.706C222.264 179.05 221.951 179.332 221.586 179.527C221.22 179.722 220.812 179.825 220.398 179.826C219.983 179.827 219.575 179.727 219.208 179.534C216.447 178.788 213.725 177.902 211.054 176.878L214.667 152.974C214.839 152.31 214.802 151.61 214.56 150.968C214.294 150.513 213.92 150.13 213.471 149.853C209.351 146.856 204.999 144.191 200.457 141.885C196.831 140.052 192.675 137.901 191.692 134.023C191.488 133.36 191.447 132.658 191.572 131.976C191.696 131.294 191.984 130.653 192.409 130.105C192.983 129.541 193.659 129.09 194.401 128.777C196.805 127.595 199.833 126.121 202.595 126.36C204.813 126.586 205.663 127.861 207.509 128.804C212.635 131.354 219.447 132.31 225.012 133.93Z" fill="#282328"/>
<path d="M200.337 95.9086C202.117 100.809 202.993 106.001 204.56 110.955C204.904 112.268 205.519 113.494 206.366 114.554C207.493 115.634 208.858 116.435 210.35 116.891C212.431 117.697 214.547 118.401 216.698 119.003C218.133 119.388 219.846 120.052 220.005 121.513C220.039 122 219.938 122.487 219.713 122.92C219.158 123.91 218.359 124.74 217.392 125.333C216.425 125.926 215.322 126.261 214.188 126.307C211.926 126.367 209.673 125.998 207.548 125.218C205.614 124.826 203.839 123.87 202.449 122.469C201.658 121.304 201.104 119.996 200.815 118.618C198.636 110.881 195.612 103.408 191.798 96.3336C190.657 94.4652 189.765 92.4563 189.142 90.3575C188.266 86.6922 188.252 78.007 192.037 81.1943C195.092 83.7706 198.996 92.2699 200.337 95.9086Z" fill="#FBC4D6"/>
<path d="M185.849 133.465C188.087 132.598 190.266 131.582 192.369 130.424C200.337 126.015 193.817 123.85 191.161 118.552C189.262 114.793 190.032 110.291 191.015 106.214C192.754 99.0431 195.078 91.6063 193.405 84.4483C193.196 83.2866 192.743 82.1823 192.077 81.2079C191.59 80.6035 191.027 80.0635 190.404 79.6011C188.722 78.148 186.786 77.018 184.693 76.2677C180.709 74.9397 176.194 75.9092 172.409 77.8082C157.536 85.2716 154.362 104.116 154.959 119.189C155.119 123.372 155.769 127.795 158.465 130.995C161.161 134.196 164.972 135.417 168.877 135.895C174.648 136.485 180.475 135.651 185.849 133.465Z" fill="white"/>
<path d="M163.671 124.939C163.791 126.354 164.246 127.72 164.999 128.923C166.327 130.796 168.77 131.486 171.015 132.031L181.121 134.527C182.353 134.901 183.632 135.093 184.919 135.098C187.681 134.966 190.058 133.199 192.25 131.5C192.81 131.116 193.296 130.635 193.684 130.079C188.106 129.547 182.542 128.99 176.991 128.18C173.724 127.701 170.271 127.037 167.867 124.793C166.626 123.566 165.681 122.072 165.105 120.424C164.707 119.401 164.521 116.799 163.366 116.573C163.075 119.362 163.177 122.179 163.671 124.939V124.939Z" fill="url(#paint7_linear)"/>
<path d="M183.618 87.9409C183.617 88.3596 183.449 88.7608 183.153 89.0564C182.877 89.219 182.554 89.2845 182.237 89.2423C181.196 89.1936 180.178 88.9223 179.251 88.4469C178.324 87.9714 177.509 87.3028 176.862 86.4861C176.216 85.6694 175.751 84.7235 175.501 83.7122C175.25 82.7009 175.22 81.6477 175.411 80.6235C175.65 79.2955 176.221 78.1535 176.579 76.9051C177.283 74.4085 177.164 71.5931 178.744 69.5347C180.112 72.6652 181.673 75.7077 183.418 78.6448C183.865 79.2288 184.175 79.905 184.326 80.6241C184.478 81.3432 184.467 82.0871 184.295 82.8015L183.618 87.9409Z" fill="#FBC4D6"/>
<path d="M184.401 81.5135L183.804 85.4975C183.804 85.4975 176.964 82.1111 177.854 75.8296C178.744 69.5481 184.401 81.5135 184.401 81.5135Z" fill="url(#paint8_linear)"/>
<path d="M192.396 77.6356C192.045 78.9119 191.302 80.0455 190.271 80.8759C189.779 81.2091 189.23 81.4478 188.651 81.5798C186.617 81.9743 184.511 81.7153 182.634 80.8399C180.756 79.9644 179.204 78.5174 178.199 76.706C177.252 74.8711 176.712 72.8535 176.616 70.7908C176.52 68.7281 176.87 66.669 177.642 64.7539C178.274 62.6534 179.704 60.8846 181.626 59.827C182.676 59.4127 183.813 59.265 184.935 59.397C186.056 59.5291 187.128 59.9369 188.053 60.5839C190.569 62.3403 192.513 64.797 193.644 67.6489C194.614 70.5573 193.392 74.86 192.396 77.6356Z" fill="#FBC4D6"/>
<path d="M222.422 150.623C224.124 152.79 225.469 155.216 226.406 157.807C231.629 170.402 235.023 183.68 236.486 197.236C232.222 197.767 227.908 197.767 223.644 197.236C223.31 187.666 221.834 178.17 219.248 168.949C218.791 166.965 218.006 165.071 216.924 163.345C215.025 160.596 211.904 159.003 208.956 157.515C202.058 154.163 194.848 151.494 187.429 149.547C184.295 148.684 181.134 147.887 178.053 146.891C175.464 146.015 168.199 142.801 166.101 141.061C165.002 140.228 164.082 139.18 163.397 137.982C162.713 136.784 162.277 135.46 162.117 134.089C162.117 134.78 182.356 136.161 183.804 136.002C188.677 135.484 194.428 132.695 199.235 134.674C202.993 136.214 206.433 139.428 209.859 141.646C214.016 144.249 219.089 146.772 222.422 150.623Z" fill="#473F47"/>
<path d="M200.244 149.6L175.543 137.529L204.507 125.245L229.222 136.041L200.244 149.6Z" fill="#404D9E"/>
<path d="M162.622 92.9209C162.622 93.3857 162.502 93.8373 162.449 94.2489C161.719 101.048 162.383 107.715 162.635 114.475C162.794 118.658 163.339 126.626 167.788 128.764C176.101 132.748 192.143 131.234 192.143 131.234C194.004 130.936 195.904 131.013 197.734 131.46C198.73 131.765 199.647 132.283 200.616 132.655C204.122 133.983 208.04 133.319 211.732 132.655C212.368 132.58 212.982 132.376 213.538 132.057C214.182 131.485 214.575 130.682 214.632 129.823C214.689 128.963 214.406 128.115 213.843 127.462C212.645 126.203 211.086 125.345 209.381 125.006C204.719 123.484 199.725 123.291 194.959 124.448C194.35 124.653 193.729 124.822 193.1 124.953C192.362 125.072 191.616 125.125 190.869 125.112H185.211C178.704 125.112 172.569 125.192 171.586 117.582C171.223 114.764 171.152 111.916 171.373 109.083C171.759 103.97 173.1 98.897 172.821 93.7841C172.804 92.1626 172.399 90.5687 171.639 89.1361C171.254 88.4248 170.693 87.8241 170.009 87.3917C169.326 86.9592 168.542 86.7093 167.735 86.666C166.898 86.7285 166.092 87.0057 165.394 87.471C164.696 87.9363 164.13 88.5739 163.751 89.322C163.163 90.4447 162.78 91.6636 162.622 92.9209Z" fill="#FBC4D6"/>
<path d="M239.394 111.686L204.866 129.255L200.244 149.6L229.222 136.041L239.394 111.686Z" fill="#404D9E"/>
<path d="M194.096 70.305C194.058 69.0407 193.589 67.8272 192.768 66.8655C192.351 66.3814 191.857 65.9687 191.307 65.6437C190.537 65.1922 190.351 65.1523 189.846 65.8827C189.195 66.8256 188.983 67.9279 188.385 68.9106C187.731 70.0005 186.819 70.9127 185.729 71.5666C184.504 72.3267 183.079 72.7014 181.639 72.6423C181.067 72.5558 180.485 72.5558 179.913 72.6423C179.72 72.6786 179.539 72.757 179.38 72.8718C179.222 72.9866 179.091 73.135 178.996 73.3063C178.859 73.803 178.81 74.3198 178.85 74.8335C178.731 76.1615 177.416 77.1044 176.686 78.2598C175.955 79.4151 175.743 81.1283 174.866 82.3633C174.703 82.6111 174.479 82.8124 174.215 82.9476C173.591 83.2132 172.887 82.868 172.237 82.7484C170.311 82.4164 168.757 84.2093 167.111 85.2982C163.804 87.4762 159.475 86.9184 155.57 86.2677C154.375 86.1231 153.21 85.7915 152.117 85.2849C150.938 84.5887 149.89 83.6895 149.023 82.6289C147.576 81.0353 146.141 79.4151 144.72 77.795C144.192 77.2762 143.772 76.6578 143.485 75.9756C143.333 75.4998 143.292 74.9955 143.366 74.5015C143.495 73.5793 143.769 72.6831 144.176 71.8455C145.212 69.5215 146.42 66.9982 148.757 65.9491C151.095 64.9 153.857 65.6835 156.433 65.4179C156.747 65.4172 157.053 65.3199 157.31 65.139C157.515 64.9074 157.661 64.6294 157.735 64.329C158.811 60.7566 160.152 56.8788 163.366 55.0329C165.842 53.8433 168.634 53.4757 171.334 53.9838C174.007 54.4889 176.734 54.6451 179.448 54.4486C180.776 54.2361 182.104 53.7978 183.432 53.5322C186.537 52.8422 189.788 53.3147 192.569 54.8602C193.941 55.6768 195.089 56.8215 195.909 58.1914C196.73 59.5613 197.197 61.1136 197.27 62.7088C197.216 63.3318 197.216 63.9582 197.27 64.5813C197.363 65.1656 197.615 65.7366 197.708 66.321C197.762 66.826 197.709 67.3369 197.552 67.8199C197.395 68.303 197.137 68.7473 196.796 69.1236C196.455 69.4999 196.038 69.7998 195.572 70.0034C195.107 70.207 194.604 70.3098 194.096 70.305V70.305Z" fill="#FF681C"/>
<path d="M161.413 96.6922C161.004 100.451 160.959 104.24 161.281 108.007C161.265 108.334 161.348 108.658 161.52 108.936C161.802 109.245 162.191 109.435 162.609 109.468C164.759 109.868 166.941 110.077 169.129 110.092C169.436 110.19 169.761 110.219 170.08 110.177C170.4 110.136 170.706 110.024 170.978 109.85C171.249 109.676 171.479 109.445 171.651 109.172C171.822 108.899 171.932 108.592 171.971 108.272C173.166 103.279 174.348 98.2858 175.251 93.2261C175.61 91.1942 175.862 88.91 174.64 87.2633C172.874 84.8729 168.107 84.6073 165.809 86.347C163.034 88.4851 161.852 93.4784 161.413 96.6922Z" fill="white"/>
<path d="M198.996 90.3181L202.754 99.322C202.94 99.6721 203.014 100.071 202.967 100.464C202.871 100.787 202.687 101.077 202.436 101.301C200.6 103.242 198.421 104.827 196.008 105.975C193.784 103.988 191.978 101.577 190.696 98.8838C189.448 95.6833 189.727 92.1242 190.098 88.7112C190.324 86.5466 190.244 79.5878 193.923 82.2837C196.486 84.1296 197.841 87.5426 198.996 90.3181Z" fill="white"/>
<path d="M131.015 174.779C131.016 176.007 130.767 177.222 130.283 178.35C129.799 179.478 129.09 180.495 128.2 181.34C126.665 182.794 124.687 183.692 122.582 183.89C122.189 183.91 121.794 183.91 121.4 183.89L55.4382 182.562C52.9058 182.534 50.4841 181.52 48.6884 179.734C46.8927 177.948 45.8647 175.532 45.8234 173C45.8222 171.773 46.0712 170.558 46.5553 169.43C47.0393 168.302 47.7483 167.284 48.6388 166.44C49.5417 165.571 50.6071 164.89 51.7738 164.434C52.9406 163.978 54.1858 163.757 55.4382 163.784H57.6825C57.212 162.152 56.9751 160.462 56.9787 158.764C56.9742 156.343 57.4642 153.947 58.4188 151.723C59.3733 149.499 60.7723 147.493 62.5297 145.829C64.0782 144.347 65.8766 143.151 67.8418 142.296C70.3859 141.186 73.1409 140.642 75.9161 140.703L81.5203 140.822C84.985 140.887 88.3701 141.873 91.3274 143.68C94.2846 145.486 96.7072 148.048 98.3462 151.101C99.9664 150.345 101.738 149.968 103.525 149.999H104.973C107.974 150.036 110.843 151.242 112.97 153.359C115.097 155.476 116.316 158.339 116.367 161.34V161.885C116.373 162.914 116.225 163.939 115.929 164.926L121.387 165.045C123.951 165.07 126.402 166.106 128.206 167.93C130.009 169.753 131.019 172.215 131.015 174.779V174.779Z" fill="white"/>
<path d="M122.582 183.89C122.189 183.91 121.794 183.91 121.4 183.89L55.4382 182.561C52.9058 182.534 50.4841 181.52 48.6884 179.734C46.8927 177.948 45.8647 175.532 45.8234 173C45.8222 171.772 46.0712 170.558 46.5553 169.43C47.0393 168.302 47.7483 167.284 48.6388 166.439C46.0491 182.721 63.0477 180.397 63.0477 180.397H105.903L122.582 183.89Z" fill="url(#paint9_linear)"/>
<path d="M62.4634 165.749L57.6825 163.93C57.212 162.298 56.9751 160.608 56.9787 158.91C56.9742 156.489 57.4643 154.093 58.4188 151.869C59.3734 149.645 60.7723 147.639 62.5298 145.975C64.0782 144.493 65.8766 143.297 67.8418 142.442C54.6015 153.81 62.4634 165.749 62.4634 165.749Z" fill="url(#paint10_linear)"/>
<path d="M305.011 97.5955C305.012 98.8241 304.762 100.04 304.275 101.168C303.789 102.296 303.077 103.313 302.182 104.156C300.642 105.61 298.66 106.508 296.552 106.706C296.158 106.739 295.763 106.739 295.37 106.706L229.421 105.378C226.91 105.344 224.51 104.339 222.725 102.573C220.939 100.808 219.907 98.4191 219.846 95.9089C219.832 94.6691 220.074 93.4396 220.556 92.2972C221.038 91.1549 221.75 90.124 222.648 89.2689C224.485 87.5282 226.93 86.575 229.461 86.6129H231.692C231.227 84.9844 230.991 83.2996 230.988 81.6063C230.984 79.1859 231.474 76.7904 232.429 74.5662C233.384 72.3421 234.782 70.3362 236.539 68.6714C238.088 67.1868 239.886 65.9866 241.851 65.1257C244.395 64.0143 247.15 63.4705 249.925 63.532L255.529 63.6516C258.994 63.7155 262.379 64.7032 265.335 66.5124C268.29 68.3217 270.709 70.8871 272.342 73.9436C273.959 73.1765 275.732 72.799 277.521 72.8414H278.969C281.971 72.8721 284.843 74.0729 286.973 76.1885C289.104 78.304 290.325 81.1674 290.376 84.1693V84.7138C290.375 85.7485 290.223 86.7775 289.925 87.7682L295.383 87.8745C297.943 87.9058 300.388 88.943 302.189 90.7619C303.991 92.5808 305.004 95.0354 305.011 97.5955V97.5955Z" fill="white"/>
<path d="M296.565 106.706C296.172 106.74 295.776 106.74 295.383 106.706L229.434 105.378C226.921 105.348 224.518 104.344 222.729 102.578C220.941 100.812 219.907 98.4215 219.846 95.9091C219.832 94.6692 220.074 93.4398 220.556 92.2974C221.038 91.155 221.75 90.1242 222.648 89.269C219.992 105.564 237.057 103.226 237.057 103.226H279.912L296.565 106.706Z" fill="url(#paint11_linear)"/>
<path d="M236.459 88.5649L231.665 86.7455C231.201 85.117 230.964 83.4322 230.961 81.7389C230.957 79.3186 231.448 76.923 232.402 74.6989C233.357 72.4747 234.755 70.4688 236.512 68.8041C238.061 67.3195 239.859 66.1192 241.824 65.2583C228.597 76.6261 236.459 88.5649 236.459 88.5649Z" fill="url(#paint12_linear)"/>
<path d="M180.006 72.6688C179.813 72.7052 179.632 72.7836 179.473 72.8984C179.315 73.0131 179.184 73.1615 179.089 73.3328C178.952 73.8296 178.903 74.3464 178.943 74.8601C178.824 76.1881 177.509 77.131 176.778 78.2863C176.048 79.4417 175.836 81.1548 174.959 82.3899C174.796 82.6377 174.572 82.839 174.308 82.9742C173.684 83.2398 172.98 82.8945 172.33 82.775C170.404 82.443 168.85 84.2358 167.204 85.3248C163.897 87.5027 159.567 86.9449 155.663 86.2942C154.435 86.1509 153.237 85.8101 152.117 85.2849C150.938 84.5887 149.89 83.6895 149.023 82.6289C147.576 81.0353 146.141 79.4151 144.72 77.795C144.192 77.2762 143.772 76.6578 143.485 75.9756C143.333 75.4998 143.292 74.9955 143.366 74.5015C143.985 74.1276 144.628 73.7949 145.291 73.5055C147.327 72.4129 149.707 72.1512 151.931 72.7751C153.711 73.4656 154.973 75.046 156.5 76.1748C158.63 77.666 161.22 78.3512 163.809 78.1079C166.397 77.8647 168.815 76.7087 170.63 74.8468C171.299 73.9651 172.085 73.1787 172.967 72.5095C174.547 71.6463 177.761 71.7791 180.006 72.6688Z" fill="url(#paint13_linear)"/>
</g>
<defs>
<linearGradient id="paint0_linear" x1="265.489" y1="236.798" x2="259.474" y2="159.295" gradientUnits="userSpaceOnUse">
<stop offset="0.01"/>
<stop offset="0.13" stop-opacity="0.69"/>
<stop offset="0.25" stop-opacity="0.32"/>
<stop offset="1" stop-opacity="0"/>
</linearGradient>
<linearGradient id="paint1_linear" x1="1988.69" y1="3677.34" x2="2634.01" y2="3537.39" gradientUnits="userSpaceOnUse">
<stop offset="0.01"/>
<stop offset="0.13" stop-opacity="0.69"/>
<stop offset="0.25" stop-opacity="0.32"/>
<stop offset="1" stop-opacity="0"/>
</linearGradient>
<linearGradient id="paint2_linear" x1="7840.46" y1="40512" x2="-32.1576" y2="-16373.2" gradientUnits="userSpaceOnUse">
<stop offset="0.01"/>
<stop offset="0.13" stop-opacity="0.69"/>
<stop offset="0.25" stop-opacity="0.32"/>
<stop offset="1" stop-opacity="0"/>
</linearGradient>
<linearGradient id="paint3_linear" x1="14425.9" y1="29257.8" x2="10942.7" y2="-12820.5" gradientUnits="userSpaceOnUse">
<stop offset="0.01"/>
<stop offset="0.13" stop-opacity="0.69"/>
<stop offset="0.25" stop-opacity="0.32"/>
<stop offset="1" stop-opacity="0"/>
</linearGradient>
<linearGradient id="paint4_linear" x1="-14186" y1="1973.63" x2="-14458" y2="2151.45" gradientUnits="userSpaceOnUse">
<stop offset="0.01"/>
<stop offset="0.13" stop-opacity="0.69"/>
<stop offset="0.25" stop-opacity="0.32"/>
<stop offset="1" stop-opacity="0"/>
</linearGradient>
<linearGradient id="paint5_linear" x1="-20044.8" y1="2225.49" x2="-20123.6" y2="1886.82" gradientUnits="userSpaceOnUse">
<stop offset="0.01"/>
<stop offset="0.13" stop-opacity="0.69"/>
<stop offset="0.25" stop-opacity="0.32"/>
<stop offset="1" stop-opacity="0"/>
</linearGradient>
<linearGradient id="paint6_linear" x1="-57372.9" y1="4883.17" x2="-61109.8" y2="10664.8" gradientUnits="userSpaceOnUse">
<stop offset="0.01"/>
<stop offset="0.13" stop-opacity="0.69"/>
<stop offset="0.25" stop-opacity="0.32"/>
<stop offset="1" stop-opacity="0"/>
</linearGradient>
<linearGradient id="paint7_linear" x1="4879.96" y1="1532.31" x2="4266.88" y2="3001.59" gradientUnits="userSpaceOnUse">
<stop offset="0.01"/>
<stop offset="0.13" stop-opacity="0.69"/>
<stop offset="0.25" stop-opacity="0.32"/>
<stop offset="1" stop-opacity="0"/>
</linearGradient>
<linearGradient id="paint8_linear" x1="-5211.54" y1="722.911" x2="-5347.29" y2="893.979" gradientUnits="userSpaceOnUse">
<stop offset="0.01"/>
<stop offset="0.13" stop-opacity="0.69"/>
<stop offset="0.25" stop-opacity="0.32"/>
<stop offset="1" stop-opacity="0"/>
</linearGradient>
<linearGradient id="paint9_linear" x1="5564.79" y1="3040.33" x2="5546.65" y2="2015.05" gradientUnits="userSpaceOnUse">
<stop offset="0.01"/>
<stop offset="0.13" stop-opacity="0.69"/>
<stop offset="0.25" stop-opacity="0.32"/>
<stop offset="1" stop-opacity="0"/>
</linearGradient>
<linearGradient id="paint10_linear" x1="349.198" y1="3245.01" x2="994.546" y2="3105.14" gradientUnits="userSpaceOnUse">
<stop offset="0.01"/>
<stop offset="0.13" stop-opacity="0.69"/>
<stop offset="0.25" stop-opacity="0.32"/>
<stop offset="1" stop-opacity="0"/>
</linearGradient>
<linearGradient id="paint11_linear" x1="15787.8" y1="1947.75" x2="15769.7" y2="922.824" gradientUnits="userSpaceOnUse">
<stop offset="0.01"/>
<stop offset="0.13" stop-opacity="0.69"/>
<stop offset="0.25" stop-opacity="0.32"/>
<stop offset="1" stop-opacity="0"/>
</linearGradient>
<linearGradient id="paint12_linear" x1="1946.47" y1="1813.48" x2="2591.8" y2="1673.53" gradientUnits="userSpaceOnUse">
<stop offset="0.01"/>
<stop offset="0.13" stop-opacity="0.69"/>
<stop offset="0.25" stop-opacity="0.32"/>
<stop offset="1" stop-opacity="0"/>
</linearGradient>
<linearGradient id="paint13_linear" x1="5786.91" y1="1273.66" x2="5025.08" y2="-151.403" gradientUnits="userSpaceOnUse">
<stop offset="0.01"/>
<stop offset="0.13" stop-opacity="0.69"/>
<stop offset="0.25" stop-opacity="0.32"/>
<stop offset="1" stop-opacity="0"/>
</linearGradient>
<clipPath id="clip0">
<rect width="406" height="306" fill="white"/>
</clipPath>
</defs>
</svg>
