<svg width="406" height="306" viewBox="0 0 406 306" fill="none" xmlns="http://www.w3.org/2000/svg">
<g clip-path="url(#clip0)">
<path opacity="0.18" d="M375.152 205.919C372.548 216.185 368.031 226.43 364.073 235.566C349.036 270.066 323.662 293.659 283.933 288.836C264.786 286.507 246.046 280.077 226.766 280.697C208.321 281.267 190.761 288.216 173.241 294.005C140.685 304.779 104.639 311.677 72.4386 299.814C40.2382 287.951 15.2003 251.458 26.6561 219.105C35.5684 193.853 63.4347 176.914 66.3342 150.299C70.1494 115.707 29.2097 85.8674 37.8473 52.1105C41.5201 37.8976 53.3422 27.3167 65.8662 19.6863C94.638 2.09564 130.013 -3.71364 163.068 2.2686C194.505 7.91511 220.662 34.3876 252.343 35.6084C272.773 36.3816 292.429 24.7732 312.776 26.6859C337.946 29.1175 356.402 51.4085 368.173 73.8012C371.962 80.7917 375.132 88.1008 377.645 95.6445C382.536 111.018 383.529 127.366 380.534 143.218C377.482 159.496 377.848 174.757 377.38 191.452C377.175 196.342 376.428 201.194 375.152 205.919Z" fill="#404D9E"/>
<path d="M157.116 271.836C155.875 272.223 154.481 272.853 154.165 274.085C158.072 276.567 162.905 277.137 167.524 277.015C172.143 276.893 176.751 276.079 181.381 276.048C187.485 276.048 194.362 277.137 199.266 273.433C197.088 272.054 194.588 271.269 192.012 271.154C192.918 265.457 160.738 270.707 157.116 271.836Z" fill="url(#paint0_linear)"/>
<path d="M78.6853 203.966C77.0371 203.966 74.7582 204.801 75.1651 206.398L150.381 212.502C159.232 213.225 168.093 213.937 176.985 213.937C190.415 213.937 203.783 212.289 217.182 211.515C229.798 210.793 242.434 210.844 255.06 210.905C266.75 210.966 281.125 213.072 292.479 210.01C294.189 209.552 295.908 208.178 295.796 206.418C295.745 205.604 295.318 204.76 295.633 204.007C295.816 203.638 296.107 203.332 296.468 203.132C298.797 201.697 301.768 202.817 304.454 203.407C308.729 204.336 313.194 203.769 317.1 201.799C317.832 201.495 318.456 200.977 318.891 200.314C319.098 199.979 319.173 199.579 319.102 199.191C319.03 198.804 318.817 198.457 318.504 198.218C318.188 198.062 317.84 197.982 317.487 197.984L294.463 196.193C293.613 196.062 292.744 196.139 291.93 196.417C291.024 196.814 291.075 197.872 290.343 198.31C289.152 199.012 286.446 198.635 285.083 198.717C281.593 198.91 278.104 199.103 274.604 199.276C267.638 199.608 260.659 199.89 253.666 200.121C239.423 200.599 225.108 200.884 210.834 201.138C182.601 201.596 154.359 201.84 126.136 202.929C110.316 203.519 94.5057 203.62 78.6853 203.966Z" fill="url(#paint1_linear)"/>
<path d="M136.524 47.2169C135.2 46.757 133.754 46.7932 132.454 47.3187C131.616 47.6177 130.85 48.0891 130.205 48.7024C129.56 49.3157 129.051 50.0574 128.71 50.8795C128.704 50.9864 128.674 51.0906 128.624 51.1852C128.574 51.2798 128.504 51.3626 128.419 51.4281C128.334 51.4936 128.237 51.5402 128.133 51.5649C128.028 51.5896 127.92 51.5918 127.815 51.5714C126.334 51.5679 124.905 52.1156 123.806 53.1076C122.524 54.2776 122.525 55.7121 122.352 57.3908C122.142 57.2852 121.91 57.2303 121.675 57.2303C121.44 57.2303 121.208 57.2852 120.998 57.3908C120.579 57.5974 120.198 57.8725 119.869 58.2047C119.308 58.6554 118.859 59.23 118.557 59.8834C118.15 60.9924 118.608 62.2132 118.628 63.3934C118.635 63.4463 118.631 63.5001 118.615 63.5511C118.599 63.602 118.572 63.6489 118.536 63.6885C118.495 63.7064 118.45 63.7156 118.404 63.7156C118.359 63.7156 118.314 63.7064 118.272 63.6885C117.956 63.6274 117.672 63.4646 117.356 63.4341C116.987 63.4376 116.631 63.5695 116.349 63.8072C116.067 64.0448 115.876 64.3734 115.81 64.7364C115.69 65.4651 115.728 66.2111 115.922 66.9238C116.111 67.6369 116.089 68.3894 115.861 69.0908C115.617 69.5515 115.297 69.9677 114.914 70.3218C113.811 71.3502 113.093 72.7253 112.88 74.2184C112.82 74.94 113.014 75.6598 113.429 76.2532C113.642 76.5462 113.928 76.7789 114.257 76.9287C114.587 77.0785 114.95 77.1402 115.311 77.1078C117 76.884 117.59 74.5135 119.198 73.9539C120.805 73.3943 122.606 71.502 123.644 70.0064C124.478 68.8059 125.292 67.4121 126.696 66.9543C127.158 66.8561 127.603 66.6916 128.018 66.4659C128.294 66.2505 128.523 65.9803 128.69 65.6724C129.271 64.8152 129.721 63.8755 130.023 62.8847C130.531 60.9313 130.023 58.7338 130.969 56.933C131.239 56.4164 131.615 55.9627 132.073 55.6016C132.53 55.2404 133.059 54.9799 133.624 54.8372C134.102 54.7151 134.642 54.6846 135.079 54.5523C135.632 54.3926 136.155 54.1416 136.626 53.8096C137.244 53.4538 137.777 52.9655 138.185 52.3798C138.593 51.7941 138.866 51.1255 138.986 50.4217C139.077 48.9872 137.785 47.7053 136.524 47.2169Z" fill="#FF681C"/>
<path d="M140.685 49.628C141.193 49.8242 141.615 50.1953 141.874 50.6746C142.133 51.1539 142.213 51.7099 142.099 52.2427C141.925 52.6735 141.665 53.0646 141.336 53.3924L139.495 55.4271L138.731 52.5988C138.653 52.0681 138.39 51.582 137.989 51.2253C137.727 51.0754 137.431 50.9965 137.129 50.9965C136.828 50.9965 136.531 51.0754 136.269 51.2253C135.73 51.5 135.252 51.9273 134.774 52.2427C134.642 52.3241 134.458 52.4157 134.316 52.3343C134.174 52.2529 134.153 51.9578 134.224 51.7544C135.099 49.333 138.447 48.6615 140.685 49.628Z" fill="#FF681C"/>
<path d="M141.936 126.166C141.992 127.119 142.309 128.038 142.852 128.822C143.676 129.839 145.049 130.348 146.189 131.091C146.306 131.15 146.409 131.235 146.49 131.339C146.571 131.442 146.628 131.563 146.657 131.691C146.65 131.815 146.607 131.934 146.533 132.034C146.459 132.133 146.357 132.209 146.24 132.25C145.998 132.319 145.746 132.336 145.497 132.301C144.335 132.119 143.163 132.007 141.987 131.966C141.397 131.966 140.715 132.027 140.339 131.569C140.097 131.181 140.013 130.715 140.105 130.267C140.209 128.584 140.072 126.895 139.698 125.251C139.573 124.85 139.528 124.428 139.566 124.01C139.604 123.816 139.692 123.636 139.821 123.487C139.95 123.338 140.116 123.226 140.303 123.161C140.489 123.096 140.689 123.081 140.883 123.118C141.076 123.154 141.257 123.241 141.407 123.369C142.079 123.949 141.855 125.383 141.936 126.166Z" fill="#FCBDBA"/>
<path d="M123.115 132.464C122.977 133.407 123.096 134.371 123.46 135.252C124.061 136.462 125.312 137.185 126.279 138.141C126.383 138.221 126.468 138.324 126.526 138.442C126.585 138.561 126.615 138.691 126.614 138.823C126.584 138.943 126.519 139.05 126.426 139.132C126.333 139.214 126.218 139.266 126.096 139.281C125.848 139.306 125.597 139.275 125.363 139.189C124.257 138.785 123.13 138.446 121.985 138.172C121.405 138.07 120.724 137.968 120.449 137.459C120.282 137.034 120.282 136.562 120.449 136.137C120.891 134.506 121.096 132.82 121.059 131.131C121.018 130.713 121.06 130.292 121.182 129.89C121.258 129.708 121.381 129.55 121.538 129.43C121.694 129.311 121.88 129.234 122.075 129.208C122.271 129.183 122.469 129.209 122.652 129.284C122.834 129.358 122.994 129.48 123.115 129.636C123.695 130.317 123.186 131.681 123.115 132.464Z" fill="#FCBDBA"/>
<path d="M119.411 86.6815C119.411 86.6815 129.117 101.088 135.476 105.391C135.354 106.832 135.384 108.281 135.568 109.715C135.893 112.045 137.022 114.09 137.389 116.379L138.609 124.081C138.66 124.427 138.762 124.844 139.098 124.966C139.3 125.03 139.517 125.03 139.718 124.966L142.404 124.233C142.243 119.606 142.342 114.973 142.699 110.356C142.92 108.489 142.967 106.606 142.842 104.73C142.394 100.66 139.057 97.0283 136.738 93.7625C135.344 91.7888 133.848 88.8383 131.895 87.3428C130.267 86.1016 127.968 86.6916 125.923 86.8951C124.389 87.0415 122.842 86.9314 121.344 86.5696C121.038 86.4262 120.701 86.3613 120.364 86.3808C120.026 86.4004 119.699 86.5037 119.411 86.6815Z" fill="#473F47"/>
<path d="M115.718 86.59C115.718 86.59 119.493 103.55 123.857 109.878C123.223 111.181 122.722 112.544 122.362 113.948C122.121 115.096 121.981 116.264 121.945 117.437L121.07 131.599C122.422 131.67 123.776 131.498 125.068 131.091L130.033 118.607C130.981 116.619 131.54 114.467 131.681 112.269C131.681 108.016 127.612 92.4909 127.133 91.7075C126.065 89.9474 123.715 89.6727 121.741 89.103C120.259 88.684 118.859 88.0166 117.6 87.1292C116.98 86.7426 116.42 86.3662 115.718 86.59Z" fill="#473F47"/>
<path d="M150.564 73.3844C152.632 74.3388 154.927 74.6914 157.187 74.4017C157.85 74.2191 158.544 74.1844 159.222 74.3C158.927 74.7171 158.642 75.3174 159.059 75.6735C159.187 75.757 159.334 75.8061 159.486 75.8159C160.035 75.8866 160.592 75.8274 161.114 75.643C161.36 75.5208 161.633 75.4614 161.908 75.47C162.15 75.5302 162.359 75.6838 162.488 75.8972C162.618 76.1107 162.658 76.3667 162.599 76.6095C162.455 77.0938 162.136 77.5073 161.704 77.7693C161.005 78.2321 160.196 78.5005 159.359 78.547C158.523 78.5935 157.688 78.4163 156.943 78.0338C156.515 77.7998 156.119 77.5048 155.681 77.2708C154.84 76.8873 153.95 76.6203 153.036 76.4772C150.361 75.9236 147.732 75.1685 145.172 74.2186C144.784 74.1263 144.418 73.956 144.098 73.7182C143.778 73.4803 143.51 73.1798 143.31 72.835C142.791 71.5531 143.747 69.4064 145.273 70.2406C147.044 71.2682 148.641 72.5908 150.564 73.3844Z" fill="#FCBDBA"/>
<path d="M137.928 66.0796C140.949 68.0547 144.319 69.4358 147.857 70.1491C148.01 70.1491 148.193 70.2509 148.234 70.4035C148.25 70.5074 148.225 70.6135 148.163 70.6985C147.44 72.153 146.527 73.5045 145.446 74.7172C145.33 74.8711 145.181 74.9964 145.009 75.0835C144.84 75.133 144.662 75.1477 144.488 75.1267C144.313 75.1057 144.144 75.0495 143.991 74.9614C141.706 74.0457 139.467 73.0283 137.277 71.9092C135.327 71.0541 133.59 69.7791 132.19 68.1754C131.491 67.3432 131.078 66.3092 131.01 65.225C131.01 64.0244 132.108 61.8676 133.624 62.4577C134.306 62.7222 134.906 63.5666 135.425 64.0448C136.217 64.7737 137.053 65.4532 137.928 66.0796V66.0796Z" fill="#404D9E"/>
<path d="M137.928 66.0796C140.949 68.0547 144.319 69.4358 147.857 70.1491C148.01 70.1491 148.193 70.2509 148.234 70.4035C148.25 70.5074 148.225 70.6135 148.163 70.6985C147.44 72.153 146.527 73.5045 145.446 74.7172C145.33 74.8711 145.181 74.9964 145.009 75.0835C144.84 75.133 144.662 75.1477 144.488 75.1267C144.313 75.1057 144.144 75.0495 143.991 74.9614C141.706 74.0457 139.467 73.0283 137.277 71.9092C135.327 71.0541 133.59 69.7791 132.19 68.1754C131.491 67.3432 131.078 66.3092 131.01 65.225C131.01 64.0244 132.108 61.8676 133.624 62.4577C134.306 62.7222 134.906 63.5666 135.425 64.0448C136.217 64.7737 137.053 65.4532 137.928 66.0796V66.0796Z" fill="url(#paint2_linear)"/>
<path d="M180.516 60.0156C181.059 60.7011 181.384 61.5344 181.447 62.4069C181.51 63.2794 181.309 64.1507 180.869 64.9072C180.43 65.6637 179.773 66.2704 178.984 66.6483C178.195 67.0261 177.311 67.1575 176.446 67.0255C176.446 67.0255 171.634 67.1374 172.722 71.6749L181.879 83.3342L170.22 92.4907C165.682 93.5793 165.57 88.7671 165.57 88.7671C165.695 87.9032 165.557 87.0219 165.176 86.2369C164.794 85.452 164.186 84.7994 163.43 84.3634C162.674 83.9275 161.805 83.7282 160.934 83.7914C160.064 83.8545 159.232 84.1772 158.547 84.7177C157.862 85.2582 157.354 85.9917 157.09 86.8236C156.826 87.6554 156.817 88.5473 157.065 89.3841C157.313 90.2209 157.806 90.9642 158.481 91.518C159.155 92.0717 159.98 92.4106 160.85 92.4907C164.99 93.854 163.383 97.8829 163.383 97.8829L151.724 107.039L128.029 76.9552L139.576 67.7987C144.113 66.7101 144.225 71.5223 144.225 71.5223C144.117 72.2358 144.188 72.9649 144.432 73.6441C144.676 74.3233 145.084 74.9313 145.621 75.4135C146.158 75.8957 146.806 76.237 147.507 76.4066C148.209 76.5762 148.941 76.5689 149.639 76.3852C150.337 76.2016 150.978 75.8474 151.505 75.3546C152.032 74.8617 152.428 74.2456 152.658 73.5616C152.888 72.8776 152.944 72.1473 152.822 71.4361C152.7 70.725 152.403 70.0554 151.958 69.4875C151.586 69.021 151.125 68.6344 150.6 68.3512C150.076 68.0679 149.499 67.8938 148.905 67.8394C144.805 66.4862 146.413 62.4167 146.413 62.4167L158.184 53.1279L167.34 64.7974C167.34 64.7974 171.41 66.4048 172.733 62.2641C172.82 61.397 173.165 60.5759 173.723 59.9065C174.281 59.2371 175.027 58.7502 175.864 58.5083C176.701 58.2664 177.592 58.2807 178.421 58.5494C179.25 58.818 179.979 59.3287 180.516 60.0156V60.0156Z" fill="#404D9E"/>
<path d="M180.516 60.0156C181.059 60.7011 181.384 61.5344 181.447 62.4069C181.51 63.2794 181.309 64.1507 180.869 64.9072C180.43 65.6637 179.773 66.2704 178.984 66.6483C178.195 67.0261 177.311 67.1575 176.446 67.0255C176.446 67.0255 171.634 67.1374 172.722 71.6749L181.879 83.3342L170.22 92.4907C165.682 93.5793 165.57 88.7671 165.57 88.7671C165.695 87.9032 165.557 87.0219 165.176 86.2369C164.794 85.452 164.186 84.7994 163.43 84.3634C162.674 83.9275 161.805 83.7282 160.934 83.7914C160.064 83.8545 159.232 84.1772 158.547 84.7177C157.862 85.2582 157.354 85.9917 157.09 86.8236C156.826 87.6554 156.817 88.5473 157.065 89.3841C157.313 90.2209 157.806 90.9642 158.481 91.518C159.155 92.0717 159.98 92.4106 160.85 92.4907C164.99 93.854 163.383 97.8829 163.383 97.8829L151.724 107.039L128.029 76.9552L139.576 67.7987C144.113 66.7101 144.225 71.5223 144.225 71.5223C144.117 72.2358 144.188 72.9649 144.432 73.6441C144.676 74.3233 145.084 74.9313 145.621 75.4135C146.158 75.8957 146.806 76.237 147.507 76.4066C148.209 76.5762 148.941 76.5689 149.639 76.3852C150.337 76.2016 150.978 75.8474 151.505 75.3546C152.032 74.8617 152.428 74.2456 152.658 73.5616C152.888 72.8776 152.944 72.1473 152.822 71.4361C152.7 70.725 152.403 70.0554 151.958 69.4875C151.586 69.021 151.125 68.6344 150.6 68.3512C150.076 68.0679 149.499 67.8938 148.905 67.8394C144.805 66.4862 146.413 62.4167 146.413 62.4167L158.184 53.1279L167.34 64.7974C167.34 64.7974 171.41 66.4048 172.733 62.2641C172.82 61.397 173.165 60.5759 173.723 59.9065C174.281 59.2371 175.027 58.7502 175.864 58.5083C176.701 58.2664 177.592 58.2807 178.421 58.5494C179.25 58.818 179.979 59.3287 180.516 60.0156V60.0156Z" fill="url(#paint3_linear)"/>
<path d="M141.987 86.5494C144.48 88.5841 147.074 90.7715 150.126 91.3006C150.714 91.4321 151.321 91.4449 151.913 91.3383C152.506 91.2318 153.071 91.0079 153.575 90.68C153.749 90.5764 153.891 90.4263 153.985 90.2466C154.078 90.0668 154.119 89.8646 154.104 89.6626C153.992 89.1641 153.382 88.9911 152.883 88.8995C150.552 88.5807 148.313 87.7766 146.311 86.5392C145.569 86.0138 144.865 85.4358 144.205 84.8096L139.25 80.3942C139.19 80.3206 139.114 80.2614 139.028 80.2209C138.941 80.1804 138.847 80.1597 138.752 80.1602C138.548 80.1602 138.426 80.3942 138.335 80.5773C138.027 81.2022 137.795 81.8613 137.643 82.5409C137.49 83.2835 137.643 83.3853 138.284 83.8126C139.566 84.6808 140.8 85.593 141.987 86.5494Z" fill="url(#paint4_linear)"/>
<path d="M144.287 82.8255C146.011 84.3339 148.127 85.3218 150.391 85.6742C151.064 85.6833 151.727 85.8396 152.334 86.132C151.917 86.4474 151.469 86.9866 151.785 87.4037C151.886 87.5198 152.016 87.6075 152.161 87.6581C152.668 87.8745 153.218 87.9719 153.769 87.943C154.041 87.9015 154.319 87.9223 154.582 88.004C154.689 88.066 154.782 88.1484 154.856 88.2465C154.931 88.3445 154.985 88.4563 155.016 88.5753C155.047 88.6944 155.055 88.8185 155.038 88.9404C155.021 89.0623 154.981 89.1797 154.918 89.2859C154.653 89.7169 154.229 90.0272 153.738 90.1507C152.939 90.4027 152.087 90.4355 151.271 90.2458C150.455 90.0561 149.705 89.6508 149.099 89.0723C148.743 88.7264 148.448 88.3296 148.081 87.9938C147.381 87.3899 146.601 86.8865 145.762 86.4983C143.349 85.2162 141.036 83.7538 138.843 82.1235C138.497 81.9271 138.195 81.6627 137.953 81.3463C137.712 81.0298 137.537 80.6678 137.44 80.282C137.297 78.8984 138.813 77.0976 140.054 78.3388C141.499 79.8039 142.669 81.4825 144.287 82.8255Z" fill="#FCBDBA"/>
<path d="M115.718 88.7669C115.9 88.9853 116.13 89.1593 116.39 89.2756C117.413 89.8596 118.478 90.3696 119.574 90.8017C122.423 91.8216 125.542 91.7964 128.375 90.7305C129.508 90.3225 130.572 89.7426 131.528 89.0111C131.891 88.7638 132.197 88.4411 132.424 88.0649C132.694 87.4515 132.779 86.7726 132.668 86.1116C132.414 82.683 132.037 79.1424 132.668 75.8156C132.871 74.6727 133.212 73.5589 133.685 72.4989C134.509 71.0524 135.191 69.5294 135.72 67.9512C135.902 66.9813 135.869 65.9835 135.625 65.0276C135.38 64.0716 134.93 63.1805 134.306 62.4166C132.983 60.7277 130.562 59.2322 128.425 59.9952C125.957 60.9251 123.817 62.5596 122.27 64.6955C120.583 67.0875 119.247 69.7084 118.302 72.4785C117.895 73.5672 117.499 74.6558 117.183 75.7749C116.51 78.482 116.074 81.2429 115.881 84.0259C115.769 85.1857 115.667 86.3456 115.545 87.5054C115.449 87.933 115.511 88.3809 115.718 88.7669V88.7669Z" fill="#404D9E"/>
<path d="M128.375 90.7306C129.508 90.3227 130.572 89.7427 131.528 89.0112C131.891 88.7639 132.197 88.4412 132.424 88.0651C132.694 87.4516 132.779 86.7727 132.668 86.1117C132.414 82.6831 132.037 79.1426 132.668 75.8157C132.261 75.4087 131.803 75.0425 131.355 74.6762C130.338 73.842 128.873 72.1938 127.398 72.3057C127.754 73.8623 128.039 75.4494 128.252 77.0366C128.466 78.6237 128.385 80.2719 128.639 81.8386C128.976 84.6109 128.911 87.4174 128.446 90.1711C128.402 90.3546 128.379 90.5421 128.375 90.7306V90.7306Z" fill="url(#paint5_linear)"/>
<path d="M140.756 77.4845C140.836 77.525 140.906 77.581 140.964 77.6491C141.022 77.7172 141.065 77.7961 141.092 77.8813C141.095 78.0504 141.033 78.2142 140.919 78.3391C139.994 79.6438 138.835 80.765 137.501 81.6456C137.372 81.748 137.216 81.8115 137.053 81.8287C136.865 81.8086 136.69 81.7263 136.554 81.5947C134.52 80.0381 132.485 78.5426 130.501 76.9147C129.218 76.0043 128.085 74.899 127.144 73.6388C126.452 72.5012 125.924 71.2716 125.577 69.9863C124.366 66.1711 128.029 64.5128 130.481 67.3106C133.716 71.0139 136.666 74.6256 140.756 77.4845Z" fill="#404D9E"/>
<path d="M140.258 131.711C140.205 131.585 140.186 131.447 140.204 131.311C140.222 131.175 140.275 131.046 140.359 130.938C140.583 130.724 140.949 130.826 141.234 130.938C141.863 131.243 142.521 131.485 143.198 131.66C143.88 131.84 144.603 131.764 145.233 131.447C145.579 131.243 145.914 130.938 146.311 130.968C146.511 130.998 146.702 131.071 146.871 131.182C147.482 131.499 148.137 131.722 148.814 131.843C149.099 131.868 149.374 131.958 149.618 132.108C149.691 132.16 149.745 132.235 149.77 132.322C149.77 132.525 149.577 132.678 149.384 132.749C147.267 133.573 144.897 133.268 142.638 133.024C142.385 132.988 142.128 132.988 141.875 133.024C141.499 133.095 141.041 133.288 140.726 133.024C140.456 132.636 140.294 132.182 140.258 131.711Z" fill="#473F47"/>
<path d="M120.164 137.51C120.131 137.379 120.131 137.241 120.165 137.109C120.199 136.978 120.265 136.857 120.358 136.757C120.612 136.574 120.958 136.757 121.233 136.869C121.824 137.245 122.447 137.569 123.094 137.836C123.751 138.08 124.473 138.08 125.129 137.836C125.495 137.683 125.862 137.419 126.258 137.5C126.451 137.557 126.631 137.65 126.787 137.775C127.348 138.185 127.969 138.504 128.629 138.721C128.912 138.78 129.177 138.905 129.402 139.087C129.435 139.115 129.462 139.149 129.481 139.188C129.5 139.226 129.512 139.268 129.514 139.311C129.514 139.515 129.29 139.637 129.087 139.688C126.879 140.247 124.57 139.688 122.362 139.128C122.114 139.056 121.857 139.018 121.599 139.016C121.222 139.016 120.744 139.179 120.459 138.833C120.253 138.423 120.152 137.969 120.164 137.51Z" fill="#473F47"/>
<path d="M139.006 56.6073C138.833 57.1669 138.66 57.7264 138.518 58.2962C138.356 59.1459 138.132 59.9825 137.846 60.799C137.701 61.2061 137.47 61.577 137.168 61.8862C136.866 62.1953 136.5 62.4352 136.097 62.5896C135.685 62.7211 135.238 62.6888 134.85 62.4993C134.461 62.3097 134.161 61.9777 134.011 61.5722C133.523 61.6841 133.35 62.2843 133.36 62.793C133.442 63.2907 133.348 63.8013 133.095 64.2377C132.637 64.7769 131.742 64.5531 131.142 64.1665C130.233 63.5542 129.527 62.6858 129.112 61.6716C128.697 60.6573 128.593 59.5428 128.812 58.4691C129.311 56.2004 129.29 53.4839 130.582 51.5204C131.047 50.8578 131.638 50.2941 132.322 49.862C132.922 49.4231 133.621 49.1399 134.357 49.0379C134.872 49.0077 135.389 49.0488 135.893 49.16C138.05 49.5263 139.881 49.8417 139.891 52.3139C139.825 53.7829 139.526 55.232 139.006 56.6073Z" fill="#FCBDBA"/>
<path d="M136.351 52.609C136.015 52.609 135.629 52.5276 135.333 52.731C135.038 52.9345 135.018 53.3924 134.835 53.7484C134.479 54.4097 133.573 54.5013 132.892 54.8472C132.479 55.0682 132.135 55.3988 131.898 55.8027C131.661 56.2066 131.54 56.6681 131.549 57.1363C131.562 56.8368 131.488 56.5399 131.335 56.2817C131.294 56.2206 131.242 56.1684 131.18 56.1283C131.119 56.0883 131.049 56.0612 130.977 56.0488C130.905 56.0364 130.831 56.039 130.759 56.0563C130.688 56.0736 130.621 56.1053 130.562 56.1495C130.47 56.2582 130.417 56.394 130.409 56.5361C130.382 56.8266 130.429 57.1194 130.546 57.3865C130.664 57.6537 130.848 57.8863 131.081 58.0622C130.87 58.4984 130.538 58.8652 130.125 59.1194C129.712 59.3735 129.236 59.5044 128.751 59.4967C128.445 59.504 128.146 59.4031 127.907 59.2118C127.756 59.057 127.644 58.8687 127.581 58.6624C127.001 57.0346 127.886 55.2949 128.1 53.5755C128.12 52.9683 128.219 52.3664 128.395 51.7849C128.584 51.3741 128.842 50.9989 129.158 50.6759C130.108 49.5354 131.365 48.6915 132.78 48.2444C134.143 47.8679 136.849 48.0612 137.918 49.1397C138.16 49.4483 138.313 49.8174 138.361 50.207C138.408 50.5965 138.347 50.9916 138.186 51.3493C138.024 51.7069 137.768 52.0134 137.444 52.2355C137.121 52.4576 136.743 52.5868 136.351 52.609V52.609Z" fill="#FF681C"/>
<path d="M135.751 207.059V188.024C138.253 182.591 143.188 186.294 143.188 186.294C143.958 187.101 144.953 187.659 146.043 187.896C147.133 188.133 148.27 188.038 149.306 187.623C150.341 187.208 151.229 186.493 151.855 185.568C152.48 184.644 152.814 183.554 152.814 182.438C152.814 181.322 152.48 180.232 151.855 179.308C151.229 178.384 150.341 177.668 149.306 177.253C148.27 176.838 147.133 176.743 146.043 176.98C144.953 177.217 143.958 177.775 143.188 178.582C138.528 181.634 135.751 176.853 135.751 176.853V157.807H154.786C154.786 157.807 159.608 155.03 156.516 150.37C155.708 149.6 155.15 148.605 154.913 147.515C154.676 146.424 154.772 145.288 155.186 144.252C155.601 143.216 156.317 142.329 157.241 141.703C158.165 141.078 159.256 140.744 160.371 140.744C161.487 140.744 162.578 141.078 163.502 141.703C164.426 142.329 165.141 143.216 165.556 144.252C165.971 145.288 166.066 146.424 165.83 147.515C165.593 148.605 165.035 149.6 164.227 150.37C164.227 150.37 160.524 155.304 165.957 157.807H184.992V207.059H135.751Z" fill="url(#paint6_linear)"/>
<path d="M99.2772 206.042H95.8384L131.04 113.093C131.158 112.793 131.364 112.536 131.631 112.354C131.898 112.173 132.213 112.076 132.536 112.076V112.076C132.796 112.075 133.053 112.138 133.283 112.259C133.514 112.38 133.712 112.555 133.86 112.769C134.008 112.983 134.102 113.23 134.134 113.489C134.165 113.747 134.134 114.009 134.041 114.253L99.2772 206.042Z" fill="#404D9E"/>
<path d="M119.9 206.042H116.461L152.049 112.055H155.488L119.9 206.042Z" fill="#404D9E"/>
<path d="M146.494 126.736H128.303L129.219 124.315H147.41L146.494 126.736Z" fill="#404D9E"/>
<path d="M140.899 141.499H122.708L123.633 139.077H141.824L140.899 141.499Z" fill="#404D9E"/>
<path d="M135.313 156.261H117.122L118.038 153.829H136.229L135.313 156.261Z" fill="#404D9E"/>
<path d="M129.728 171.013H111.537L112.452 168.591H130.643L129.728 171.013Z" fill="#404D9E"/>
<path d="M124.132 185.775H105.941L106.867 183.354H125.048L124.132 185.775Z" fill="#404D9E"/>
<path d="M129.31 126.736L124.63 139.077H141.855L140.939 141.498H123.745L119.076 153.829H136.259L135.344 156.25H118.129L113.46 168.591H130.664L129.748 171.013H112.544L107.864 183.354H125.058L124.132 185.775H106.948L99.2772 206.041H95.8384L131.04 113.093C131.193 112.774 131.447 112.514 131.762 112.354C132.077 112.194 132.437 112.143 132.785 112.207C133.132 112.272 133.449 112.45 133.685 112.713C133.922 112.976 134.065 113.31 134.092 113.663C134.092 113.857 134.058 114.05 133.99 114.232L130.175 124.315H147.359L146.443 126.736H129.31Z" fill="url(#paint7_linear)"/>
<path d="M119.9 206.042H116.461L152.049 112.055H155.488L119.9 206.042Z" fill="url(#paint8_linear)"/>
<path d="M290.506 125.678C289.997 126.108 289.388 126.402 288.735 126.533C288.136 126.558 287.538 126.45 286.985 126.217L278.521 123.399C277.881 123.897 277.454 124.62 277.326 125.42C277.197 126.22 277.377 127.04 277.829 127.713C278.659 128.622 279.738 129.266 280.932 129.565L286.741 131.65C288.082 132.277 289.545 132.597 291.025 132.588C292.505 132.579 293.964 132.242 295.297 131.599C297.027 131.019 298.93 130.297 299.764 128.669C300.598 127.041 299.988 124.885 300.232 122.982C300.553 121.774 300.781 120.542 300.913 119.299C300.913 118.231 300.039 116.623 298.767 116.847C297.668 117.041 296.935 118.953 296.356 119.757C294.721 122.019 292.748 124.016 290.506 125.678V125.678Z" fill="white"/>
<path d="M277.463 122.921C277.374 122.692 277.239 122.484 277.066 122.311C276.98 122.223 276.871 122.163 276.752 122.138C276.632 122.113 276.508 122.123 276.394 122.168C276.283 122.236 276.194 122.335 276.136 122.452C276.079 122.569 276.055 122.7 276.069 122.829C276.077 122.875 276.076 122.922 276.065 122.968C276.055 123.013 276.035 123.056 276.008 123.094C275.947 123.155 275.835 123.094 275.743 123.094C274.787 122.911 273.81 122.768 272.834 122.667C272.729 122.646 272.62 122.653 272.52 122.689C272.419 122.725 272.33 122.788 272.262 122.87C272.194 122.953 272.15 123.052 272.134 123.158C272.118 123.264 272.132 123.372 272.172 123.47C272.278 123.794 272.44 124.097 272.65 124.366C273.149 125.18 273.332 126.248 274.126 126.777C274.611 127.061 275.175 127.178 275.733 127.113C276.293 127.113 276.842 126.98 277.402 127.011C277.772 127.09 278.157 127.047 278.5 126.889C278.629 126.793 278.73 126.666 278.796 126.52C278.862 126.374 278.89 126.214 278.877 126.055C278.818 125.552 278.64 125.071 278.358 124.651C278.043 124.101 277.748 123.511 277.463 122.921Z" fill="#FDB9A9"/>
<path d="M301.066 186.64C297.831 185.908 298.462 190.496 297.607 192.205C297.066 193.083 296.378 193.861 295.572 194.504C294.779 195.165 294.26 196.097 294.117 197.119C294.098 197.309 294.137 197.501 294.229 197.669C294.394 197.87 294.625 198.007 294.88 198.055C296.73 198.595 298.717 198.398 300.425 197.506C301.225 197.129 301.889 196.514 302.328 195.746C302.682 194.917 302.849 194.021 302.816 193.121C302.918 191.208 303.772 187.24 301.066 186.64Z" fill="#FDB9A9"/>
<path d="M298.197 196.102C298.197 196.102 288.979 196.498 292.886 199.388C296.793 202.277 302.623 198.686 303.192 198.024C303.762 197.363 303.294 196.234 303.294 196.234L298.197 196.102Z" fill="#404D9E"/>
<path d="M302.785 197.373C301.972 198.391 297.638 199.724 295.715 199.581C293.792 199.439 292.072 198.564 292.266 197.312C292.459 196.061 295.837 193.182 296.478 193.192C297.119 193.202 297.617 194.677 298.899 194.983C299.472 195.078 300.059 195.025 300.606 194.829C301.153 194.633 301.64 194.301 302.022 193.863C302.137 193.711 302.299 193.6 302.484 193.551C302.668 193.501 302.864 193.514 303.04 193.589C303.308 194.193 303.425 194.853 303.381 195.512C303.336 196.172 303.132 196.811 302.785 197.373Z" fill="white"/>
<path d="M312.186 188.451C308.951 187.698 309.582 192.296 308.727 193.996C308.186 194.876 307.498 195.658 306.692 196.305C305.9 196.962 305.381 197.89 305.237 198.909C305.221 199.103 305.259 199.297 305.349 199.469C305.517 199.667 305.746 199.803 306 199.856C307.851 200.392 309.836 200.195 311.545 199.306C312.344 198.922 313.007 198.305 313.448 197.536C313.801 196.711 313.967 195.818 313.936 194.921C314.038 192.988 314.892 189.031 312.186 188.451Z" fill="#FDB9A9"/>
<path d="M309.317 197.872C309.317 197.872 300.1 198.259 304.006 201.168C307.913 204.078 313.743 200.456 314.312 199.795C314.882 199.134 314.414 198.004 314.414 198.004L309.317 197.872Z" fill="#404D9E"/>
<path d="M313.906 199.123C313.092 200.141 308.758 201.484 306.835 201.341C304.912 201.199 303.192 200.324 303.386 199.072C303.579 197.821 306.957 194.942 307.598 195.003C308.239 195.064 308.737 196.488 310.019 196.783C310.591 196.881 311.178 196.83 311.725 196.635C312.272 196.441 312.76 196.11 313.142 195.674C313.256 195.52 313.418 195.409 313.603 195.359C313.788 195.309 313.984 195.323 314.16 195.4C314.418 195.996 314.529 196.645 314.485 197.292C314.441 197.94 314.242 198.568 313.906 199.123Z" fill="white"/>
<path d="M303.833 146.605L308.167 192.225L314.414 191.452C316.886 180.322 316.276 147.023 316.276 147.023L303.833 146.605Z" fill="#473F47"/>
<path d="M308.167 145.375L303.833 190.984L297.566 190.211C293.995 161.358 296.946 143.411 296.946 143.411L308.167 145.375Z" fill="#473F47"/>
<path d="M297.515 128.883C297.434 128.049 297.21 127.214 297.129 126.36C296.925 124.641 296.956 122.902 297.22 121.191C297.515 119.366 298.066 117.592 298.858 115.921C299.571 114.477 300.893 113.887 302.338 113.134C303.567 112.473 304.898 112.022 306.275 111.801C307.244 111.712 308.221 111.767 309.175 111.964C312.125 112.523 316.001 113.998 318.016 116.369C319.532 118.109 319.705 120.611 319.756 122.921C319.817 126.105 319.756 129.29 319.552 132.474C319.552 132.932 319.501 133.39 319.461 133.858C319.296 137.401 318.761 140.916 317.863 144.347C317.695 145.419 317.114 146.383 316.246 147.033C313.936 148.376 310.416 147.633 307.923 147.287C304.617 146.819 301.229 146.331 298.299 144.724C297.691 144.463 297.199 143.989 296.915 143.391C296.769 142.638 296.865 141.858 297.19 141.163C298.207 137.907 297.414 134.478 297.414 131.152C297.414 130.551 297.485 129.941 297.485 129.33C297.515 129.188 297.515 129.035 297.515 128.883Z" fill="white"/>
<path d="M307.893 134.774C308.677 135.262 309.542 135.606 310.446 135.791C313.143 136.574 315.91 136.992 318.586 137.826C318.768 137.861 318.936 137.946 319.074 138.07C319.183 138.239 319.233 138.439 319.216 138.64C319.229 139.423 319.112 140.204 318.87 140.949C318.792 141.321 318.578 141.651 318.27 141.875C317.879 142.017 317.45 142.017 317.059 141.875L306.977 139.739C306.256 139.554 305.514 139.465 304.769 139.474C303.888 139.577 303.022 139.792 302.195 140.115C300.649 140.61 299.058 140.951 297.444 141.132C297.53 139.208 297.765 137.293 298.146 135.404C298.294 134.846 298.506 134.307 298.777 133.797C299.102 133.293 299.485 132.829 299.916 132.413C301.544 130.714 302.674 128.588 304.322 126.889C305.187 125.994 306.265 125.424 307.028 124.468C307.333 124.081 309.978 120.754 309.724 120.398C310.233 121.029 311.494 120.398 311.952 121.049C312.237 121.456 311.952 122.005 311.688 122.423C309.738 125.687 308.378 129.268 307.669 133.003C307.466 133.868 307.16 134.173 307.893 134.774Z" fill="url(#paint9_linear)"/>
<path d="M299.672 93.0099C300.608 93.6108 301.342 94.4773 301.782 95.4983C302.222 96.5193 302.348 97.6483 302.142 98.741C301.937 99.8336 301.41 100.84 300.629 101.632C299.849 102.423 298.849 102.964 297.76 103.184C297.76 103.184 291.981 105.361 295.226 110.387L311.281 120.612L301.107 136.666C296.081 139.911 293.904 134.133 293.904 134.133C293.685 133.042 293.145 132.041 292.353 131.26C291.561 130.478 290.553 129.952 289.459 129.748C288.365 129.544 287.235 129.672 286.215 130.116C285.194 130.559 284.33 131.298 283.733 132.237C283.135 133.176 282.833 134.272 282.864 135.384C282.895 136.496 283.258 137.574 283.907 138.478C284.555 139.382 285.46 140.072 286.503 140.458C287.547 140.844 288.682 140.909 289.763 140.644C295.359 140.532 295.114 146.097 295.114 146.097L284.94 162.152L243.39 135.699L253.513 119.788C258.539 116.552 260.716 122.321 260.716 122.321C260.932 123.416 261.471 124.421 262.263 125.207C263.055 125.993 264.065 126.524 265.162 126.731C266.258 126.938 267.392 126.811 268.416 126.368C269.44 125.924 270.308 125.184 270.908 124.243C271.507 123.301 271.811 122.202 271.78 121.086C271.749 119.971 271.384 118.89 270.733 117.984C270.082 117.077 269.174 116.386 268.127 116.001C267.08 115.615 265.941 115.552 264.857 115.82C259.262 115.932 259.516 110.367 259.516 110.367L269.832 94.1493L285.897 104.384C285.897 104.384 291.462 104.628 291.35 99.0328C291.172 98.2979 291.144 97.5347 291.266 96.7886C291.388 96.0424 291.659 95.3283 292.062 94.6886C292.864 93.4744 294.106 92.6201 295.527 92.3067C296.948 91.9933 298.434 92.2455 299.672 93.0099Z" fill="#404D9E"/>
<path d="M324.446 125.902C324.862 126.628 325.203 127.395 325.463 128.191C325.792 129.586 325.826 131.034 325.565 132.443C325.442 133.825 324.946 135.147 324.13 136.269C322.411 138.304 319.338 138.497 316.673 138.243C313.647 137.963 310.659 137.363 307.76 136.452C307.491 136.391 307.238 136.273 307.018 136.106C306.783 135.84 306.622 135.517 306.55 135.17C306.328 134.327 306.181 133.465 306.112 132.596C309.164 131.721 312.542 132.433 315.727 131.965C315.944 131.964 316.157 131.912 316.35 131.812C316.542 131.711 316.708 131.567 316.834 131.39C316.959 131.213 317.04 131.008 317.071 130.793C317.101 130.578 317.08 130.359 317.009 130.154C316.856 128.364 315.747 126.797 315.228 125.067C314.72 123.403 314.763 121.619 315.35 119.98C315.525 119.403 315.823 118.87 316.224 118.419C316.624 117.968 317.117 117.608 317.67 117.366C318.942 116.949 319.43 117.946 320.132 118.882C321.748 121.107 323.19 123.454 324.446 125.902V125.902Z" fill="white"/>
<path d="M304.841 131.457C304.721 131.359 304.577 131.296 304.423 131.273C304.306 131.286 304.195 131.329 304.1 131.399C304.005 131.468 303.931 131.562 303.884 131.67C303.795 131.89 303.693 132.104 303.579 132.311C303.426 132.481 303.237 132.614 303.026 132.7C302.814 132.786 302.586 132.824 302.358 132.81C301.901 132.764 301.441 132.764 300.985 132.81C300.816 132.844 300.658 132.921 300.527 133.034C300.402 133.156 300.314 133.311 300.273 133.481C300.195 133.827 300.205 134.186 300.301 134.527C300.396 134.868 300.576 135.18 300.822 135.435C301.319 135.938 301.929 136.315 302.602 136.533C303.289 136.837 304.05 136.929 304.79 136.798C305.195 136.68 305.582 136.505 305.939 136.279L307.425 135.455C307.549 135.396 307.659 135.313 307.75 135.211C308.076 134.804 307.628 133.583 307.333 133.176C306.591 132.484 305.751 131.905 304.841 131.457V131.457Z" fill="#FDB9A9"/>
<path d="M303.844 107.182C303.844 106.307 303.915 105.422 304.006 104.567C304.098 103.712 304.21 103.041 304.352 102.288C304.362 102.065 304.42 101.847 304.521 101.649C304.623 101.45 304.767 101.276 304.942 101.138C306.118 100.436 307.47 100.083 308.839 100.121C309.357 100.085 309.876 100.156 310.365 100.331C310.854 100.507 311.301 100.781 311.677 101.138C312.137 101.723 312.41 102.432 312.461 103.173C312.508 105.099 312.317 107.023 311.891 108.901C311.676 110.376 311.598 111.868 311.657 113.357C310.936 113.837 310.108 114.13 309.246 114.212C308.845 114.208 308.447 114.143 308.066 114.019C307.854 113.971 307.666 113.848 307.537 113.673C307.491 113.51 307.491 113.337 307.537 113.174C307.547 113.018 307.547 112.862 307.537 112.706C307.596 111.835 307.579 110.96 307.486 110.091C307.488 110.054 307.481 110.016 307.467 109.981C307.453 109.946 307.432 109.914 307.404 109.888C307.349 109.868 307.287 109.868 307.231 109.888H306.987C306.554 109.934 306.118 109.934 305.685 109.888C305.164 109.837 304.68 109.598 304.322 109.217C303.908 108.624 303.737 107.896 303.844 107.182V107.182Z" fill="#FDB9A9"/>
<path d="M305.654 101.607C305.349 101.607 305.075 101.769 304.81 101.607C304.533 101.377 304.29 101.11 304.088 100.813C303.602 100.168 303.363 99.3704 303.416 98.5647C303.435 98.2001 303.555 97.8479 303.762 97.5473C303.988 97.2738 304.278 97.0606 304.607 96.9267C305.238 96.616 305.94 96.479 306.641 96.5299C307.658 96.662 308.606 97.1146 309.348 97.822C309.504 97.985 309.695 98.1103 309.907 98.1883C310.102 98.2291 310.303 98.2291 310.497 98.1883C311.785 98.0799 313.064 98.4736 314.068 99.287C314.638 99.7855 315.086 100.427 315.676 100.864C316.266 101.301 316.846 101.464 317.151 102.024C317.278 102.284 317.33 102.575 317.299 102.863C317.269 103.151 317.157 103.424 316.978 103.652C316.599 104.098 316.078 104.4 315.503 104.506C315.566 104.672 315.596 104.848 315.59 105.025C315.584 105.202 315.543 105.377 315.469 105.538C315.395 105.699 315.29 105.843 315.159 105.963C315.029 106.083 314.876 106.176 314.709 106.236C314.474 106.272 314.247 106.347 314.038 106.46C313.895 106.572 313.834 106.744 313.692 106.856C313.356 107.131 312.919 107.223 312.776 107.691C312.734 107.888 312.717 108.089 312.725 108.291C312.701 108.589 312.579 108.872 312.379 109.095C312.247 109.237 312.013 109.593 311.82 109.634C311.627 109.675 311.454 109.441 311.393 109.237C311.154 108.374 311.215 107.456 311.565 106.633C311.817 106.235 311.964 105.78 311.993 105.31C311.993 104.842 311.321 104.476 310.975 104.75C310.63 105.025 310.609 105.686 310.243 105.554C310.47 104.897 310.453 104.179 310.196 103.533C309.938 102.887 309.456 102.355 308.839 102.034C308.154 101.824 307.439 101.725 306.723 101.739C306.388 101.668 306.047 101.631 305.705 101.627L305.654 101.607Z" fill="#473F47"/>
<path d="M306.987 109.909C307.998 109.716 308.986 109.423 309.938 109.034C310.024 109.835 309.831 110.642 309.392 111.319C308.952 111.995 308.294 112.499 307.527 112.747V112.747C307.603 111.877 307.603 111.002 307.527 110.132C307.526 110.057 307.497 109.984 307.445 109.929C307.389 109.909 307.328 109.909 307.272 109.929H307.038L306.987 109.909Z" fill="#DE9F93"/>
<path d="M275.133 117.224C275.287 117.445 275.387 117.699 275.424 117.966C275.461 118.233 275.435 118.505 275.347 118.76C275.17 119.269 274.912 119.747 274.583 120.174L272.986 122.534C272.569 123.145 271.969 123.837 271.267 123.776C269.517 123.654 268.744 119.116 269.395 117.773C270.148 116.094 273.983 115.789 275.133 117.224Z" fill="#FDB9A9"/>
<path d="M283.374 157.807V207.059H234.132V188.013C234.132 188.013 236.91 183.191 241.569 186.284C242.34 187.091 243.334 187.649 244.424 187.886C245.515 188.123 246.651 188.028 247.687 187.613C248.723 187.198 249.611 186.482 250.236 185.558C250.861 184.634 251.196 183.544 251.196 182.428C251.196 181.312 250.861 180.222 250.236 179.298C249.611 178.374 248.723 177.658 247.687 177.243C246.651 176.828 245.515 176.733 244.424 176.97C243.334 177.207 242.34 177.765 241.569 178.572C241.569 178.572 236.635 182.275 234.132 176.843V157.807H253.167C258.6 155.304 254.897 150.37 254.897 150.37C254.09 149.6 253.532 148.605 253.295 147.515C253.058 146.424 253.153 145.288 253.568 144.252C253.983 143.216 254.698 142.329 255.623 141.703C256.547 141.078 257.637 140.744 258.753 140.744C259.869 140.744 260.959 141.078 261.883 141.703C262.807 142.329 263.523 143.216 263.938 144.252C264.353 145.288 264.448 146.424 264.211 147.515C263.974 148.605 263.416 149.6 262.609 150.37C259.557 155.03 264.338 157.807 264.338 157.807H283.374Z" fill="#404D9E"/>
<path d="M283.374 157.807V207.059H234.132V188.013C234.132 188.013 236.91 183.191 241.569 186.284C242.34 187.091 243.334 187.649 244.424 187.886C245.515 188.123 246.651 188.028 247.687 187.613C248.723 187.198 249.611 186.482 250.236 185.558C250.861 184.634 251.196 183.544 251.196 182.428C251.196 181.312 250.861 180.222 250.236 179.298C249.611 178.374 248.723 177.658 247.687 177.243C246.651 176.828 245.515 176.733 244.424 176.97C243.334 177.207 242.34 177.765 241.569 178.572C241.569 178.572 236.635 182.275 234.132 176.843V157.807H253.167C258.6 155.304 254.897 150.37 254.897 150.37C254.09 149.6 253.532 148.605 253.295 147.515C253.058 146.424 253.153 145.288 253.568 144.252C253.983 143.216 254.698 142.329 255.623 141.703C256.547 141.078 257.637 140.744 258.753 140.744C259.869 140.744 260.959 141.078 261.883 141.703C262.807 142.329 263.523 143.216 263.938 144.252C264.353 145.288 264.448 146.424 264.211 147.515C263.974 148.605 263.416 149.6 262.609 150.37C259.557 155.03 264.338 157.807 264.338 157.807H283.374Z" fill="url(#paint10_linear)"/>
<path d="M201.962 133.176C201.959 134.291 201.622 135.38 200.996 136.303C200.369 137.226 199.481 137.94 198.446 138.354C197.41 138.769 196.275 138.864 195.184 138.629C194.094 138.393 193.099 137.837 192.328 137.032C187.668 133.98 184.891 138.761 184.891 138.761V157.807H234.132V108.555H184.891V127.591C187.393 133.023 192.328 129.32 192.328 129.32C193.099 128.515 194.094 127.959 195.184 127.723C196.275 127.488 197.41 127.583 198.446 127.998C199.481 128.412 200.369 129.126 200.996 130.049C201.622 130.972 201.959 132.061 201.962 133.176V133.176Z" fill="#404D9E"/>
<path d="M205.655 165.244C204.848 166.015 204.29 167.009 204.053 168.099C203.816 169.19 203.911 170.326 204.326 171.362C204.741 172.398 205.457 173.286 206.381 173.911C207.305 174.536 208.395 174.871 209.511 174.871C210.627 174.871 211.717 174.536 212.642 173.911C213.566 173.286 214.281 172.398 214.696 171.362C215.111 170.326 215.206 169.19 214.969 168.099C214.733 167.009 214.174 166.015 213.367 165.244C213.367 165.244 209.664 160.31 215.097 157.807H203.916C203.916 157.807 208.748 160.585 205.655 165.244Z" fill="#404D9E"/>
<path d="M184.891 108.555V127.591C187.393 133.023 192.328 129.32 192.328 129.32C193.098 128.513 194.092 127.955 195.183 127.718C196.273 127.481 197.41 127.576 198.445 127.991C199.481 128.406 200.369 129.122 200.994 130.046C201.62 130.97 201.954 132.06 201.954 133.176C201.954 134.292 201.62 135.382 200.994 136.306C200.369 137.23 199.481 137.946 198.445 138.361C197.41 138.776 196.273 138.871 195.183 138.634C194.092 138.397 193.098 137.839 192.328 137.032C187.668 133.98 184.891 138.761 184.891 138.761V157.807H203.916C203.916 157.807 208.738 160.584 205.645 165.244C204.838 166.014 204.28 167.009 204.043 168.099C203.806 169.19 203.901 170.326 204.316 171.362C204.731 172.398 205.447 173.286 206.371 173.911C207.295 174.536 208.385 174.871 209.501 174.871C210.617 174.871 211.707 174.536 212.631 173.911C213.556 173.286 214.271 172.398 214.686 171.362C215.101 170.326 215.196 169.19 214.959 168.099C214.722 167.009 214.164 166.014 213.357 165.244C213.357 165.244 209.654 160.31 215.087 157.807H234.132V108.555H184.891Z" fill="url(#paint11_linear)"/>
<path d="M184.891 157.807V207.059H234.132V188.013C234.132 188.013 236.91 183.191 241.569 186.284C242.34 187.091 243.334 187.649 244.424 187.886C245.515 188.123 246.651 188.028 247.687 187.613C248.723 187.198 249.611 186.482 250.236 185.558C250.861 184.634 251.196 183.544 251.196 182.428C251.196 181.312 250.861 180.222 250.236 179.298C249.611 178.374 248.723 177.658 247.687 177.243C246.651 176.828 245.515 176.733 244.424 176.97C243.334 177.207 242.34 177.765 241.569 178.572C241.569 178.572 236.635 182.275 234.132 176.842V157.807H215.107C209.674 160.31 213.377 165.244 213.377 165.244C214.185 166.015 214.743 167.009 214.98 168.099C215.217 169.19 215.121 170.326 214.706 171.362C214.292 172.398 213.576 173.286 212.652 173.911C211.728 174.536 210.637 174.871 209.521 174.871C208.406 174.871 207.315 174.536 206.391 173.911C205.467 173.286 204.751 172.398 204.336 171.362C203.922 170.326 203.826 169.19 204.063 168.099C204.3 167.009 204.858 166.015 205.666 165.244C208.718 160.585 203.936 157.807 203.936 157.807H184.891Z" fill="#404D9E"/>
<path d="M135.751 207.059V188.024C138.253 182.591 143.188 186.294 143.188 186.294C143.958 187.101 144.953 187.659 146.043 187.896C147.133 188.133 148.27 188.038 149.306 187.623C150.341 187.208 151.229 186.493 151.855 185.568C152.48 184.644 152.814 183.554 152.814 182.438C152.814 181.322 152.48 180.232 151.855 179.308C151.229 178.384 150.341 177.668 149.306 177.253C148.27 176.838 147.133 176.743 146.043 176.98C144.953 177.217 143.958 177.775 143.188 178.582C138.528 181.634 135.751 176.853 135.751 176.853V157.807H154.786C154.786 157.807 159.608 155.03 156.516 150.37C155.708 149.6 155.15 148.605 154.913 147.515C154.676 146.424 154.772 145.288 155.186 144.252C155.601 143.216 156.317 142.329 157.241 141.703C158.165 141.078 159.256 140.744 160.371 140.744C161.487 140.744 162.578 141.078 163.502 141.703C164.426 142.329 165.141 143.216 165.556 144.252C165.971 145.288 166.066 146.424 165.83 147.515C165.593 148.605 165.035 149.6 164.227 150.37C164.227 150.37 160.524 155.304 165.957 157.807H184.992V207.059H135.751Z" fill="#404D9E"/>
<path d="M135.751 207.059V188.024C138.253 182.591 143.188 186.294 143.188 186.294C143.958 187.101 144.953 187.659 146.043 187.896C147.133 188.133 148.27 188.038 149.306 187.623C150.341 187.208 151.229 186.493 151.855 185.568C152.48 184.644 152.814 183.554 152.814 182.438C152.814 181.322 152.48 180.232 151.855 179.308C151.229 178.384 150.341 177.668 149.306 177.253C148.27 176.838 147.133 176.743 146.043 176.98C144.953 177.217 143.958 177.775 143.188 178.582C138.528 181.634 135.751 176.853 135.751 176.853V157.807H154.786C154.786 157.807 159.608 155.03 156.516 150.37C155.708 149.6 155.15 148.605 154.913 147.515C154.676 146.424 154.772 145.288 155.186 144.252C155.601 143.216 156.317 142.329 157.241 141.703C158.165 141.078 159.256 140.744 160.371 140.744C161.487 140.744 162.578 141.078 163.502 141.703C164.426 142.329 165.141 143.216 165.556 144.252C165.971 145.288 166.066 146.424 165.83 147.515C165.593 148.605 165.035 149.6 164.227 150.37C164.227 150.37 160.524 155.304 165.957 157.807H184.992V207.059H135.751Z" fill="url(#paint12_linear)"/>
<path d="M202.023 133.186C202.02 134.301 201.683 135.39 201.057 136.313C200.43 137.236 199.542 137.95 198.507 138.364C197.471 138.779 196.336 138.874 195.246 138.639C194.155 138.403 193.161 137.847 192.389 137.042C192.389 137.042 187.454 133.339 184.952 138.772V157.807H165.916C160.483 155.304 164.187 150.37 164.187 150.37C164.994 149.6 165.552 148.605 165.789 147.515C166.026 146.424 165.931 145.288 165.516 144.252C165.101 143.216 164.385 142.328 163.461 141.703C162.537 141.078 161.447 140.743 160.331 140.743C159.215 140.743 158.125 141.078 157.2 141.703C156.276 142.328 155.561 143.216 155.146 144.252C154.731 145.288 154.636 146.424 154.873 147.515C155.109 148.605 155.668 149.6 156.475 150.37C159.527 155.029 154.745 157.807 154.745 157.807H135.751V108.555H154.603C160.036 111.058 156.332 115.992 156.332 115.992C155.525 116.763 154.967 117.757 154.73 118.847C154.493 119.938 154.588 121.074 155.003 122.11C155.418 123.146 156.134 124.034 157.058 124.659C157.982 125.284 159.072 125.619 160.188 125.619C161.304 125.619 162.394 125.284 163.319 124.659C164.243 124.034 164.958 123.146 165.373 122.11C165.788 121.074 165.883 119.938 165.646 118.847C165.41 117.757 164.851 116.763 164.044 115.992C160.992 111.333 165.774 108.555 165.774 108.555H184.992V127.601C184.992 127.601 187.77 132.423 192.429 129.33C193.201 128.525 194.196 127.969 195.286 127.734C196.376 127.498 197.512 127.593 198.548 128.008C199.583 128.422 200.471 129.137 201.098 130.059C201.724 130.982 202.061 132.071 202.064 133.186H202.023Z" fill="#404D9E"/>
<path d="M214.089 227.824C214.107 228.941 213.79 230.037 213.178 230.972C212.566 231.906 211.688 232.636 210.657 233.066C209.627 233.497 208.49 233.609 207.396 233.387C206.301 233.165 205.298 232.62 204.516 231.822C204.516 231.822 199.531 228.19 197.109 233.654L197.384 252.689L178.349 252.964C172.875 250.542 176.507 245.557 176.507 245.557C177.3 244.776 177.84 243.775 178.059 242.684C178.278 241.593 178.165 240.461 177.736 239.434C177.306 238.408 176.579 237.533 175.648 236.923C174.717 236.313 173.625 235.996 172.512 236.012C171.399 236.028 170.317 236.377 169.404 237.014C168.491 237.65 167.789 238.546 167.39 239.584C166.99 240.623 166.91 241.758 167.161 242.842C167.411 243.926 167.98 244.911 168.795 245.669C171.959 250.278 167.178 253.126 167.178 253.126L148.142 253.401L147.43 204.149L166.282 203.885C171.756 206.306 168.124 211.291 168.124 211.291C167.331 212.073 166.791 213.073 166.572 214.165C166.353 215.256 166.466 216.388 166.895 217.414C167.325 218.441 168.052 219.315 168.983 219.925C169.914 220.535 171.006 220.852 172.119 220.836C173.232 220.82 174.314 220.471 175.227 219.835C176.14 219.198 176.842 218.303 177.241 217.264C177.641 216.225 177.721 215.091 177.47 214.006C177.22 212.922 176.651 211.937 175.836 211.179C172.672 206.571 177.453 203.722 177.453 203.722L196.672 203.447L196.946 222.493C196.946 222.493 199.795 227.275 204.404 224.11C204.927 223.553 205.556 223.107 206.256 222.799C206.955 222.492 207.709 222.329 208.473 222.32C209.947 222.309 211.365 222.882 212.417 223.913C213.469 224.945 214.071 226.351 214.089 227.824V227.824Z" fill="#404D9E"/>
<path d="M154.328 204.332C153.646 205.085 153.117 206.744 154.196 207.446C154.582 207.654 155.009 207.772 155.447 207.791L161.206 208.493C161.033 208.493 164.044 242.423 165.224 249.637C165.367 250.491 165.723 251.559 166.588 251.671C166.847 251.656 167.099 251.58 167.323 251.449C167.548 251.318 167.738 251.136 167.88 250.919C168.711 249.616 169.185 248.118 169.253 246.574C170.684 235.499 171.363 224.34 171.288 213.173C171.288 210.966 171.207 208.656 170.108 206.733C169.433 205.687 168.548 204.793 167.51 204.106C166.471 203.42 165.302 202.956 164.075 202.745C160.788 202.002 156.719 201.667 154.328 204.332Z" fill="url(#paint13_linear)"/>
<path d="M168.185 274.756V274.888C168.429 275.509 169.202 275.712 169.853 275.794C170.468 275.861 171.087 275.888 171.705 275.875C172.002 275.886 172.298 275.845 172.58 275.753C172.839 275.639 173.082 275.492 173.302 275.316L175.083 273.993C175.583 273.648 176.041 273.245 176.446 272.792C176.847 272.327 177.058 271.728 177.036 271.114C177.015 270.81 176.901 270.521 176.71 270.284C176.519 270.048 176.26 269.876 175.968 269.791C175.596 269.746 175.22 269.746 174.849 269.791C174.435 269.844 174.016 269.776 173.64 269.596C173.265 269.415 172.949 269.13 172.733 268.774C172.659 268.442 172.481 268.142 172.224 267.919C171.965 267.793 171.671 267.757 171.39 267.817C170.772 267.848 170.162 267.968 169.579 268.173C169.285 268.279 169.018 268.449 168.798 268.67C168.578 268.892 168.41 269.16 168.307 269.455C168.245 269.729 168.217 270.009 168.226 270.29C168.261 270.869 168.261 271.45 168.226 272.029C168.144 272.752 168.104 273.479 168.104 274.207C168.109 274.392 168.137 274.577 168.185 274.756V274.756Z" fill="#262836"/>
<path d="M185.45 274.99C184.251 275.539 183.018 276.008 181.757 276.394C181.255 276.61 180.693 276.643 180.17 276.485C179.965 276.386 179.783 276.244 179.637 276.068C179.492 275.893 179.385 275.688 179.325 275.468C179.216 275.019 179.171 274.556 179.193 274.095C179.271 273.38 179.418 272.675 179.631 271.989C179.743 271.348 179.834 270.707 179.915 270.066C180.048 269.14 180.17 268.224 180.282 267.309L183.487 267.99C183.822 268.061 184.138 269.354 184.341 269.628C184.49 269.831 184.683 269.997 184.905 270.115C185.126 270.233 185.372 270.299 185.623 270.31C186.169 270.231 186.72 270.187 187.271 270.178C187.627 270.261 187.945 270.46 188.175 270.744C188.405 271.027 188.535 271.379 188.543 271.744C188.54 272.107 188.462 272.466 188.313 272.797C188.164 273.128 187.948 273.424 187.678 273.667C187.139 274.156 186.519 274.548 185.847 274.827L185.45 274.99Z" fill="#262836"/>
<path d="M185.501 271.409C184.66 271.887 183.786 272.305 182.886 272.66H182.805C181.319 273.24 179.661 270.91 179.661 270.91C179.661 270.91 177.565 257.969 177.626 252.597C177.698 248.914 176.823 243.665 175.51 234.142C175.185 243.868 173.536 248.141 173.954 251.631C174.594 256.931 173.831 270.097 173.831 270.097C173.831 270.097 172.427 272.66 170.891 272.314H170.8C169.875 272.104 168.967 271.825 168.083 271.48C168.083 271.48 166.293 253.35 166.293 248.569C166.293 243.787 166.496 239.504 166.496 239.504L165.56 224.365L169.548 218.566L169.874 218.434L170.179 218.128L174.605 214.883C174.605 214.883 174.605 215.636 174.523 216.918L177.962 218.759L178.288 219.003L178.623 219.085L184.382 220.102C184.382 220.102 185.887 243.329 186.417 248.08C186.946 252.831 185.501 271.409 185.501 271.409Z" fill="#404D9E"/>
<path d="M185.501 271.409C184.66 271.887 183.786 272.305 182.886 272.66H182.805C181.319 273.24 179.661 270.91 179.661 270.91C179.661 270.91 177.565 257.969 177.626 252.597C177.698 248.914 176.823 243.665 175.51 234.142C175.185 243.868 173.536 248.141 173.954 251.631C174.594 256.931 173.831 270.097 173.831 270.097C173.831 270.097 172.427 272.66 170.891 272.314H170.8C169.875 272.104 168.967 271.825 168.083 271.48C168.083 271.48 166.293 253.35 166.293 248.569C166.293 243.787 166.496 239.504 166.496 239.504L165.56 224.365L169.548 218.566L169.874 218.434L170.179 218.128L174.605 214.883C174.605 214.883 174.605 215.636 174.523 216.918L177.962 218.759L178.288 219.003L178.623 219.085L184.382 220.102C184.382 220.102 185.887 243.329 186.417 248.08C186.946 252.831 185.501 271.409 185.501 271.409Z" fill="url(#paint14_linear)"/>
<path d="M212.604 190.445C212.676 190.394 212.761 190.366 212.848 190.364C213.082 190.364 213.093 190.74 213.011 190.964C212.798 191.588 212.489 192.175 212.095 192.704C211.968 192.836 211.892 193.009 211.882 193.192C211.882 193.375 212.045 193.508 212.167 193.64C212.541 194.074 212.807 194.591 212.943 195.148C213.079 195.705 213.082 196.286 212.95 196.845C212.668 197.959 212.088 198.975 211.271 199.785C211.075 200.035 210.831 200.244 210.553 200.399C210.275 200.555 209.97 200.654 209.654 200.69C208.555 200.69 207.181 199.337 206.744 198.401C206.585 197.934 206.55 197.433 206.642 196.948C206.735 196.462 206.953 196.01 207.273 195.634C208.571 193.472 210.408 191.684 212.604 190.445V190.445Z" fill="#A67C52"/>
<path d="M180.729 179.763C181.085 180.129 181.635 180.505 181.482 180.983C181.401 181.238 181.126 181.39 180.923 181.574C180.421 182.106 180.15 182.816 180.17 183.547C180.191 184.275 180.088 185.001 179.865 185.694C179.738 186.037 179.496 186.325 179.181 186.511C178.866 186.696 178.496 186.767 178.135 186.711C177.718 186.599 177.301 186.233 176.894 186.406C176.487 186.579 176.487 186.915 176.324 187.2C176.102 187.55 175.786 187.832 175.412 188.011C175.038 188.191 174.62 188.263 174.208 188.217C173.392 188.094 172.605 187.822 171.888 187.413C171.584 187.292 171.319 187.088 171.125 186.823C171.007 186.565 170.978 186.275 171.044 185.999C171.295 185.171 171.707 184.4 172.255 183.73C173.132 182.378 173.66 180.83 173.791 179.223C173.872 178.104 173.791 176.873 174.513 176.008C175.531 174.828 177.84 174.838 179.051 175.703C180.261 176.568 179.61 178.613 180.729 179.763Z" fill="#A67C52"/>
<path d="M179.285 174.696C179.143 174.974 178.929 175.21 178.664 175.377C178.125 175.693 177.647 176.059 177.158 176.395C176.666 176.719 176.319 177.223 176.192 177.799C175.978 178.816 176.548 179.976 176.192 181.003C176.06 181.217 175.724 181.085 175.592 180.881C175.459 180.678 175.378 180.423 175.174 180.301C174.818 180.098 174.391 180.444 174.238 180.82C174.081 181.258 174.099 181.74 174.288 182.165C174.478 182.589 174.825 182.924 175.256 183.099C175.205 183.425 174.788 183.557 174.452 183.516C174.121 183.425 173.778 183.381 173.435 183.384C172.672 183.527 172.417 184.615 171.624 184.727C171.361 184.71 171.106 184.632 170.878 184.499C170.651 184.367 170.457 184.184 170.311 183.964L169.386 182.947C169.236 182.749 169.073 182.562 168.897 182.387C168.684 182.224 168.338 182.214 168.165 182.021C167.992 181.827 168.165 181.37 167.982 181.125C167.895 181.035 167.786 180.968 167.666 180.932C167.4 180.798 167.188 180.576 167.066 180.303C166.943 180.031 166.918 179.725 166.995 179.437C167.019 179.364 167.019 179.285 166.995 179.213C166.995 179.111 166.852 179.07 166.75 179.02C166.47 178.838 166.263 178.561 166.168 178.24C166.073 177.92 166.095 177.575 166.232 177.27C166.386 176.919 166.608 176.601 166.883 176.334C166.98 176.184 167.118 176.065 167.28 175.992C167.442 175.918 167.622 175.892 167.798 175.916L167.951 174.584C167.947 174.358 167.994 174.134 168.087 173.929C168.18 173.723 168.318 173.54 168.49 173.394C168.663 173.248 168.865 173.143 169.083 173.084C169.301 173.026 169.53 173.017 169.752 173.058L169.447 171.959C169.391 171.818 169.391 171.662 169.447 171.521C169.53 171.424 169.646 171.359 169.772 171.338C170.127 171.237 170.492 171.176 170.861 171.155C170.729 170.847 170.626 170.527 170.556 170.199C170.532 170.152 170.524 170.099 170.531 170.046C170.538 169.994 170.56 169.945 170.595 169.906C170.63 169.867 170.676 169.839 170.727 169.826C170.778 169.813 170.832 169.815 170.881 169.832C171.016 169.853 171.153 169.853 171.288 169.832C171.288 169.832 171.085 168.896 171.074 168.815C171.013 168.521 171.067 168.215 171.227 167.96C171.338 167.834 171.479 167.737 171.637 167.678C171.795 167.62 171.966 167.601 172.132 167.625C172.463 167.683 172.78 167.8 173.068 167.971C173.068 167.615 173.506 167.431 173.862 167.401C174.548 167.362 175.232 167.498 175.851 167.795C176.47 168.092 177.004 168.541 177.403 169.1C177.468 169.198 177.543 169.29 177.626 169.375C177.789 169.478 177.968 169.554 178.155 169.598C178.444 169.726 178.701 169.917 178.907 170.156C179.113 170.395 179.263 170.678 179.346 170.982C179.498 171.587 179.56 172.211 179.529 172.834C179.552 173.312 179.508 173.792 179.397 174.258C179.376 174.408 179.339 174.555 179.285 174.696Z" fill="#2F3554"/>
<path d="M174.228 186.233C175.076 186.588 175.898 186.999 176.69 187.464C176.935 187.595 177.147 187.78 177.311 188.003C177.399 188.126 177.452 188.27 177.467 188.42C177.481 188.57 177.455 188.721 177.392 188.858C177.179 189.234 176.67 189.102 176.283 188.96C174.491 188.351 172.599 188.089 170.708 188.187C170.582 188.207 170.452 188.193 170.333 188.144C170.215 188.096 170.112 188.015 170.037 187.912C169.993 187.787 169.976 187.654 169.989 187.523C170.001 187.391 170.042 187.263 170.108 187.149C171.074 185.206 172.651 185.521 174.228 186.233Z" fill="white"/>
<path d="M209.053 201.23C208.686 202.143 208.143 202.976 207.456 203.681C206.795 204.424 206.113 205.136 205.421 205.828C203.75 207.444 201.987 208.962 200.141 210.376C198.887 211.484 197.393 212.285 195.777 212.716C195.121 212.869 194.435 212.827 193.803 212.594C193.289 212.337 192.824 211.993 192.429 211.576C191.961 211.108 186.528 204.851 186.437 204.851C186.129 205.017 185.89 205.288 185.765 205.614C184.981 207.241 184.495 208.995 184.331 210.793C184.265 211.595 184.265 212.402 184.331 213.204C184.545 215.941 185.501 218.759 184.555 221.343C184.366 221.889 184.052 222.384 183.639 222.788C183.241 223.136 182.782 223.409 182.286 223.592C181.409 223.951 180.494 224.21 179.559 224.365C179.025 224.463 178.485 224.521 177.942 224.538C175.907 224.619 173.974 224.233 171.98 224.324C170.291 224.416 168.612 224.853 166.893 224.792C166.65 224.839 166.4 224.834 166.16 224.775C165.92 224.716 165.696 224.606 165.503 224.452C165.309 224.299 165.151 224.105 165.04 223.884C164.929 223.664 164.867 223.422 164.858 223.175C164.199 219.552 163.859 215.879 163.841 212.197C163.841 210.915 163.77 209.623 163.688 208.341C163.617 207.252 163.912 204.485 162.671 204.272C159.517 203.661 156.241 204.434 153.056 203.987C153.145 201.903 154.03 199.933 155.529 198.483C156.264 197.862 157.062 197.32 157.909 196.865C158.885 196.166 159.761 195.338 160.514 194.403C162.677 191.731 165.418 189.585 168.531 188.126C169.027 187.883 169.549 187.698 170.087 187.576H170.22C170.297 187.567 170.376 187.567 170.454 187.576C171.134 187.519 171.82 187.56 172.489 187.698C177.028 188.451 181.519 189.471 185.938 190.75C186.522 190.881 187.074 191.123 187.566 191.463C187.91 191.773 188.205 192.133 188.441 192.531C189.682 194.403 190.893 196.295 192.144 198.167C193.223 199.775 194.281 201.789 195.868 202.969C199.323 201.565 202.585 199.726 205.574 197.496C205.991 197.18 206.53 196.834 207.009 197.048C207.168 197.119 207.31 197.223 207.426 197.353C208.596 198.371 209.623 199.49 209.053 201.23Z" fill="white"/>
</g>
<defs>
<linearGradient id="paint0_linear" x1="175.256" y1="245.272" x2="177.362" y2="285.754" gradientUnits="userSpaceOnUse">
<stop offset="0.01"/>
<stop offset="0.08" stop-opacity="0.69"/>
<stop offset="0.21" stop-opacity="0.32"/>
<stop offset="1" stop-opacity="0"/>
</linearGradient>
<linearGradient id="paint1_linear" x1="48582" y1="2258.58" x2="48593.3" y2="4801.72" gradientUnits="userSpaceOnUse">
<stop offset="0.01"/>
<stop offset="0.08" stop-opacity="0.69"/>
<stop offset="0.21" stop-opacity="0.32"/>
<stop offset="1" stop-opacity="0"/>
</linearGradient>
<linearGradient id="paint2_linear" x1="-34914.2" y1="16128.5" x2="-34601.5" y2="16250.4" gradientUnits="userSpaceOnUse">
<stop offset="0.01"/>
<stop offset="0.08" stop-opacity="0.69"/>
<stop offset="0.21" stop-opacity="0.32"/>
<stop offset="1" stop-opacity="0"/>
</linearGradient>
<linearGradient id="paint3_linear" x1="191.751" y1="143.728" x2="103.536" y2="-35.3768" gradientUnits="userSpaceOnUse">
<stop offset="0.01"/>
<stop offset="0.08" stop-opacity="0.69"/>
<stop offset="0.21" stop-opacity="0.32"/>
<stop offset="1" stop-opacity="0"/>
</linearGradient>
<linearGradient id="paint4_linear" x1="2632.79" y1="1084.86" x2="2703.25" y2="1592.28" gradientUnits="userSpaceOnUse">
<stop offset="0.01"/>
<stop offset="0.08" stop-opacity="0.69"/>
<stop offset="0.21" stop-opacity="0.32"/>
<stop offset="1" stop-opacity="0"/>
</linearGradient>
<linearGradient id="paint5_linear" x1="-13969.6" y1="-2506.24" x2="-14119" y2="-2397.06" gradientUnits="userSpaceOnUse">
<stop offset="0.01"/>
<stop offset="0.08" stop-opacity="0.69"/>
<stop offset="0.21" stop-opacity="0.32"/>
<stop offset="1" stop-opacity="0"/>
</linearGradient>
<linearGradient id="paint6_linear" x1="8496.98" y1="8617.17" x2="8362.13" y2="20467" gradientUnits="userSpaceOnUse">
<stop offset="0.01"/>
<stop offset="0.08" stop-opacity="0.69"/>
<stop offset="0.21" stop-opacity="0.32"/>
<stop offset="1" stop-opacity="0"/>
</linearGradient>
<linearGradient id="paint7_linear" x1="8518.42" y1="14949.8" x2="3982.76" y2="16377.7" gradientUnits="userSpaceOnUse">
<stop offset="0.01"/>
<stop offset="0.08" stop-opacity="0.69"/>
<stop offset="0.21" stop-opacity="0.32"/>
<stop offset="1" stop-opacity="0"/>
</linearGradient>
<linearGradient id="paint8_linear" x1="5226.66" y1="13689.3" x2="-1037.83" y2="15181.1" gradientUnits="userSpaceOnUse">
<stop offset="0.01"/>
<stop offset="0.08" stop-opacity="0.69"/>
<stop offset="0.21" stop-opacity="0.32"/>
<stop offset="1" stop-opacity="0"/>
</linearGradient>
<linearGradient id="paint9_linear" x1="6555.04" y1="2211.44" x2="7954.76" y2="5526.78" gradientUnits="userSpaceOnUse">
<stop offset="0.01"/>
<stop offset="0.08" stop-opacity="0.69"/>
<stop offset="0.21" stop-opacity="0.32"/>
<stop offset="1" stop-opacity="0"/>
</linearGradient>
<linearGradient id="paint10_linear" x1="8574.68" y1="9078.72" x2="22289.9" y2="16218.5" gradientUnits="userSpaceOnUse">
<stop offset="0.01"/>
<stop offset="0.08" stop-opacity="0.69"/>
<stop offset="0.21" stop-opacity="0.32"/>
<stop offset="1" stop-opacity="0"/>
</linearGradient>
<linearGradient id="paint11_linear" x1="9992.34" y1="16893.6" x2="13884.8" y2="1352.3" gradientUnits="userSpaceOnUse">
<stop offset="0.01"/>
<stop offset="0.08" stop-opacity="0.69"/>
<stop offset="0.21" stop-opacity="0.32"/>
<stop offset="1" stop-opacity="0"/>
</linearGradient>
<linearGradient id="paint12_linear" x1="8593.98" y1="6008.99" x2="7990.51" y2="25718.2" gradientUnits="userSpaceOnUse">
<stop offset="0.01"/>
<stop offset="0.08" stop-opacity="0.69"/>
<stop offset="0.21" stop-opacity="0.32"/>
<stop offset="1" stop-opacity="0"/>
</linearGradient>
<linearGradient id="paint13_linear" x1="2717.84" y1="10780.4" x2="5655.99" y2="11924.1" gradientUnits="userSpaceOnUse">
<stop offset="0.01"/>
<stop offset="0.08" stop-opacity="0.69"/>
<stop offset="0.21" stop-opacity="0.32"/>
<stop offset="1" stop-opacity="0"/>
</linearGradient>
<linearGradient id="paint14_linear" x1="3595.27" y1="13842.7" x2="6070.5" y2="15098.5" gradientUnits="userSpaceOnUse">
<stop offset="0.01"/>
<stop offset="0.08" stop-opacity="0.69"/>
<stop offset="0.21" stop-opacity="0.32"/>
<stop offset="1" stop-opacity="0"/>
</linearGradient>
<clipPath id="clip0">
<rect width="406" height="306" fill="white"/>
</clipPath>
</defs>
</svg>
