<?xml version="1.0" encoding="utf-8"?>
<!-- Generator: Adobe Illustrator 15.0.2, SVG Export Plug-In . SVG Version: 6.00 Build 0)  -->
<!DOCTYPE svg PUBLIC "-//W3C//DTD SVG 1.1//EN" "http://www.w3.org/Graphics/SVG/1.1/DTD/svg11.dtd">
<svg version="1.1" id="레이어_1" xmlns="http://www.w3.org/2000/svg" xmlns:xlink="http://www.w3.org/1999/xlink" x="0px"
	 y="0px" width="201.5px" height="65.25px" viewBox="0 0 201.5 65.25" enable-background="new 0 0 201.5 65.25"
	 xml:space="preserve">
<g>
	<g>
		<g>
			<path fill="#38459A" d="M163.372,48.644L163.372,48.644c-4.848,0-9.449-3.152-11.724-8.028c-1.52-3.256-2.475-8.214-2.435-12.632
				c0.051-5.598,1.688-9.43,4.607-10.792c0.784-0.366,1.654-0.552,2.583-0.552c4.767,0,10.345,4.914,13.675,9.12l0.909,1.148
				l-1.125,0.938c-2.448,2.041-4.607,4.469-5.776,6.49c-2.322,4.024-2.038,8.763,0.707,11.791l2.18,2.404l-3.243,0.106
				C163.611,48.642,163.49,48.644,163.372,48.644z M156.404,19.644c-0.493,0-0.925,0.088-1.313,0.271
				c-1.761,0.82-2.834,3.847-2.872,8.097c-0.038,3.942,0.828,8.498,2.151,11.333c1.329,2.854,3.635,4.954,6.25,5.835
				c-1.701-3.731-1.448-8.338,0.865-12.345c1.147-1.986,3.089-4.278,5.327-6.314C163.269,22.419,159.114,19.644,156.404,19.644z"/>
			<path fill="#38459A" d="M170.915,51.847c-1.971,0-3.896-0.508-5.638-1.514c-1.01-0.584-1.924-1.32-2.708-2.188l2.225-2.018
				c0.576,0.637,1.246,1.176,1.987,1.604c2.102,1.212,4.584,1.438,6.995,0.635c2.448-0.817,4.562-2.592,5.952-5
				c1.563-2.709,2.806-7.177,3.089-11.119c0.311-4.32-0.51-7.377-2.257-8.385c-2.125-1.227-6.323,0.335-10.697,3.983l-1.924-2.308
				c2.649-2.208,9.327-7.045,14.125-4.276c2.821,1.63,4.154,5.608,3.75,11.204c-0.319,4.42-1.686,9.289-3.484,12.404
				c-1.758,3.043-4.457,5.297-7.605,6.346C173.461,51.638,172.18,51.847,170.915,51.847z"/>
		</g>
		<g>
			<g>
				<g>
					<path fill="#38459A" d="M201.199,26.896c-0.052,0-0.104-0.013-0.149-0.041L163.39,5.114c-0.143-0.084-0.192-0.268-0.109-0.411
						c0.084-0.144,0.268-0.192,0.41-0.11l37.659,21.742c0.145,0.083,0.194,0.267,0.108,0.41
						C201.405,26.843,201.304,26.896,201.199,26.896z"/>
					<path fill="#38459A" d="M190.192,16.687c-0.052,0-0.103-0.013-0.15-0.04L169.178,4.601c-0.143-0.083-0.191-0.268-0.11-0.411
						c0.085-0.144,0.268-0.192,0.412-0.11l20.863,12.046c0.143,0.084,0.194,0.268,0.109,0.411
						C190.398,16.634,190.296,16.687,190.192,16.687z"/>
					<path fill="#38459A" d="M185.285,10.159c-0.051,0-0.103-0.013-0.15-0.04L174.364,3.9c-0.143-0.083-0.194-0.268-0.111-0.41
						c0.086-0.144,0.268-0.193,0.412-0.111l10.771,6.22c0.145,0.082,0.193,0.266,0.11,0.41
						C185.489,10.105,185.389,10.159,185.285,10.159z"/>
				</g>
				<g>
					<path fill="#38459A" d="M141.396,22.566c-0.103,0-0.204-0.053-0.26-0.15c-0.083-0.144-0.033-0.327,0.111-0.41l37.658-21.742
						c0.146-0.083,0.327-0.034,0.41,0.11c0.084,0.144,0.034,0.327-0.11,0.41l-37.659,21.743
						C141.5,22.554,141.448,22.566,141.396,22.566z"/>
					<path fill="#38459A" d="M143.847,17.299c-0.103,0-0.204-0.054-0.261-0.151c-0.084-0.144-0.032-0.327,0.11-0.41l20.866-12.047
						c0.143-0.082,0.327-0.034,0.408,0.111c0.085,0.143,0.035,0.327-0.109,0.41l-20.863,12.047
						C143.95,17.286,143.898,17.299,143.847,17.299z"/>
					<path fill="#38459A" d="M145.832,12.457c-0.103,0-0.204-0.054-0.26-0.15c-0.083-0.144-0.033-0.328,0.109-0.41l10.774-6.219
						c0.143-0.083,0.327-0.034,0.408,0.11c0.085,0.144,0.035,0.328-0.109,0.41l-10.772,6.219
						C145.935,12.444,145.884,12.457,145.832,12.457z"/>
				</g>
				<g>
					<path fill="#38459A" d="M145.406,50.45c-0.167,0-0.301-0.135-0.301-0.299V6.663c0-0.166,0.134-0.3,0.301-0.3
						c0.164,0,0.301,0.134,0.301,0.3l-0.002,43.488C145.705,50.315,145.57,50.45,145.406,50.45z"/>
					<path fill="#38459A" d="M142.068,45.695c-0.165,0-0.302-0.135-0.302-0.301V21.302c0-0.166,0.137-0.3,0.302-0.3
						c0.166,0,0.301,0.135,0.301,0.3v24.092C142.369,45.56,142.234,45.695,142.068,45.695z"/>
					<path fill="#38459A" d="M138.867,41.553L138.867,41.553c-0.165,0-0.3-0.134-0.3-0.301V28.814c0-0.165,0.135-0.3,0.3-0.3l0,0
						c0.166,0,0.301,0.135,0.301,0.3v12.438C139.168,41.419,139.033,41.553,138.867,41.553z"/>
				</g>
				<g>
					<path fill="#38459A" d="M171.558,60.92c-0.052,0-0.104-0.013-0.151-0.041l-37.658-21.741c-0.143-0.084-0.192-0.268-0.111-0.411
						c0.086-0.144,0.268-0.193,0.412-0.11l37.659,21.742c0.143,0.083,0.191,0.267,0.11,0.411
						C171.761,60.867,171.66,60.92,171.558,60.92z"/>
					<path fill="#38459A" d="M165.771,61.434c-0.052,0-0.101-0.014-0.148-0.04l-20.865-12.047c-0.146-0.083-0.194-0.268-0.111-0.41
						c0.083-0.145,0.268-0.194,0.412-0.111l20.863,12.047c0.145,0.083,0.192,0.267,0.109,0.41
						C165.977,61.38,165.876,61.434,165.771,61.434z"/>
					<path fill="#38459A" d="M160.585,62.135c-0.052,0-0.104-0.013-0.151-0.04l-10.772-6.22c-0.143-0.083-0.192-0.267-0.108-0.41
						c0.083-0.144,0.265-0.193,0.409-0.11l10.771,6.22c0.145,0.083,0.193,0.267,0.11,0.41
						C160.788,62.082,160.688,62.135,160.585,62.135z"/>
				</g>
				<g>
					<path fill="#38459A" d="M156.042,65.25c-0.104,0-0.204-0.053-0.262-0.149c-0.081-0.145-0.033-0.328,0.111-0.411l37.658-21.742
						c0.145-0.083,0.327-0.034,0.41,0.11c0.084,0.144,0.034,0.328-0.108,0.41l-37.659,21.742
						C156.146,65.237,156.092,65.25,156.042,65.25z"/>
					<path fill="#38459A" d="M170.387,60.822c-0.104,0-0.204-0.054-0.26-0.151c-0.083-0.143-0.034-0.327,0.109-0.41l20.865-12.046
						c0.145-0.082,0.327-0.034,0.41,0.11c0.083,0.144,0.034,0.327-0.111,0.411l-20.863,12.046
						C170.489,60.809,170.438,60.822,170.387,60.822z"/>
					<path fill="#38459A" d="M178.492,59.837c-0.103,0-0.203-0.053-0.259-0.15c-0.083-0.144-0.034-0.327,0.11-0.41l10.773-6.219
						c0.143-0.083,0.326-0.033,0.407,0.11c0.086,0.145,0.036,0.328-0.108,0.411l-10.772,6.219
						C178.596,59.824,178.544,59.837,178.492,59.837z"/>
				</g>
				<g>
					<path fill="#38459A" d="M189.693,59.11c-0.169,0-0.302-0.135-0.302-0.3V15.325c0-0.167,0.133-0.301,0.302-0.301
						c0.166,0,0.299,0.135,0.299,0.301V58.81C189.992,58.975,189.859,59.11,189.693,59.11z"/>
					<path fill="#38459A" d="M193.029,44.471c-0.165,0-0.299-0.134-0.299-0.3V20.08c0-0.167,0.134-0.301,0.299-0.301
						c0.166,0,0.301,0.135,0.301,0.301v24.092C193.33,44.337,193.195,44.471,193.029,44.471z"/>
					<path fill="#38459A" d="M196.23,36.958L196.23,36.958c-0.166,0-0.301-0.135-0.301-0.3l0.002-12.438
						c0-0.167,0.135-0.301,0.299-0.301l0,0c0.166,0,0.301,0.135,0.301,0.301v12.438C196.531,36.824,196.395,36.958,196.23,36.958z"
						/>
				</g>
			</g>
		</g>
	</g>
	<g>
		<g>
			<path fill="#38459A" d="M15.838,16.68c0.466,0,0.886,0.124,1.255,0.369c0.37,0.247,0.554,0.628,0.554,1.145v24.554
				c0,0.517-0.178,0.893-0.536,1.126c-0.356,0.234-0.756,0.351-1.199,0.351s-0.843-0.117-1.201-0.351
				c-0.356-0.233-0.534-0.609-0.534-1.126v-1.403h-0.074c-0.517,0.984-1.317,1.729-2.4,2.233c-1.084,0.506-2.289,0.757-3.62,0.757
				c-2.536,0-4.461-0.793-5.777-2.381C0.989,40.366,0.33,38.022,0.33,34.92v-1.255c0-3.151,0.733-5.514,2.197-7.09
				c1.465-1.574,3.428-2.362,5.89-2.362c1.477,0,2.677,0.252,3.601,0.757c0.922,0.505,1.581,1.064,1.975,1.68v-8.455
				c0-0.517,0.185-0.898,0.554-1.145C14.915,16.804,15.345,16.68,15.838,16.68z M8.897,27.388c-1.601,0-2.825,0.523-3.674,1.569
				c-0.85,1.047-1.275,2.664-1.275,4.855v0.96c0,2.215,0.388,3.839,1.164,4.875c0.774,1.033,1.987,1.55,3.637,1.55
				c0.738,0,1.434-0.129,2.086-0.387c0.651-0.258,1.218-0.621,1.699-1.088c0.479-0.469,0.854-1.028,1.125-1.681
				c0.271-0.652,0.407-1.372,0.407-2.16v-4.245c0-0.517-0.112-1.035-0.333-1.551c-0.222-0.517-0.554-0.973-0.997-1.366
				c-0.443-0.394-0.985-0.714-1.624-0.96C10.472,27.512,9.733,27.388,8.897,27.388z"/>
			<path fill="#38459A" d="M31.677,24.213c2.831,0,5.053,0.793,6.665,2.381c1.612,1.588,2.419,3.945,2.419,7.071v1.218
				c0,3.126-0.807,5.482-2.419,7.07c-1.612,1.588-3.834,2.381-6.665,2.381c-2.831,0-5.052-0.793-6.664-2.381
				c-1.612-1.588-2.419-3.944-2.419-7.07v-1.218c0-3.126,0.807-5.483,2.419-7.071C26.625,25.006,28.847,24.213,31.677,24.213z
				 M31.677,27.425c-1.772,0-3.12,0.505-4.043,1.514c-0.923,1.01-1.384,2.622-1.384,4.836v0.998c0,2.241,0.46,3.858,1.384,4.855
				c0.923,0.998,2.271,1.496,4.043,1.496c1.797,0,3.151-0.498,4.061-1.496c0.911-0.998,1.367-2.615,1.367-4.855v-0.998
				c0-2.215-0.456-3.826-1.367-4.836C34.828,27.93,33.474,27.425,31.677,27.425z"/>
			<path fill="#38459A" d="M53.757,24.213c2.83,0,5.052,0.793,6.664,2.381c1.612,1.588,2.419,3.945,2.419,7.071v1.218
				c0,3.126-0.807,5.482-2.419,7.07c-1.612,1.588-3.834,2.381-6.664,2.381c-2.831,0-5.053-0.793-6.665-2.381
				c-1.612-1.588-2.417-3.944-2.417-7.07v-1.218c0-3.126,0.805-5.483,2.417-7.071C48.704,25.006,50.927,24.213,53.757,24.213z
				 M53.757,27.425c-1.773,0-3.12,0.505-4.043,1.514c-0.923,1.01-1.385,2.622-1.385,4.836v0.998c0,2.241,0.461,3.858,1.385,4.855
				c0.923,0.998,2.27,1.496,4.043,1.496c1.797,0,3.15-0.498,4.061-1.496c0.91-0.998,1.366-2.615,1.366-4.855v-0.998
				c0-2.215-0.456-3.826-1.366-4.836C56.907,27.93,55.554,27.425,53.757,27.425z"/>
			<path fill="#38459A" d="M77.461,24.213c2.216,0,3.938,0.622,5.169,1.865c1.23,1.242,1.846,3.022,1.846,5.334V42.71
				c0,0.518-0.184,0.9-0.555,1.145c-0.368,0.247-0.787,0.369-1.255,0.369c-0.468,0-0.886-0.123-1.255-0.369
				c-0.37-0.245-0.555-0.627-0.555-1.145V32.262c0-1.772-0.387-3.021-1.163-3.747c-0.775-0.726-1.864-1.09-3.268-1.09
				c-0.665,0-1.298,0.117-1.9,0.351c-0.604,0.234-1.133,0.56-1.588,0.979c-0.456,0.419-0.819,0.929-1.09,1.532
				c-0.271,0.603-0.406,1.287-0.406,2.049V42.71c0,0.518-0.186,0.9-0.554,1.145c-0.37,0.247-0.8,0.369-1.292,0.369
				c-0.469,0-0.887-0.123-1.255-0.369c-0.369-0.245-0.555-0.627-0.555-1.145V25.948c0-0.517,0.18-0.892,0.536-1.126
				c0.356-0.233,0.757-0.351,1.199-0.351c0.444,0,0.844,0.117,1.201,0.351c0.356,0.235,0.535,0.609,0.535,1.126v1.292h0.075
				c0.467-0.861,1.255-1.581,2.363-2.159C74.803,24.502,76.058,24.213,77.461,24.213z"/>
			<path fill="#38459A" d="M97.289,24.213c1.477,0,2.695,0.258,3.656,0.774c0.959,0.518,1.635,1.083,2.031,1.7h0.035v-0.739
				c0-0.517,0.179-0.892,0.537-1.126c0.354-0.233,0.767-0.351,1.236-0.351c0.441,0,0.844,0.117,1.198,0.351
				c0.358,0.235,0.537,0.609,0.537,1.126v17.538c0,2.831-0.751,4.917-2.253,6.259c-1.501,1.341-3.718,2.012-6.646,2.012
				c-1.157,0-2.241-0.142-3.25-0.424c-1.008-0.283-1.882-0.646-2.621-1.089c-0.419-0.246-0.646-0.585-0.684-1.015
				c-0.037-0.431,0.043-0.831,0.24-1.201c0.247-0.419,0.542-0.689,0.887-0.812c0.344-0.123,0.739-0.074,1.182,0.148
				c0.565,0.344,1.218,0.633,1.957,0.868c0.738,0.233,1.5,0.351,2.289,0.351c1.699,0,3.009-0.4,3.932-1.201s1.385-2.11,1.385-3.932
				v-2.622h-0.073c-0.517,1.01-1.3,1.761-2.346,2.253c-1.047,0.493-2.233,0.738-3.563,0.738c-2.536,0-4.461-0.788-5.779-2.363
				c-1.317-1.575-1.975-3.877-1.975-6.905v-1.033c0-3.077,0.732-5.397,2.197-6.96C92.863,24.994,94.826,24.213,97.289,24.213z
				 M97.768,27.388c-1.601,0-2.824,0.516-3.674,1.55c-0.849,1.034-1.273,2.61-1.273,4.727v0.738c0,2.143,0.388,3.724,1.164,4.745
				c0.774,1.022,1.987,1.532,3.636,1.532c0.739,0,1.433-0.128,2.087-0.387c0.651-0.258,1.217-0.621,1.697-1.089
				c0.481-0.467,0.855-1.027,1.127-1.68c0.27-0.651,0.406-1.372,0.406-2.159v-3.729c0-0.517-0.111-1.035-0.331-1.551
				c-0.222-0.517-0.557-0.973-0.998-1.366c-0.443-0.394-0.984-0.714-1.625-0.96C99.343,27.512,98.605,27.388,97.768,27.388z"/>
			<path fill="#38459A" d="M114.974,24.471c0.492,0,0.916,0.123,1.274,0.369c0.356,0.247,0.535,0.628,0.535,1.145V45.11
				c0,2.339-0.523,3.982-1.569,4.93c-1.046,0.947-2.492,1.421-4.339,1.421c-1.183,0-2.19-0.196-3.026-0.59
				c-0.395-0.172-0.652-0.432-0.776-0.775c-0.121-0.345-0.111-0.726,0.037-1.144c0.148-0.469,0.377-0.77,0.684-0.906
				c0.307-0.135,0.634-0.142,0.979-0.019c0.614,0.222,1.217,0.333,1.809,0.333c0.936,0,1.599-0.234,1.995-0.702
				c0.393-0.468,0.588-1.305,0.588-2.511V25.985c0-0.517,0.185-0.898,0.555-1.145C114.089,24.594,114.507,24.471,114.974,24.471z
				 M114.974,17.161c0.688,0,1.261,0.228,1.718,0.683c0.454,0.455,0.684,1.002,0.684,1.644c0,0.664-0.229,1.224-0.684,1.68
				c-0.457,0.456-1.03,0.683-1.718,0.683c-0.688,0-1.268-0.227-1.735-0.683c-0.467-0.456-0.701-1.016-0.701-1.68
				c0-0.641,0.234-1.189,0.701-1.644C113.706,17.388,114.285,17.161,114.974,17.161z"/>
			<path fill="#38459A" d="M124.796,17.161c0.688,0,1.266,0.228,1.735,0.683c0.466,0.455,0.701,1.002,0.701,1.644
				c0,0.664-0.235,1.224-0.701,1.68c-0.47,0.456-1.048,0.683-1.735,0.683c-0.689,0-1.27-0.227-1.737-0.683
				c-0.466-0.456-0.701-1.016-0.701-1.68c0-0.641,0.235-1.189,0.701-1.644C123.526,17.388,124.106,17.161,124.796,17.161z
				 M124.796,24.471c0.491,0,0.915,0.123,1.273,0.369c0.354,0.247,0.535,0.628,0.535,1.145V42.71c0,0.518-0.181,0.9-0.535,1.145
				c-0.358,0.247-0.782,0.369-1.273,0.369c-0.468,0-0.888-0.123-1.256-0.369c-0.37-0.245-0.555-0.627-0.555-1.145V25.985
				c0-0.517,0.185-0.898,0.555-1.145C123.908,24.594,124.328,24.471,124.796,24.471z"/>
		</g>
	</g>
</g>
</svg>
